<?xml version="1.0" standalone="no"?>
 <!DOCTYPE svg PUBLIC "-//W3C//DTD SVG 1.1//EN" 
 "http://www.w3.org/Graphics/SVG/1.1/DTD/svg11.dtd"> 
<svg
  xmlns:svg="http://www.w3.org/2000/svg"
  xmlns="http://www.w3.org/2000/svg"
  xmlns:xlink="http://www.w3.org/1999/xlink"
  xmlns:inkscape="http://www.inkscape.org/namespaces/inkscape"
  version="1.1"
  width="72.9996mm" height="55.9816mm" viewBox="0.0000 0.0000 72.9996 55.9816">
<title>SVG Image created as sensors-back-asy.svg date 2026-07-13T20:37:31 </title>
  <desc>Image generated by PCBNEW </desc>
<g style="fill:#000000; fill-opacity:1.0000;stroke:#000000; stroke-opacity:1.0000;
stroke-linecap:round; stroke-linejoin:round;"
 transform="translate(0 0) scale(1 1)">
</g>
<g style="fill:none; 
stroke:#C872AB; stroke-width:0.1500; stroke-opacity:1; 
stroke-linecap:round; stroke-linejoin:round;">
<path d="M-147.0000 -32.0000
L-39.0000 -32.0000
L-39.0000 0.0000
L-147.0000 0.0000
L-147.0000 -32.0000
" />
<path d="M-90.0000 -34.0000
L-37.0000 -34.0000
L-37.0000 2.0000
L-90.0000 2.0000
L-90.0000 -34.0000
" />
<path d="M-88.0000 -32.0000
L-39.0000 -32.0000
L-39.0000 0.0000
L-88.0000 0.0000
L-88.0000 -32.0000
" />
<path d="M-40.0000 -32.0000
L-40.0000 -34.0000
" />
<text x="-65.0000" y="-32.3500"
textLength="1.4281" font-size="1.7333" lengthAdjust="spacingAndGlyphs"
text-anchor="start" opacity="0" stroke-opacity="0">1</text>
<g class="stroked-text"><desc>1</desc>
<path d="M-63.9108 -32.4064
L-64.6537 -32.4064
" />
<path d="M-64.2823 -32.4064
L-64.2823 -33.7064
" />
<path d="M-64.2823 -33.7064
L-64.4061 -33.5207
" />
<path d="M-64.4061 -33.5207
L-64.5299 -33.3969
" />
<path d="M-64.5299 -33.3969
L-64.6537 -33.3350
" />
</g><path d="M-40.0000 0.0000
L-40.0000 2.0000
" />
<text x="-65.0000" y="1.6500"
textLength="1.4281" font-size="1.7333" lengthAdjust="spacingAndGlyphs"
text-anchor="start" opacity="0" stroke-opacity="0">1</text>
<g class="stroked-text"><desc>1</desc>
<path d="M-63.9108 1.5936
L-64.6537 1.5936
" />
<path d="M-64.2823 1.5936
L-64.2823 0.2936
" />
<path d="M-64.2823 0.2936
L-64.4061 0.4793
" />
<path d="M-64.4061 0.4793
L-64.5299 0.6031
" />
<path d="M-64.5299 0.6031
L-64.6537 0.6650
" />
</g><path d="M-90.0000 16.0000
L-88.0000 16.0000
" />
<text x="-89.0000" y="-8.3500"
textLength="1.3043" font-size="1.7333" lengthAdjust="spacingAndGlyphs"
text-anchor="middle" opacity="0" stroke-opacity="0">A</text>
<g class="stroked-text"><desc>A</desc>
<path d="M-89.3095 -8.7778
L-88.6905 -8.7778
" />
<path d="M-89.4333 -8.4064
L-89.0000 -9.7064
" />
<path d="M-89.0000 -9.7064
L-88.5667 -8.4064
" />
</g><path d="M-37.0000 16.0000
L-39.0000 16.0000
" />
<text x="-38.0000" y="-8.3500"
textLength="1.3043" font-size="1.7333" lengthAdjust="spacingAndGlyphs"
text-anchor="middle" opacity="0" stroke-opacity="0">A</text>
<g class="stroked-text"><desc>A</desc>
<path d="M-38.3095 -8.7778
L-37.6905 -8.7778
" />
<path d="M-38.4333 -8.4064
L-38.0000 -9.7064
" />
<path d="M-38.0000 -9.7064
L-37.5667 -8.4064
" />
</g><text x="-124.0000" y="-4.1500"
textLength="21.7214" font-size="2.0000" lengthAdjust="spacingAndGlyphs"
text-anchor="start" opacity="0" stroke-opacity="0">Date: 15 nov 2012</text>
<g class="stroked-text"><desc>Date: 15 nov 2012</desc>
<path d="M-123.5442 -4.2139
L-123.5442 -5.7139
" />
<path d="M-123.5442 -5.7139
L-123.1870 -5.7139
" />
<path d="M-123.1870 -5.7139
L-122.9727 -5.6424
" />
<path d="M-122.9727 -5.6424
L-122.8299 -5.4996
" />
<path d="M-122.8299 -5.4996
L-122.7585 -5.3567
" />
<path d="M-122.7585 -5.3567
L-122.6870 -5.0710
" />
<path d="M-122.6870 -5.0710
L-122.6870 -4.8567
" />
<path d="M-122.6870 -4.8567
L-122.7585 -4.5710
" />
<path d="M-122.7585 -4.5710
L-122.8299 -4.4282
" />
<path d="M-122.8299 -4.4282
L-122.9727 -4.2853
" />
<path d="M-122.9727 -4.2853
L-123.1870 -4.2139
" />
<path d="M-123.1870 -4.2139
L-123.5442 -4.2139
" />
<path d="M-121.4013 -4.2139
L-121.4013 -4.9996
" />
<path d="M-121.4013 -4.9996
L-121.4727 -5.1424
" />
<path d="M-121.4727 -5.1424
L-121.6156 -5.2139
" />
<path d="M-121.6156 -5.2139
L-121.9013 -5.2139
" />
<path d="M-121.9013 -5.2139
L-122.0442 -5.1424
" />
<path d="M-121.4013 -4.2853
L-121.5442 -4.2139
" />
<path d="M-121.5442 -4.2139
L-121.9013 -4.2139
" />
<path d="M-121.9013 -4.2139
L-122.0442 -4.2853
" />
<path d="M-122.0442 -4.2853
L-122.1156 -4.4282
" />
<path d="M-122.1156 -4.4282
L-122.1156 -4.5710
" />
<path d="M-122.1156 -4.5710
L-122.0442 -4.7139
" />
<path d="M-122.0442 -4.7139
L-121.9013 -4.7853
" />
<path d="M-121.9013 -4.7853
L-121.5442 -4.7853
" />
<path d="M-121.5442 -4.7853
L-121.4013 -4.8567
" />
<path d="M-120.9013 -5.2139
L-120.3299 -5.2139
" />
<path d="M-120.6870 -5.7139
L-120.6870 -4.4282
" />
<path d="M-120.6870 -4.4282
L-120.6156 -4.2853
" />
<path d="M-120.6156 -4.2853
L-120.4727 -4.2139
" />
<path d="M-120.4727 -4.2139
L-120.3299 -4.2139
" />
<path d="M-119.2585 -4.2853
L-119.4013 -4.2139
" />
<path d="M-119.4013 -4.2139
L-119.6870 -4.2139
" />
<path d="M-119.6870 -4.2139
L-119.8299 -4.2853
" />
<path d="M-119.8299 -4.2853
L-119.9013 -4.4282
" />
<path d="M-119.9013 -4.4282
L-119.9013 -4.9996
" />
<path d="M-119.9013 -4.9996
L-119.8299 -5.1424
" />
<path d="M-119.8299 -5.1424
L-119.6870 -5.2139
" />
<path d="M-119.6870 -5.2139
L-119.4013 -5.2139
" />
<path d="M-119.4013 -5.2139
L-119.2585 -5.1424
" />
<path d="M-119.2585 -5.1424
L-119.1870 -4.9996
" />
<path d="M-119.1870 -4.9996
L-119.1870 -4.8567
" />
<path d="M-119.1870 -4.8567
L-119.9013 -4.7139
" />
<path d="M-118.5442 -4.3567
L-118.4727 -4.2853
" />
<path d="M-118.4727 -4.2853
L-118.5442 -4.2139
" />
<path d="M-118.5442 -4.2139
L-118.6156 -4.2853
" />
<path d="M-118.6156 -4.2853
L-118.5442 -4.3567
" />
<path d="M-118.5442 -4.3567
L-118.5442 -4.2139
" />
<path d="M-118.5442 -5.1424
L-118.4727 -5.0710
" />
<path d="M-118.4727 -5.0710
L-118.5442 -4.9996
" />
<path d="M-118.5442 -4.9996
L-118.6156 -5.0710
" />
<path d="M-118.6156 -5.0710
L-118.5442 -5.1424
" />
<path d="M-118.5442 -5.1424
L-118.5442 -4.9996
" />
<path d="M-115.9013 -4.2139
L-116.7585 -4.2139
" />
<path d="M-116.3299 -4.2139
L-116.3299 -5.7139
" />
<path d="M-116.3299 -5.7139
L-116.4727 -5.4996
" />
<path d="M-116.4727 -5.4996
L-116.6156 -5.3567
" />
<path d="M-116.6156 -5.3567
L-116.7585 -5.2853
" />
<path d="M-114.5442 -5.7139
L-115.2585 -5.7139
" />
<path d="M-115.2585 -5.7139
L-115.3299 -4.9996
" />
<path d="M-115.3299 -4.9996
L-115.2585 -5.0710
" />
<path d="M-115.2585 -5.0710
L-115.1156 -5.1424
" />
<path d="M-115.1156 -5.1424
L-114.7585 -5.1424
" />
<path d="M-114.7585 -5.1424
L-114.6156 -5.0710
" />
<path d="M-114.6156 -5.0710
L-114.5442 -4.9996
" />
<path d="M-114.5442 -4.9996
L-114.4727 -4.8567
" />
<path d="M-114.4727 -4.8567
L-114.4727 -4.4996
" />
<path d="M-114.4727 -4.4996
L-114.5442 -4.3567
" />
<path d="M-114.5442 -4.3567
L-114.6156 -4.2853
" />
<path d="M-114.6156 -4.2853
L-114.7585 -4.2139
" />
<path d="M-114.7585 -4.2139
L-115.1156 -4.2139
" />
<path d="M-115.1156 -4.2139
L-115.2585 -4.2853
" />
<path d="M-115.2585 -4.2853
L-115.3299 -4.3567
" />
<path d="M-112.6870 -5.2139
L-112.6870 -4.2139
" />
<path d="M-112.6870 -5.0710
L-112.6156 -5.1424
" />
<path d="M-112.6156 -5.1424
L-112.4727 -5.2139
" />
<path d="M-112.4727 -5.2139
L-112.2585 -5.2139
" />
<path d="M-112.2585 -5.2139
L-112.1156 -5.1424
" />
<path d="M-112.1156 -5.1424
L-112.0442 -4.9996
" />
<path d="M-112.0442 -4.9996
L-112.0442 -4.2139
" />
<path d="M-111.1156 -4.2139
L-111.2585 -4.2853
" />
<path d="M-111.2585 -4.2853
L-111.3299 -4.3567
" />
<path d="M-111.3299 -4.3567
L-111.4013 -4.4996
" />
<path d="M-111.4013 -4.4996
L-111.4013 -4.9282
" />
<path d="M-111.4013 -4.9282
L-111.3299 -5.0710
" />
<path d="M-111.3299 -5.0710
L-111.2585 -5.1424
" />
<path d="M-111.2585 -5.1424
L-111.1156 -5.2139
" />
<path d="M-111.1156 -5.2139
L-110.9013 -5.2139
" />
<path d="M-110.9013 -5.2139
L-110.7585 -5.1424
" />
<path d="M-110.7585 -5.1424
L-110.6870 -5.0710
" />
<path d="M-110.6870 -5.0710
L-110.6156 -4.9282
" />
<path d="M-110.6156 -4.9282
L-110.6156 -4.4996
" />
<path d="M-110.6156 -4.4996
L-110.6870 -4.3567
" />
<path d="M-110.6870 -4.3567
L-110.7585 -4.2853
" />
<path d="M-110.7585 -4.2853
L-110.9013 -4.2139
" />
<path d="M-110.9013 -4.2139
L-111.1156 -4.2139
" />
<path d="M-110.1156 -5.2139
L-109.7585 -4.2139
" />
<path d="M-109.7585 -4.2139
L-109.4013 -5.2139
" />
<path d="M-107.7585 -5.5710
L-107.6870 -5.6424
" />
<path d="M-107.6870 -5.6424
L-107.5442 -5.7139
" />
<path d="M-107.5442 -5.7139
L-107.1870 -5.7139
" />
<path d="M-107.1870 -5.7139
L-107.0442 -5.6424
" />
<path d="M-107.0442 -5.6424
L-106.9727 -5.5710
" />
<path d="M-106.9727 -5.5710
L-106.9013 -5.4282
" />
<path d="M-106.9013 -5.4282
L-106.9013 -5.2853
" />
<path d="M-106.9013 -5.2853
L-106.9727 -5.0710
" />
<path d="M-106.9727 -5.0710
L-107.8299 -4.2139
" />
<path d="M-107.8299 -4.2139
L-106.9013 -4.2139
" />
<path d="M-105.9727 -5.7139
L-105.8299 -5.7139
" />
<path d="M-105.8299 -5.7139
L-105.6870 -5.6424
" />
<path d="M-105.6870 -5.6424
L-105.6156 -5.5710
" />
<path d="M-105.6156 -5.5710
L-105.5442 -5.4282
" />
<path d="M-105.5442 -5.4282
L-105.4727 -5.1424
" />
<path d="M-105.4727 -5.1424
L-105.4727 -4.7853
" />
<path d="M-105.4727 -4.7853
L-105.5442 -4.4996
" />
<path d="M-105.5442 -4.4996
L-105.6156 -4.3567
" />
<path d="M-105.6156 -4.3567
L-105.6870 -4.2853
" />
<path d="M-105.6870 -4.2853
L-105.8299 -4.2139
" />
<path d="M-105.8299 -4.2139
L-105.9727 -4.2139
" />
<path d="M-105.9727 -4.2139
L-106.1156 -4.2853
" />
<path d="M-106.1156 -4.2853
L-106.1870 -4.3567
" />
<path d="M-106.1870 -4.3567
L-106.2585 -4.4996
" />
<path d="M-106.2585 -4.4996
L-106.3299 -4.7853
" />
<path d="M-106.3299 -4.7853
L-106.3299 -5.1424
" />
<path d="M-106.3299 -5.1424
L-106.2585 -5.4282
" />
<path d="M-106.2585 -5.4282
L-106.1870 -5.5710
" />
<path d="M-106.1870 -5.5710
L-106.1156 -5.6424
" />
<path d="M-106.1156 -5.6424
L-105.9727 -5.7139
" />
<path d="M-104.0442 -4.2139
L-104.9013 -4.2139
" />
<path d="M-104.4727 -4.2139
L-104.4727 -5.7139
" />
<path d="M-104.4727 -5.7139
L-104.6156 -5.4996
" />
<path d="M-104.6156 -5.4996
L-104.7585 -5.3567
" />
<path d="M-104.7585 -5.3567
L-104.9013 -5.2853
" />
<path d="M-103.4727 -5.5710
L-103.4013 -5.6424
" />
<path d="M-103.4013 -5.6424
L-103.2585 -5.7139
" />
<path d="M-103.2585 -5.7139
L-102.9013 -5.7139
" />
<path d="M-102.9013 -5.7139
L-102.7585 -5.6424
" />
<path d="M-102.7585 -5.6424
L-102.6870 -5.5710
" />
<path d="M-102.6870 -5.5710
L-102.6156 -5.4282
" />
<path d="M-102.6156 -5.4282
L-102.6156 -5.2853
" />
<path d="M-102.6156 -5.2853
L-102.6870 -5.0710
" />
<path d="M-102.6870 -5.0710
L-103.5442 -4.2139
" />
<path d="M-103.5442 -4.2139
L-102.6156 -4.2139
" />
</g><path d="M-147.0000 -3.5000
L-39.0000 -3.5000
" />
<text x="-146.0000" y="-1.3500"
textLength="22.2929" font-size="2.0000" lengthAdjust="spacingAndGlyphs"
text-anchor="start" opacity="0" stroke-opacity="0">KiCad E.D.A. 10.0.4</text>
<g class="stroked-text"><desc>KiCad E.D.A. 10.0.4</desc>
<path d="M-145.5442 -1.4139
L-145.5442 -2.9139
" />
<path d="M-144.6870 -1.4139
L-145.3299 -2.2710
" />
<path d="M-144.6870 -2.9139
L-145.5442 -2.0567
" />
<path d="M-144.0442 -1.4139
L-144.0442 -2.4139
" />
<path d="M-144.0442 -2.9139
L-144.1156 -2.8424
" />
<path d="M-144.1156 -2.8424
L-144.0442 -2.7710
" />
<path d="M-144.0442 -2.7710
L-143.9727 -2.8424
" />
<path d="M-143.9727 -2.8424
L-144.0442 -2.9139
" />
<path d="M-144.0442 -2.9139
L-144.0442 -2.7710
" />
<path d="M-142.4727 -1.5567
L-142.5442 -1.4853
" />
<path d="M-142.5442 -1.4853
L-142.7585 -1.4139
" />
<path d="M-142.7585 -1.4139
L-142.9013 -1.4139
" />
<path d="M-142.9013 -1.4139
L-143.1156 -1.4853
" />
<path d="M-143.1156 -1.4853
L-143.2585 -1.6282
" />
<path d="M-143.2585 -1.6282
L-143.3299 -1.7710
" />
<path d="M-143.3299 -1.7710
L-143.4013 -2.0567
" />
<path d="M-143.4013 -2.0567
L-143.4013 -2.2710
" />
<path d="M-143.4013 -2.2710
L-143.3299 -2.5567
" />
<path d="M-143.3299 -2.5567
L-143.2585 -2.6996
" />
<path d="M-143.2585 -2.6996
L-143.1156 -2.8424
" />
<path d="M-143.1156 -2.8424
L-142.9013 -2.9139
" />
<path d="M-142.9013 -2.9139
L-142.7585 -2.9139
" />
<path d="M-142.7585 -2.9139
L-142.5442 -2.8424
" />
<path d="M-142.5442 -2.8424
L-142.4727 -2.7710
" />
<path d="M-141.1870 -1.4139
L-141.1870 -2.1996
" />
<path d="M-141.1870 -2.1996
L-141.2585 -2.3424
" />
<path d="M-141.2585 -2.3424
L-141.4013 -2.4139
" />
<path d="M-141.4013 -2.4139
L-141.6870 -2.4139
" />
<path d="M-141.6870 -2.4139
L-141.8299 -2.3424
" />
<path d="M-141.1870 -1.4853
L-141.3299 -1.4139
" />
<path d="M-141.3299 -1.4139
L-141.6870 -1.4139
" />
<path d="M-141.6870 -1.4139
L-141.8299 -1.4853
" />
<path d="M-141.8299 -1.4853
L-141.9013 -1.6282
" />
<path d="M-141.9013 -1.6282
L-141.9013 -1.7710
" />
<path d="M-141.9013 -1.7710
L-141.8299 -1.9139
" />
<path d="M-141.8299 -1.9139
L-141.6870 -1.9853
" />
<path d="M-141.6870 -1.9853
L-141.3299 -1.9853
" />
<path d="M-141.3299 -1.9853
L-141.1870 -2.0567
" />
<path d="M-139.8299 -1.4139
L-139.8299 -2.9139
" />
<path d="M-139.8299 -1.4853
L-139.9727 -1.4139
" />
<path d="M-139.9727 -1.4139
L-140.2585 -1.4139
" />
<path d="M-140.2585 -1.4139
L-140.4013 -1.4853
" />
<path d="M-140.4013 -1.4853
L-140.4727 -1.5567
" />
<path d="M-140.4727 -1.5567
L-140.5442 -1.6996
" />
<path d="M-140.5442 -1.6996
L-140.5442 -2.1282
" />
<path d="M-140.5442 -2.1282
L-140.4727 -2.2710
" />
<path d="M-140.4727 -2.2710
L-140.4013 -2.3424
" />
<path d="M-140.4013 -2.3424
L-140.2585 -2.4139
" />
<path d="M-140.2585 -2.4139
L-139.9727 -2.4139
" />
<path d="M-139.9727 -2.4139
L-139.8299 -2.3424
" />
<path d="M-137.9727 -2.1996
L-137.4727 -2.1996
" />
<path d="M-137.2585 -1.4139
L-137.9727 -1.4139
" />
<path d="M-137.9727 -1.4139
L-137.9727 -2.9139
" />
<path d="M-137.9727 -2.9139
L-137.2585 -2.9139
" />
<path d="M-136.6156 -1.5567
L-136.5442 -1.4853
" />
<path d="M-136.5442 -1.4853
L-136.6156 -1.4139
" />
<path d="M-136.6156 -1.4139
L-136.6870 -1.4853
" />
<path d="M-136.6870 -1.4853
L-136.6156 -1.5567
" />
<path d="M-136.6156 -1.5567
L-136.6156 -1.4139
" />
<path d="M-135.9013 -1.4139
L-135.9013 -2.9139
" />
<path d="M-135.9013 -2.9139
L-135.5442 -2.9139
" />
<path d="M-135.5442 -2.9139
L-135.3299 -2.8424
" />
<path d="M-135.3299 -2.8424
L-135.1870 -2.6996
" />
<path d="M-135.1870 -2.6996
L-135.1156 -2.5567
" />
<path d="M-135.1156 -2.5567
L-135.0442 -2.2710
" />
<path d="M-135.0442 -2.2710
L-135.0442 -2.0567
" />
<path d="M-135.0442 -2.0567
L-135.1156 -1.7710
" />
<path d="M-135.1156 -1.7710
L-135.1870 -1.6282
" />
<path d="M-135.1870 -1.6282
L-135.3299 -1.4853
" />
<path d="M-135.3299 -1.4853
L-135.5442 -1.4139
" />
<path d="M-135.5442 -1.4139
L-135.9013 -1.4139
" />
<path d="M-134.4013 -1.5567
L-134.3299 -1.4853
" />
<path d="M-134.3299 -1.4853
L-134.4013 -1.4139
" />
<path d="M-134.4013 -1.4139
L-134.4727 -1.4853
" />
<path d="M-134.4727 -1.4853
L-134.4013 -1.5567
" />
<path d="M-134.4013 -1.5567
L-134.4013 -1.4139
" />
<path d="M-133.7585 -1.8424
L-133.0442 -1.8424
" />
<path d="M-133.9013 -1.4139
L-133.4013 -2.9139
" />
<path d="M-133.4013 -2.9139
L-132.9013 -1.4139
" />
<path d="M-132.4013 -1.5567
L-132.3299 -1.4853
" />
<path d="M-132.3299 -1.4853
L-132.4013 -1.4139
" />
<path d="M-132.4013 -1.4139
L-132.4727 -1.4853
" />
<path d="M-132.4727 -1.4853
L-132.4013 -1.5567
" />
<path d="M-132.4013 -1.5567
L-132.4013 -1.4139
" />
<path d="M-129.7585 -1.4139
L-130.6156 -1.4139
" />
<path d="M-130.1870 -1.4139
L-130.1870 -2.9139
" />
<path d="M-130.1870 -2.9139
L-130.3299 -2.6996
" />
<path d="M-130.3299 -2.6996
L-130.4727 -2.5567
" />
<path d="M-130.4727 -2.5567
L-130.6156 -2.4853
" />
<path d="M-128.8299 -2.9139
L-128.6870 -2.9139
" />
<path d="M-128.6870 -2.9139
L-128.5442 -2.8424
" />
<path d="M-128.5442 -2.8424
L-128.4727 -2.7710
" />
<path d="M-128.4727 -2.7710
L-128.4013 -2.6282
" />
<path d="M-128.4013 -2.6282
L-128.3299 -2.3424
" />
<path d="M-128.3299 -2.3424
L-128.3299 -1.9853
" />
<path d="M-128.3299 -1.9853
L-128.4013 -1.6996
" />
<path d="M-128.4013 -1.6996
L-128.4727 -1.5567
" />
<path d="M-128.4727 -1.5567
L-128.5442 -1.4853
" />
<path d="M-128.5442 -1.4853
L-128.6870 -1.4139
" />
<path d="M-128.6870 -1.4139
L-128.8299 -1.4139
" />
<path d="M-128.8299 -1.4139
L-128.9727 -1.4853
" />
<path d="M-128.9727 -1.4853
L-129.0442 -1.5567
" />
<path d="M-129.0442 -1.5567
L-129.1156 -1.6996
" />
<path d="M-129.1156 -1.6996
L-129.1870 -1.9853
" />
<path d="M-129.1870 -1.9853
L-129.1870 -2.3424
" />
<path d="M-129.1870 -2.3424
L-129.1156 -2.6282
" />
<path d="M-129.1156 -2.6282
L-129.0442 -2.7710
" />
<path d="M-129.0442 -2.7710
L-128.9727 -2.8424
" />
<path d="M-128.9727 -2.8424
L-128.8299 -2.9139
" />
<path d="M-127.6870 -1.5567
L-127.6156 -1.4853
" />
<path d="M-127.6156 -1.4853
L-127.6870 -1.4139
" />
<path d="M-127.6870 -1.4139
L-127.7585 -1.4853
" />
<path d="M-127.7585 -1.4853
L-127.6870 -1.5567
" />
<path d="M-127.6870 -1.5567
L-127.6870 -1.4139
" />
<path d="M-126.6870 -2.9139
L-126.5442 -2.9139
" />
<path d="M-126.5442 -2.9139
L-126.4013 -2.8424
" />
<path d="M-126.4013 -2.8424
L-126.3299 -2.7710
" />
<path d="M-126.3299 -2.7710
L-126.2585 -2.6282
" />
<path d="M-126.2585 -2.6282
L-126.1870 -2.3424
" />
<path d="M-126.1870 -2.3424
L-126.1870 -1.9853
" />
<path d="M-126.1870 -1.9853
L-126.2585 -1.6996
" />
<path d="M-126.2585 -1.6996
L-126.3299 -1.5567
" />
<path d="M-126.3299 -1.5567
L-126.4013 -1.4853
" />
<path d="M-126.4013 -1.4853
L-126.5442 -1.4139
" />
<path d="M-126.5442 -1.4139
L-126.6870 -1.4139
" />
<path d="M-126.6870 -1.4139
L-126.8299 -1.4853
" />
<path d="M-126.8299 -1.4853
L-126.9013 -1.5567
" />
<path d="M-126.9013 -1.5567
L-126.9727 -1.6996
" />
<path d="M-126.9727 -1.6996
L-127.0442 -1.9853
" />
<path d="M-127.0442 -1.9853
L-127.0442 -2.3424
" />
<path d="M-127.0442 -2.3424
L-126.9727 -2.6282
" />
<path d="M-126.9727 -2.6282
L-126.9013 -2.7710
" />
<path d="M-126.9013 -2.7710
L-126.8299 -2.8424
" />
<path d="M-126.8299 -2.8424
L-126.6870 -2.9139
" />
<path d="M-125.5442 -1.5567
L-125.4727 -1.4853
" />
<path d="M-125.4727 -1.4853
L-125.5442 -1.4139
" />
<path d="M-125.5442 -1.4139
L-125.6156 -1.4853
" />
<path d="M-125.6156 -1.4853
L-125.5442 -1.5567
" />
<path d="M-125.5442 -1.5567
L-125.5442 -1.4139
" />
<path d="M-124.1870 -2.4139
L-124.1870 -1.4139
" />
<path d="M-124.5442 -2.9853
L-124.9013 -1.9139
" />
<path d="M-124.9013 -1.9139
L-123.9727 -1.9139
" />
</g><path d="M-147.0000 -6.5000
L-39.0000 -6.5000
" />
</g>
<g style="fill:none; 
stroke:#C872AB; stroke-width:0.3000; stroke-opacity:1; 
stroke-linecap:round; stroke-linejoin:round;">
<text x="-61.0000" y="-4.1500"
textLength="6.3857" font-size="2.0000" lengthAdjust="spacingAndGlyphs"
text-anchor="start" opacity="0" stroke-opacity="0">Rev: </text>
<g class="stroked-text"><desc>Rev: </desc>
<path d="M-59.5883 -4.2217
L-60.0883 -4.9360
" />
<path d="M-60.4455 -4.2217
L-60.4455 -5.7217
" />
<path d="M-60.4455 -5.7217
L-59.8741 -5.7217
" />
<path d="M-59.8741 -5.7217
L-59.7312 -5.6502
" />
<path d="M-59.7312 -5.6502
L-59.6598 -5.5788
" />
<path d="M-59.6598 -5.5788
L-59.5883 -5.4360
" />
<path d="M-59.5883 -5.4360
L-59.5883 -5.2217
" />
<path d="M-59.5883 -5.2217
L-59.6598 -5.0788
" />
<path d="M-59.6598 -5.0788
L-59.7312 -5.0074
" />
<path d="M-59.7312 -5.0074
L-59.8741 -4.9360
" />
<path d="M-59.8741 -4.9360
L-60.4455 -4.9360
" />
<path d="M-58.3741 -4.2931
L-58.5169 -4.2217
" />
<path d="M-58.5169 -4.2217
L-58.8026 -4.2217
" />
<path d="M-58.8026 -4.2217
L-58.9455 -4.2931
" />
<path d="M-58.9455 -4.2931
L-59.0169 -4.4360
" />
<path d="M-59.0169 -4.4360
L-59.0169 -5.0074
" />
<path d="M-59.0169 -5.0074
L-58.9455 -5.1502
" />
<path d="M-58.9455 -5.1502
L-58.8026 -5.2217
" />
<path d="M-58.8026 -5.2217
L-58.5169 -5.2217
" />
<path d="M-58.5169 -5.2217
L-58.3741 -5.1502
" />
<path d="M-58.3741 -5.1502
L-58.3026 -5.0074
" />
<path d="M-58.3026 -5.0074
L-58.3026 -4.8645
" />
<path d="M-58.3026 -4.8645
L-59.0169 -4.7217
" />
<path d="M-57.8026 -5.2217
L-57.4455 -4.2217
" />
<path d="M-57.4455 -4.2217
L-57.0883 -5.2217
" />
<path d="M-56.5169 -4.3645
L-56.4455 -4.2931
" />
<path d="M-56.4455 -4.2931
L-56.5169 -4.2217
" />
<path d="M-56.5169 -4.2217
L-56.5883 -4.2931
" />
<path d="M-56.5883 -4.2931
L-56.5169 -4.3645
" />
<path d="M-56.5169 -4.3645
L-56.5169 -4.2217
" />
<path d="M-56.5169 -5.1502
L-56.4455 -5.0788
" />
<path d="M-56.4455 -5.0788
L-56.5169 -5.0074
" />
<path d="M-56.5169 -5.0074
L-56.5883 -5.0788
" />
<path d="M-56.5883 -5.0788
L-56.5169 -5.1502
" />
<path d="M-56.5169 -5.1502
L-56.5169 -5.0074
" />
</g></g>
<g style="fill:none; 
stroke:#C872AB; stroke-width:0.1500; stroke-opacity:1; 
stroke-linecap:round; stroke-linejoin:round;">
<text x="-146.0000" y="-4.1500"
textLength="11.6500" font-size="2.0000" lengthAdjust="spacingAndGlyphs"
text-anchor="start" opacity="0" stroke-opacity="0">Size: User</text>
<g class="stroked-text"><desc>Size: User</desc>
<path d="M-145.6156 -4.2853
L-145.4013 -4.2139
" />
<path d="M-145.4013 -4.2139
L-145.0442 -4.2139
" />
<path d="M-145.0442 -4.2139
L-144.9013 -4.2853
" />
<path d="M-144.9013 -4.2853
L-144.8299 -4.3567
" />
<path d="M-144.8299 -4.3567
L-144.7585 -4.4996
" />
<path d="M-144.7585 -4.4996
L-144.7585 -4.6424
" />
<path d="M-144.7585 -4.6424
L-144.8299 -4.7853
" />
<path d="M-144.8299 -4.7853
L-144.9013 -4.8567
" />
<path d="M-144.9013 -4.8567
L-145.0442 -4.9282
" />
<path d="M-145.0442 -4.9282
L-145.3299 -4.9996
" />
<path d="M-145.3299 -4.9996
L-145.4727 -5.0710
" />
<path d="M-145.4727 -5.0710
L-145.5442 -5.1424
" />
<path d="M-145.5442 -5.1424
L-145.6156 -5.2853
" />
<path d="M-145.6156 -5.2853
L-145.6156 -5.4282
" />
<path d="M-145.6156 -5.4282
L-145.5442 -5.5710
" />
<path d="M-145.5442 -5.5710
L-145.4727 -5.6424
" />
<path d="M-145.4727 -5.6424
L-145.3299 -5.7139
" />
<path d="M-145.3299 -5.7139
L-144.9727 -5.7139
" />
<path d="M-144.9727 -5.7139
L-144.7585 -5.6424
" />
<path d="M-144.1156 -4.2139
L-144.1156 -5.2139
" />
<path d="M-144.1156 -5.7139
L-144.1870 -5.6424
" />
<path d="M-144.1870 -5.6424
L-144.1156 -5.5710
" />
<path d="M-144.1156 -5.5710
L-144.0442 -5.6424
" />
<path d="M-144.0442 -5.6424
L-144.1156 -5.7139
" />
<path d="M-144.1156 -5.7139
L-144.1156 -5.5710
" />
<path d="M-143.5442 -5.2139
L-142.7585 -5.2139
" />
<path d="M-142.7585 -5.2139
L-143.5442 -4.2139
" />
<path d="M-143.5442 -4.2139
L-142.7585 -4.2139
" />
<path d="M-141.6156 -4.2853
L-141.7585 -4.2139
" />
<path d="M-141.7585 -4.2139
L-142.0442 -4.2139
" />
<path d="M-142.0442 -4.2139
L-142.1870 -4.2853
" />
<path d="M-142.1870 -4.2853
L-142.2585 -4.4282
" />
<path d="M-142.2585 -4.4282
L-142.2585 -4.9996
" />
<path d="M-142.2585 -4.9996
L-142.1870 -5.1424
" />
<path d="M-142.1870 -5.1424
L-142.0442 -5.2139
" />
<path d="M-142.0442 -5.2139
L-141.7585 -5.2139
" />
<path d="M-141.7585 -5.2139
L-141.6156 -5.1424
" />
<path d="M-141.6156 -5.1424
L-141.5442 -4.9996
" />
<path d="M-141.5442 -4.9996
L-141.5442 -4.8567
" />
<path d="M-141.5442 -4.8567
L-142.2585 -4.7139
" />
<path d="M-140.9013 -4.3567
L-140.8299 -4.2853
" />
<path d="M-140.8299 -4.2853
L-140.9013 -4.2139
" />
<path d="M-140.9013 -4.2139
L-140.9727 -4.2853
" />
<path d="M-140.9727 -4.2853
L-140.9013 -4.3567
" />
<path d="M-140.9013 -4.3567
L-140.9013 -4.2139
" />
<path d="M-140.9013 -5.1424
L-140.8299 -5.0710
" />
<path d="M-140.8299 -5.0710
L-140.9013 -4.9996
" />
<path d="M-140.9013 -4.9996
L-140.9727 -5.0710
" />
<path d="M-140.9727 -5.0710
L-140.9013 -5.1424
" />
<path d="M-140.9013 -5.1424
L-140.9013 -4.9996
" />
<path d="M-139.0442 -5.7139
L-139.0442 -4.4996
" />
<path d="M-139.0442 -4.4996
L-138.9727 -4.3567
" />
<path d="M-138.9727 -4.3567
L-138.9013 -4.2853
" />
<path d="M-138.9013 -4.2853
L-138.7585 -4.2139
" />
<path d="M-138.7585 -4.2139
L-138.4727 -4.2139
" />
<path d="M-138.4727 -4.2139
L-138.3299 -4.2853
" />
<path d="M-138.3299 -4.2853
L-138.2585 -4.3567
" />
<path d="M-138.2585 -4.3567
L-138.1870 -4.4996
" />
<path d="M-138.1870 -4.4996
L-138.1870 -5.7139
" />
<path d="M-137.5442 -4.2853
L-137.4013 -4.2139
" />
<path d="M-137.4013 -4.2139
L-137.1156 -4.2139
" />
<path d="M-137.1156 -4.2139
L-136.9727 -4.2853
" />
<path d="M-136.9727 -4.2853
L-136.9013 -4.4282
" />
<path d="M-136.9013 -4.4282
L-136.9013 -4.4996
" />
<path d="M-136.9013 -4.4996
L-136.9727 -4.6424
" />
<path d="M-136.9727 -4.6424
L-137.1156 -4.7139
" />
<path d="M-137.1156 -4.7139
L-137.3299 -4.7139
" />
<path d="M-137.3299 -4.7139
L-137.4727 -4.7853
" />
<path d="M-137.4727 -4.7853
L-137.5442 -4.9282
" />
<path d="M-137.5442 -4.9282
L-137.5442 -4.9996
" />
<path d="M-137.5442 -4.9996
L-137.4727 -5.1424
" />
<path d="M-137.4727 -5.1424
L-137.3299 -5.2139
" />
<path d="M-137.3299 -5.2139
L-137.1156 -5.2139
" />
<path d="M-137.1156 -5.2139
L-136.9727 -5.1424
" />
<path d="M-135.6870 -4.2853
L-135.8299 -4.2139
" />
<path d="M-135.8299 -4.2139
L-136.1156 -4.2139
" />
<path d="M-136.1156 -4.2139
L-136.2585 -4.2853
" />
<path d="M-136.2585 -4.2853
L-136.3299 -4.4282
" />
<path d="M-136.3299 -4.4282
L-136.3299 -4.9996
" />
<path d="M-136.3299 -4.9996
L-136.2585 -5.1424
" />
<path d="M-136.2585 -5.1424
L-136.1156 -5.2139
" />
<path d="M-136.1156 -5.2139
L-135.8299 -5.2139
" />
<path d="M-135.8299 -5.2139
L-135.6870 -5.1424
" />
<path d="M-135.6870 -5.1424
L-135.6156 -4.9996
" />
<path d="M-135.6156 -4.9996
L-135.6156 -4.8567
" />
<path d="M-135.6156 -4.8567
L-136.3299 -4.7139
" />
<path d="M-134.9727 -4.2139
L-134.9727 -5.2139
" />
<path d="M-134.9727 -4.9282
L-134.9013 -5.0710
" />
<path d="M-134.9013 -5.0710
L-134.8299 -5.1424
" />
<path d="M-134.8299 -5.1424
L-134.6870 -5.2139
" />
<path d="M-134.6870 -5.2139
L-134.5442 -5.2139
" />
</g><text x="-61.0000" y="-1.3500"
textLength="8.5071" font-size="2.0000" lengthAdjust="spacingAndGlyphs"
text-anchor="start" opacity="0" stroke-opacity="0">Id: 1/1</text>
<g class="stroked-text"><desc>Id: 1/1</desc>
<path d="M-60.5442 -1.4139
L-60.5442 -2.9139
" />
<path d="M-59.1870 -1.4139
L-59.1870 -2.9139
" />
<path d="M-59.1870 -1.4853
L-59.3299 -1.4139
" />
<path d="M-59.3299 -1.4139
L-59.6156 -1.4139
" />
<path d="M-59.6156 -1.4139
L-59.7585 -1.4853
" />
<path d="M-59.7585 -1.4853
L-59.8299 -1.5567
" />
<path d="M-59.8299 -1.5567
L-59.9013 -1.6996
" />
<path d="M-59.9013 -1.6996
L-59.9013 -2.1282
" />
<path d="M-59.9013 -2.1282
L-59.8299 -2.2710
" />
<path d="M-59.8299 -2.2710
L-59.7585 -2.3424
" />
<path d="M-59.7585 -2.3424
L-59.6156 -2.4139
" />
<path d="M-59.6156 -2.4139
L-59.3299 -2.4139
" />
<path d="M-59.3299 -2.4139
L-59.1870 -2.3424
" />
<path d="M-58.4727 -1.5567
L-58.4013 -1.4853
" />
<path d="M-58.4013 -1.4853
L-58.4727 -1.4139
" />
<path d="M-58.4727 -1.4139
L-58.5442 -1.4853
" />
<path d="M-58.5442 -1.4853
L-58.4727 -1.5567
" />
<path d="M-58.4727 -1.5567
L-58.4727 -1.4139
" />
<path d="M-58.4727 -2.3424
L-58.4013 -2.2710
" />
<path d="M-58.4013 -2.2710
L-58.4727 -2.1996
" />
<path d="M-58.4727 -2.1996
L-58.5442 -2.2710
" />
<path d="M-58.5442 -2.2710
L-58.4727 -2.3424
" />
<path d="M-58.4727 -2.3424
L-58.4727 -2.1996
" />
<path d="M-55.8299 -1.4139
L-56.6870 -1.4139
" />
<path d="M-56.2585 -1.4139
L-56.2585 -2.9139
" />
<path d="M-56.2585 -2.9139
L-56.4013 -2.6996
" />
<path d="M-56.4013 -2.6996
L-56.5442 -2.5567
" />
<path d="M-56.5442 -2.5567
L-56.6870 -2.4853
" />
<path d="M-54.1156 -2.9853
L-55.4013 -1.0567
" />
<path d="M-52.8299 -1.4139
L-53.6870 -1.4139
" />
<path d="M-53.2585 -1.4139
L-53.2585 -2.9139
" />
<path d="M-53.2585 -2.9139
L-53.4013 -2.6996
" />
<path d="M-53.4013 -2.6996
L-53.5442 -2.5567
" />
<path d="M-53.5442 -2.5567
L-53.6870 -2.4853
" />
</g><path d="M-147.0000 -10.5000
L-39.0000 -10.5000
" />
</g>
<g style="fill:none; 
stroke:#C872AB; stroke-width:0.4000; stroke-opacity:1; 
stroke-linecap:round; stroke-linejoin:round;">
<text x="-146.0000" y="-7.7000"
textLength="9.6571" font-size="2.6667" lengthAdjust="spacingAndGlyphs"
text-anchor="start" opacity="0" stroke-opacity="0">Title: </text>
<g class="stroked-text"><desc>Title: </desc>
<path d="M-145.3083 -9.7956
L-144.1654 -9.7956
" />
<path d="M-144.9868 -7.7956
L-144.7368 -9.7956
" />
<path d="M-143.7487 -7.7956
L-143.5821 -9.1289
" />
<path d="M-143.4987 -9.7956
L-143.6059 -9.7003
" />
<path d="M-143.6059 -9.7003
L-143.5226 -9.6051
" />
<path d="M-143.5226 -9.6051
L-143.4154 -9.7003
" />
<path d="M-143.4154 -9.7003
L-143.4987 -9.7956
" />
<path d="M-143.4987 -9.7956
L-143.5226 -9.6051
" />
<path d="M-142.9154 -9.1289
L-142.1535 -9.1289
" />
<path d="M-142.5464 -9.7956
L-142.7607 -8.0813
" />
<path d="M-142.7607 -8.0813
L-142.6892 -7.8908
" />
<path d="M-142.6892 -7.8908
L-142.5107 -7.7956
" />
<path d="M-142.5107 -7.7956
L-142.3202 -7.7956
" />
<path d="M-141.3678 -7.7956
L-141.5464 -7.8908
" />
<path d="M-141.5464 -7.8908
L-141.6178 -8.0813
" />
<path d="M-141.6178 -8.0813
L-141.4035 -9.7956
" />
<path d="M-139.8321 -7.8908
L-140.0345 -7.7956
" />
<path d="M-140.0345 -7.7956
L-140.4154 -7.7956
" />
<path d="M-140.4154 -7.7956
L-140.5940 -7.8908
" />
<path d="M-140.5940 -7.8908
L-140.6654 -8.0813
" />
<path d="M-140.6654 -8.0813
L-140.5702 -8.8432
" />
<path d="M-140.5702 -8.8432
L-140.4511 -9.0337
" />
<path d="M-140.4511 -9.0337
L-140.2487 -9.1289
" />
<path d="M-140.2487 -9.1289
L-139.8678 -9.1289
" />
<path d="M-139.8678 -9.1289
L-139.6892 -9.0337
" />
<path d="M-139.6892 -9.0337
L-139.6178 -8.8432
" />
<path d="M-139.6178 -8.8432
L-139.6416 -8.6527
" />
<path d="M-139.6416 -8.6527
L-140.6178 -8.4622
" />
<path d="M-138.8678 -7.9860
L-138.7845 -7.8908
" />
<path d="M-138.7845 -7.8908
L-138.8916 -7.7956
" />
<path d="M-138.8916 -7.7956
L-138.9749 -7.8908
" />
<path d="M-138.9749 -7.8908
L-138.8678 -7.9860
" />
<path d="M-138.8678 -7.9860
L-138.8916 -7.7956
" />
<path d="M-138.7368 -9.0337
L-138.6535 -8.9384
" />
<path d="M-138.6535 -8.9384
L-138.7607 -8.8432
" />
<path d="M-138.7607 -8.8432
L-138.8440 -8.9384
" />
<path d="M-138.8440 -8.9384
L-138.7368 -9.0337
" />
<path d="M-138.7368 -9.0337
L-138.7607 -8.8432
" />
</g></g>
<g style="fill:none; 
stroke:#C872AB; stroke-width:0.1500; stroke-opacity:1; 
stroke-linecap:round; stroke-linejoin:round;">
<text x="-146.0000" y="-11.5500"
textLength="26.4357" font-size="2.0000" lengthAdjust="spacingAndGlyphs"
text-anchor="start" opacity="0" stroke-opacity="0">File: sensors.kicad_pcb</text>
<g class="stroked-text"><desc>File: sensors.kicad_pcb</desc>
<path d="M-145.0442 -12.3996
L-145.5442 -12.3996
" />
<path d="M-145.5442 -11.6139
L-145.5442 -13.1139
" />
<path d="M-145.5442 -13.1139
L-144.8299 -13.1139
" />
<path d="M-144.2585 -11.6139
L-144.2585 -12.6139
" />
<path d="M-144.2585 -13.1139
L-144.3299 -13.0424
" />
<path d="M-144.3299 -13.0424
L-144.2585 -12.9710
" />
<path d="M-144.2585 -12.9710
L-144.1870 -13.0424
" />
<path d="M-144.1870 -13.0424
L-144.2585 -13.1139
" />
<path d="M-144.2585 -13.1139
L-144.2585 -12.9710
" />
<path d="M-143.3299 -11.6139
L-143.4727 -11.6853
" />
<path d="M-143.4727 -11.6853
L-143.5442 -11.8282
" />
<path d="M-143.5442 -11.8282
L-143.5442 -13.1139
" />
<path d="M-142.1870 -11.6853
L-142.3299 -11.6139
" />
<path d="M-142.3299 -11.6139
L-142.6156 -11.6139
" />
<path d="M-142.6156 -11.6139
L-142.7585 -11.6853
" />
<path d="M-142.7585 -11.6853
L-142.8299 -11.8282
" />
<path d="M-142.8299 -11.8282
L-142.8299 -12.3996
" />
<path d="M-142.8299 -12.3996
L-142.7585 -12.5424
" />
<path d="M-142.7585 -12.5424
L-142.6156 -12.6139
" />
<path d="M-142.6156 -12.6139
L-142.3299 -12.6139
" />
<path d="M-142.3299 -12.6139
L-142.1870 -12.5424
" />
<path d="M-142.1870 -12.5424
L-142.1156 -12.3996
" />
<path d="M-142.1156 -12.3996
L-142.1156 -12.2567
" />
<path d="M-142.1156 -12.2567
L-142.8299 -12.1139
" />
<path d="M-141.4727 -11.7567
L-141.4013 -11.6853
" />
<path d="M-141.4013 -11.6853
L-141.4727 -11.6139
" />
<path d="M-141.4727 -11.6139
L-141.5442 -11.6853
" />
<path d="M-141.5442 -11.6853
L-141.4727 -11.7567
" />
<path d="M-141.4727 -11.7567
L-141.4727 -11.6139
" />
<path d="M-141.4727 -12.5424
L-141.4013 -12.4710
" />
<path d="M-141.4013 -12.4710
L-141.4727 -12.3996
" />
<path d="M-141.4727 -12.3996
L-141.5442 -12.4710
" />
<path d="M-141.5442 -12.4710
L-141.4727 -12.5424
" />
<path d="M-141.4727 -12.5424
L-141.4727 -12.3996
" />
<path d="M-139.6870 -11.6853
L-139.5442 -11.6139
" />
<path d="M-139.5442 -11.6139
L-139.2585 -11.6139
" />
<path d="M-139.2585 -11.6139
L-139.1156 -11.6853
" />
<path d="M-139.1156 -11.6853
L-139.0442 -11.8282
" />
<path d="M-139.0442 -11.8282
L-139.0442 -11.8996
" />
<path d="M-139.0442 -11.8996
L-139.1156 -12.0424
" />
<path d="M-139.1156 -12.0424
L-139.2585 -12.1139
" />
<path d="M-139.2585 -12.1139
L-139.4727 -12.1139
" />
<path d="M-139.4727 -12.1139
L-139.6156 -12.1853
" />
<path d="M-139.6156 -12.1853
L-139.6870 -12.3282
" />
<path d="M-139.6870 -12.3282
L-139.6870 -12.3996
" />
<path d="M-139.6870 -12.3996
L-139.6156 -12.5424
" />
<path d="M-139.6156 -12.5424
L-139.4727 -12.6139
" />
<path d="M-139.4727 -12.6139
L-139.2585 -12.6139
" />
<path d="M-139.2585 -12.6139
L-139.1156 -12.5424
" />
<path d="M-137.8299 -11.6853
L-137.9727 -11.6139
" />
<path d="M-137.9727 -11.6139
L-138.2585 -11.6139
" />
<path d="M-138.2585 -11.6139
L-138.4013 -11.6853
" />
<path d="M-138.4013 -11.6853
L-138.4727 -11.8282
" />
<path d="M-138.4727 -11.8282
L-138.4727 -12.3996
" />
<path d="M-138.4727 -12.3996
L-138.4013 -12.5424
" />
<path d="M-138.4013 -12.5424
L-138.2585 -12.6139
" />
<path d="M-138.2585 -12.6139
L-137.9727 -12.6139
" />
<path d="M-137.9727 -12.6139
L-137.8299 -12.5424
" />
<path d="M-137.8299 -12.5424
L-137.7585 -12.3996
" />
<path d="M-137.7585 -12.3996
L-137.7585 -12.2567
" />
<path d="M-137.7585 -12.2567
L-138.4727 -12.1139
" />
<path d="M-137.1156 -12.6139
L-137.1156 -11.6139
" />
<path d="M-137.1156 -12.4710
L-137.0442 -12.5424
" />
<path d="M-137.0442 -12.5424
L-136.9013 -12.6139
" />
<path d="M-136.9013 -12.6139
L-136.6870 -12.6139
" />
<path d="M-136.6870 -12.6139
L-136.5442 -12.5424
" />
<path d="M-136.5442 -12.5424
L-136.4727 -12.3996
" />
<path d="M-136.4727 -12.3996
L-136.4727 -11.6139
" />
<path d="M-135.8299 -11.6853
L-135.6870 -11.6139
" />
<path d="M-135.6870 -11.6139
L-135.4013 -11.6139
" />
<path d="M-135.4013 -11.6139
L-135.2585 -11.6853
" />
<path d="M-135.2585 -11.6853
L-135.1870 -11.8282
" />
<path d="M-135.1870 -11.8282
L-135.1870 -11.8996
" />
<path d="M-135.1870 -11.8996
L-135.2585 -12.0424
" />
<path d="M-135.2585 -12.0424
L-135.4013 -12.1139
" />
<path d="M-135.4013 -12.1139
L-135.6156 -12.1139
" />
<path d="M-135.6156 -12.1139
L-135.7585 -12.1853
" />
<path d="M-135.7585 -12.1853
L-135.8299 -12.3282
" />
<path d="M-135.8299 -12.3282
L-135.8299 -12.3996
" />
<path d="M-135.8299 -12.3996
L-135.7585 -12.5424
" />
<path d="M-135.7585 -12.5424
L-135.6156 -12.6139
" />
<path d="M-135.6156 -12.6139
L-135.4013 -12.6139
" />
<path d="M-135.4013 -12.6139
L-135.2585 -12.5424
" />
<path d="M-134.3299 -11.6139
L-134.4727 -11.6853
" />
<path d="M-134.4727 -11.6853
L-134.5442 -11.7567
" />
<path d="M-134.5442 -11.7567
L-134.6156 -11.8996
" />
<path d="M-134.6156 -11.8996
L-134.6156 -12.3282
" />
<path d="M-134.6156 -12.3282
L-134.5442 -12.4710
" />
<path d="M-134.5442 -12.4710
L-134.4727 -12.5424
" />
<path d="M-134.4727 -12.5424
L-134.3299 -12.6139
" />
<path d="M-134.3299 -12.6139
L-134.1156 -12.6139
" />
<path d="M-134.1156 -12.6139
L-133.9727 -12.5424
" />
<path d="M-133.9727 -12.5424
L-133.9013 -12.4710
" />
<path d="M-133.9013 -12.4710
L-133.8299 -12.3282
" />
<path d="M-133.8299 -12.3282
L-133.8299 -11.8996
" />
<path d="M-133.8299 -11.8996
L-133.9013 -11.7567
" />
<path d="M-133.9013 -11.7567
L-133.9727 -11.6853
" />
<path d="M-133.9727 -11.6853
L-134.1156 -11.6139
" />
<path d="M-134.1156 -11.6139
L-134.3299 -11.6139
" />
<path d="M-133.1870 -11.6139
L-133.1870 -12.6139
" />
<path d="M-133.1870 -12.3282
L-133.1156 -12.4710
" />
<path d="M-133.1156 -12.4710
L-133.0442 -12.5424
" />
<path d="M-133.0442 -12.5424
L-132.9013 -12.6139
" />
<path d="M-132.9013 -12.6139
L-132.7585 -12.6139
" />
<path d="M-132.3299 -11.6853
L-132.1870 -11.6139
" />
<path d="M-132.1870 -11.6139
L-131.9013 -11.6139
" />
<path d="M-131.9013 -11.6139
L-131.7585 -11.6853
" />
<path d="M-131.7585 -11.6853
L-131.6870 -11.8282
" />
<path d="M-131.6870 -11.8282
L-131.6870 -11.8996
" />
<path d="M-131.6870 -11.8996
L-131.7585 -12.0424
" />
<path d="M-131.7585 -12.0424
L-131.9013 -12.1139
" />
<path d="M-131.9013 -12.1139
L-132.1156 -12.1139
" />
<path d="M-132.1156 -12.1139
L-132.2585 -12.1853
" />
<path d="M-132.2585 -12.1853
L-132.3299 -12.3282
" />
<path d="M-132.3299 -12.3282
L-132.3299 -12.3996
" />
<path d="M-132.3299 -12.3996
L-132.2585 -12.5424
" />
<path d="M-132.2585 -12.5424
L-132.1156 -12.6139
" />
<path d="M-132.1156 -12.6139
L-131.9013 -12.6139
" />
<path d="M-131.9013 -12.6139
L-131.7585 -12.5424
" />
<path d="M-131.0442 -11.7567
L-130.9727 -11.6853
" />
<path d="M-130.9727 -11.6853
L-131.0442 -11.6139
" />
<path d="M-131.0442 -11.6139
L-131.1156 -11.6853
" />
<path d="M-131.1156 -11.6853
L-131.0442 -11.7567
" />
<path d="M-131.0442 -11.7567
L-131.0442 -11.6139
" />
<path d="M-130.3299 -11.6139
L-130.3299 -13.1139
" />
<path d="M-130.1870 -12.1853
L-129.7585 -11.6139
" />
<path d="M-129.7585 -12.6139
L-130.3299 -12.0424
" />
<path d="M-129.1156 -11.6139
L-129.1156 -12.6139
" />
<path d="M-129.1156 -13.1139
L-129.1870 -13.0424
" />
<path d="M-129.1870 -13.0424
L-129.1156 -12.9710
" />
<path d="M-129.1156 -12.9710
L-129.0442 -13.0424
" />
<path d="M-129.0442 -13.0424
L-129.1156 -13.1139
" />
<path d="M-129.1156 -13.1139
L-129.1156 -12.9710
" />
<path d="M-127.7585 -11.6853
L-127.9013 -11.6139
" />
<path d="M-127.9013 -11.6139
L-128.1870 -11.6139
" />
<path d="M-128.1870 -11.6139
L-128.3299 -11.6853
" />
<path d="M-128.3299 -11.6853
L-128.4013 -11.7567
" />
<path d="M-128.4013 -11.7567
L-128.4727 -11.8996
" />
<path d="M-128.4727 -11.8996
L-128.4727 -12.3282
" />
<path d="M-128.4727 -12.3282
L-128.4013 -12.4710
" />
<path d="M-128.4013 -12.4710
L-128.3299 -12.5424
" />
<path d="M-128.3299 -12.5424
L-128.1870 -12.6139
" />
<path d="M-128.1870 -12.6139
L-127.9013 -12.6139
" />
<path d="M-127.9013 -12.6139
L-127.7585 -12.5424
" />
<path d="M-126.4727 -11.6139
L-126.4727 -12.3996
" />
<path d="M-126.4727 -12.3996
L-126.5442 -12.5424
" />
<path d="M-126.5442 -12.5424
L-126.6870 -12.6139
" />
<path d="M-126.6870 -12.6139
L-126.9727 -12.6139
" />
<path d="M-126.9727 -12.6139
L-127.1156 -12.5424
" />
<path d="M-126.4727 -11.6853
L-126.6156 -11.6139
" />
<path d="M-126.6156 -11.6139
L-126.9727 -11.6139
" />
<path d="M-126.9727 -11.6139
L-127.1156 -11.6853
" />
<path d="M-127.1156 -11.6853
L-127.1870 -11.8282
" />
<path d="M-127.1870 -11.8282
L-127.1870 -11.9710
" />
<path d="M-127.1870 -11.9710
L-127.1156 -12.1139
" />
<path d="M-127.1156 -12.1139
L-126.9727 -12.1853
" />
<path d="M-126.9727 -12.1853
L-126.6156 -12.1853
" />
<path d="M-126.6156 -12.1853
L-126.4727 -12.2567
" />
<path d="M-125.1156 -11.6139
L-125.1156 -13.1139
" />
<path d="M-125.1156 -11.6853
L-125.2585 -11.6139
" />
<path d="M-125.2585 -11.6139
L-125.5442 -11.6139
" />
<path d="M-125.5442 -11.6139
L-125.6870 -11.6853
" />
<path d="M-125.6870 -11.6853
L-125.7585 -11.7567
" />
<path d="M-125.7585 -11.7567
L-125.8299 -11.8996
" />
<path d="M-125.8299 -11.8996
L-125.8299 -12.3282
" />
<path d="M-125.8299 -12.3282
L-125.7585 -12.4710
" />
<path d="M-125.7585 -12.4710
L-125.6870 -12.5424
" />
<path d="M-125.6870 -12.5424
L-125.5442 -12.6139
" />
<path d="M-125.5442 -12.6139
L-125.2585 -12.6139
" />
<path d="M-125.2585 -12.6139
L-125.1156 -12.5424
" />
<path d="M-124.7585 -11.4710
L-123.6156 -11.4710
" />
<path d="M-123.2585 -12.6139
L-123.2585 -11.1139
" />
<path d="M-123.2585 -12.5424
L-123.1156 -12.6139
" />
<path d="M-123.1156 -12.6139
L-122.8299 -12.6139
" />
<path d="M-122.8299 -12.6139
L-122.6870 -12.5424
" />
<path d="M-122.6870 -12.5424
L-122.6156 -12.4710
" />
<path d="M-122.6156 -12.4710
L-122.5442 -12.3282
" />
<path d="M-122.5442 -12.3282
L-122.5442 -11.8996
" />
<path d="M-122.5442 -11.8996
L-122.6156 -11.7567
" />
<path d="M-122.6156 -11.7567
L-122.6870 -11.6853
" />
<path d="M-122.6870 -11.6853
L-122.8299 -11.6139
" />
<path d="M-122.8299 -11.6139
L-123.1156 -11.6139
" />
<path d="M-123.1156 -11.6139
L-123.2585 -11.6853
" />
<path d="M-121.2585 -11.6853
L-121.4013 -11.6139
" />
<path d="M-121.4013 -11.6139
L-121.6870 -11.6139
" />
<path d="M-121.6870 -11.6139
L-121.8299 -11.6853
" />
<path d="M-121.8299 -11.6853
L-121.9013 -11.7567
" />
<path d="M-121.9013 -11.7567
L-121.9727 -11.8996
" />
<path d="M-121.9727 -11.8996
L-121.9727 -12.3282
" />
<path d="M-121.9727 -12.3282
L-121.9013 -12.4710
" />
<path d="M-121.9013 -12.4710
L-121.8299 -12.5424
" />
<path d="M-121.8299 -12.5424
L-121.6870 -12.6139
" />
<path d="M-121.6870 -12.6139
L-121.4013 -12.6139
" />
<path d="M-121.4013 -12.6139
L-121.2585 -12.5424
" />
<path d="M-120.6156 -11.6139
L-120.6156 -13.1139
" />
<path d="M-120.6156 -12.5424
L-120.4727 -12.6139
" />
<path d="M-120.4727 -12.6139
L-120.1870 -12.6139
" />
<path d="M-120.1870 -12.6139
L-120.0442 -12.5424
" />
<path d="M-120.0442 -12.5424
L-119.9727 -12.4710
" />
<path d="M-119.9727 -12.4710
L-119.9013 -12.3282
" />
<path d="M-119.9013 -12.3282
L-119.9013 -11.8996
" />
<path d="M-119.9013 -11.8996
L-119.9727 -11.7567
" />
<path d="M-119.9727 -11.7567
L-120.0442 -11.6853
" />
<path d="M-120.0442 -11.6853
L-120.1870 -11.6139
" />
<path d="M-120.1870 -11.6139
L-120.4727 -11.6139
" />
<path d="M-120.4727 -11.6139
L-120.6156 -11.6853
" />
</g><path d="M-147.0000 -16.5000
L-39.0000 -16.5000
" />
<text x="-146.0000" y="-14.2500"
textLength="8.2214" font-size="2.0000" lengthAdjust="spacingAndGlyphs"
text-anchor="start" opacity="0" stroke-opacity="0">Sheet: </text>
<g class="stroked-text"><desc>Sheet: </desc>
<path d="M-145.6156 -14.3853
L-145.4013 -14.3139
" />
<path d="M-145.4013 -14.3139
L-145.0442 -14.3139
" />
<path d="M-145.0442 -14.3139
L-144.9013 -14.3853
" />
<path d="M-144.9013 -14.3853
L-144.8299 -14.4567
" />
<path d="M-144.8299 -14.4567
L-144.7585 -14.5996
" />
<path d="M-144.7585 -14.5996
L-144.7585 -14.7424
" />
<path d="M-144.7585 -14.7424
L-144.8299 -14.8853
" />
<path d="M-144.8299 -14.8853
L-144.9013 -14.9567
" />
<path d="M-144.9013 -14.9567
L-145.0442 -15.0282
" />
<path d="M-145.0442 -15.0282
L-145.3299 -15.0996
" />
<path d="M-145.3299 -15.0996
L-145.4727 -15.1710
" />
<path d="M-145.4727 -15.1710
L-145.5442 -15.2424
" />
<path d="M-145.5442 -15.2424
L-145.6156 -15.3853
" />
<path d="M-145.6156 -15.3853
L-145.6156 -15.5282
" />
<path d="M-145.6156 -15.5282
L-145.5442 -15.6710
" />
<path d="M-145.5442 -15.6710
L-145.4727 -15.7424
" />
<path d="M-145.4727 -15.7424
L-145.3299 -15.8139
" />
<path d="M-145.3299 -15.8139
L-144.9727 -15.8139
" />
<path d="M-144.9727 -15.8139
L-144.7585 -15.7424
" />
<path d="M-144.1156 -14.3139
L-144.1156 -15.8139
" />
<path d="M-143.4727 -14.3139
L-143.4727 -15.0996
" />
<path d="M-143.4727 -15.0996
L-143.5442 -15.2424
" />
<path d="M-143.5442 -15.2424
L-143.6870 -15.3139
" />
<path d="M-143.6870 -15.3139
L-143.9013 -15.3139
" />
<path d="M-143.9013 -15.3139
L-144.0442 -15.2424
" />
<path d="M-144.0442 -15.2424
L-144.1156 -15.1710
" />
<path d="M-142.1870 -14.3853
L-142.3299 -14.3139
" />
<path d="M-142.3299 -14.3139
L-142.6156 -14.3139
" />
<path d="M-142.6156 -14.3139
L-142.7585 -14.3853
" />
<path d="M-142.7585 -14.3853
L-142.8299 -14.5282
" />
<path d="M-142.8299 -14.5282
L-142.8299 -15.0996
" />
<path d="M-142.8299 -15.0996
L-142.7585 -15.2424
" />
<path d="M-142.7585 -15.2424
L-142.6156 -15.3139
" />
<path d="M-142.6156 -15.3139
L-142.3299 -15.3139
" />
<path d="M-142.3299 -15.3139
L-142.1870 -15.2424
" />
<path d="M-142.1870 -15.2424
L-142.1156 -15.0996
" />
<path d="M-142.1156 -15.0996
L-142.1156 -14.9567
" />
<path d="M-142.1156 -14.9567
L-142.8299 -14.8139
" />
<path d="M-140.9013 -14.3853
L-141.0442 -14.3139
" />
<path d="M-141.0442 -14.3139
L-141.3299 -14.3139
" />
<path d="M-141.3299 -14.3139
L-141.4727 -14.3853
" />
<path d="M-141.4727 -14.3853
L-141.5442 -14.5282
" />
<path d="M-141.5442 -14.5282
L-141.5442 -15.0996
" />
<path d="M-141.5442 -15.0996
L-141.4727 -15.2424
" />
<path d="M-141.4727 -15.2424
L-141.3299 -15.3139
" />
<path d="M-141.3299 -15.3139
L-141.0442 -15.3139
" />
<path d="M-141.0442 -15.3139
L-140.9013 -15.2424
" />
<path d="M-140.9013 -15.2424
L-140.8299 -15.0996
" />
<path d="M-140.8299 -15.0996
L-140.8299 -14.9567
" />
<path d="M-140.8299 -14.9567
L-141.5442 -14.8139
" />
<path d="M-140.4013 -15.3139
L-139.8299 -15.3139
" />
<path d="M-140.1870 -15.8139
L-140.1870 -14.5282
" />
<path d="M-140.1870 -14.5282
L-140.1156 -14.3853
" />
<path d="M-140.1156 -14.3853
L-139.9727 -14.3139
" />
<path d="M-139.9727 -14.3139
L-139.8299 -14.3139
" />
<path d="M-139.3299 -14.4567
L-139.2585 -14.3853
" />
<path d="M-139.2585 -14.3853
L-139.3299 -14.3139
" />
<path d="M-139.3299 -14.3139
L-139.4013 -14.3853
" />
<path d="M-139.4013 -14.3853
L-139.3299 -14.4567
" />
<path d="M-139.3299 -14.4567
L-139.3299 -14.3139
" />
<path d="M-139.3299 -15.2424
L-139.2585 -15.1710
" />
<path d="M-139.2585 -15.1710
L-139.3299 -15.0996
" />
<path d="M-139.3299 -15.0996
L-139.4013 -15.1710
" />
<path d="M-139.4013 -15.1710
L-139.3299 -15.2424
" />
<path d="M-139.3299 -15.2424
L-139.3299 -15.0996
" />
</g></g>
<g style="fill:none; 
stroke:#C872AB; stroke-width:0.3000; stroke-opacity:1; 
stroke-linecap:round; stroke-linejoin:round;">
<text x="-146.0000" y="-17.2500"
textLength="0.9000" font-size="2.0000" lengthAdjust="spacingAndGlyphs"
text-anchor="start" opacity="0" stroke-opacity="0"></text>
<g class="stroked-text"><desc></desc>
</g></g>
<g style="fill:none; 
stroke:#C872AB; stroke-width:0.1500; stroke-opacity:1; 
stroke-linecap:round; stroke-linejoin:round;">
<text x="-146.0000" y="-20.2500"
textLength="0.4500" font-size="2.0000" lengthAdjust="spacingAndGlyphs"
text-anchor="start" opacity="0" stroke-opacity="0"></text>
<g class="stroked-text"><desc></desc>
</g><text x="-146.0000" y="-23.2500"
textLength="0.4500" font-size="2.0000" lengthAdjust="spacingAndGlyphs"
text-anchor="start" opacity="0" stroke-opacity="0"></text>
<g class="stroked-text"><desc></desc>
</g><text x="-146.0000" y="-26.2500"
textLength="0.4500" font-size="2.0000" lengthAdjust="spacingAndGlyphs"
text-anchor="start" opacity="0" stroke-opacity="0"></text>
<g class="stroked-text"><desc></desc>
</g><text x="-146.0000" y="-29.2500"
textLength="0.4500" font-size="2.0000" lengthAdjust="spacingAndGlyphs"
text-anchor="start" opacity="0" stroke-opacity="0"></text>
<g class="stroked-text"><desc></desc>
</g><path d="M-127.0000 -6.5000
L-127.0000 -3.5000
" />
<path d="M-63.0000 -6.5000
L-63.0000 0.0000
" />
</g>
<g style="fill:none; 
stroke:#585D84; stroke-width:0.1250; stroke-opacity:1; 
stroke-linecap:round; stroke-linejoin:round;">
<text x="-6.2390" y="6.2900"
transform="scale(-1 1) translate(12.477932 0)"
textLength="1.1321" font-size="0.6667" lengthAdjust="spacingAndGlyphs"
text-anchor="middle" opacity="0" stroke-opacity="0">J1</text>
<g class="stroked-text"><desc>J1</desc>
<path d="M-6.0723 5.7648
L-6.0723 6.1220
" />
<path d="M-6.0723 6.1220
L-6.0485 6.1934
" />
<path d="M-6.0485 6.1934
L-6.0009 6.2410
" />
<path d="M-6.0009 6.2410
L-5.9294 6.2648
" />
<path d="M-5.9294 6.2648
L-5.8818 6.2648
" />
<path d="M-6.5723 6.2648
L-6.2866 6.2648
" />
<path d="M-6.4294 6.2648
L-6.4294 5.7648
" />
<path d="M-6.4294 5.7648
L-6.3818 5.8362
" />
<path d="M-6.3818 5.8362
L-6.3342 5.8839
" />
<path d="M-6.3342 5.8839
L-6.2866 5.9077
" />
</g></g>
<g style="fill:none; 
stroke:#585D84; stroke-width:0.1000; stroke-opacity:1; 
stroke-linecap:round; stroke-linejoin:round;">
<path d="M14.0810 0.9600
L14.0810 5.0400
" />
<path d="M14.0810 5.0400
L15.0810 6.0400
" />
<path d="M15.0810 6.0400
L64.8810 6.0400
" />
<path d="M64.8810 0.9600
L14.0810 0.9600
" />
<path d="M64.8810 6.0400
L64.8810 0.9600
" />
</g>
<g style="fill:none; 
stroke:#D0D2CD; stroke-width:0.1000; stroke-opacity:1; 
stroke-linecap:round; stroke-linejoin:round;">
<path d="M0.0000 3.0000
L0.0000 53.0000
" />
<path d="M3.0000 0.0000 A2.9599 2.9599 0.0 0 0 0.0000 3.0000" />
<path d="M0.0000 53.0000 A2.9660 2.9660 0.0 0 0 3.0000 56.0000" />
<path d="M3.0000 56.0000
L70.0000 56.0000
" />
<path d="M52.9810 37.0000 A1.0000 1.0000 0.0 0 0 50.9810 37.0000" />
<path d="M50.9810 52.0000
L50.9810 37.0000
" />
<path d="M52.9810 37.0000
L52.9810 52.0000
" />
<path d="M50.9810 52.0000 A1.0000 1.0000 0.0 0 0 52.9810 52.0000" />
<path d="M70.0000 0.0000
L3.0000 0.0000
" />
<path d="M73.0000 3.0000 A3.2030 3.2030 0.0 0 0 70.0000 0.0000" />
<path d="M70.0000 56.0000 A2.9650 2.9650 0.0 0 0 73.0000 53.0000" />
<path d="M73.0000 53.0000
L73.0000 3.0000
" />
</g> 
</svg>
