<?xml version="1.0" standalone="no"?>
 <!DOCTYPE svg PUBLIC "-//W3C//DTD SVG 1.1//EN" 
 "http://www.w3.org/Graphics/SVG/1.1/DTD/svg11.dtd"> 
<svg
  xmlns:svg="http://www.w3.org/2000/svg"
  xmlns="http://www.w3.org/2000/svg"
  xmlns:xlink="http://www.w3.org/1999/xlink"
  xmlns:inkscape="http://www.inkscape.org/namespaces/inkscape"
  version="1.1"
  width="297.0022mm" height="210.0072mm" viewBox="0.0000 0.0000 297.0022 210.0072">
<title>SVG Image created as power-V-Div.svg date 2026-07-12T14:13:45 </title>
  <desc>Image generated by Eeschema-SVG </desc>
<g style="fill:#000000; fill-opacity:1.0000;stroke:#000000; stroke-opacity:1.0000;
stroke-linecap:round; stroke-linejoin:round;"
 transform="translate(0 0) scale(1 1)">
</g>
<g style="fill:#F5F4EF; fill-opacity:1.0000; 
stroke:#F5F4EF; stroke-width:0.0001; stroke-opacity:1; 
stroke-linecap:round; stroke-linejoin:round;">
<rect x="0.000000" y="0.000000" width="297.002200" height="210.007200" rx="0.000000" />
</g>
<g style="fill:none; 
stroke:#840000; stroke-width:0.1524; stroke-opacity:1; 
stroke-linecap:round; stroke-linejoin:round;">
<path d="M177.0022 166.0072
L285.0022 166.0072
L285.0022 198.0072
L177.0022 198.0072
L177.0022 166.0072
" />
<path d="M10.0000 10.0000
L287.0022 10.0000
L287.0022 200.0072
L10.0000 200.0072
L10.0000 10.0000
" />
<path d="M12.0000 12.0000
L285.0022 12.0000
L285.0022 198.0072
L12.0000 198.0072
L12.0000 12.0000
" />
<path d="M60.0000 12.0000
L60.0000 10.0000
" />
<path d="M110.0000 12.0000
L110.0000 10.0000
" />
<path d="M160.0000 12.0000
L160.0000 10.0000
" />
<path d="M210.0000 12.0000
L210.0000 10.0000
" />
<path d="M260.0000 12.0000
L260.0000 10.0000
" />
<text x="35.0000" y="11.6500"
textLength="1.4353" font-size="1.7333" lengthAdjust="spacingAndGlyphs"
text-anchor="start" opacity="0" stroke-opacity="0">1</text>
<g class="stroked-text"><desc>1</desc>
<path d="M36.0906 11.5935
L35.3478 11.5935
" />
<path d="M35.7192 11.5935
L35.7192 10.2935
" />
<path d="M35.7192 10.2935
L35.5954 10.4792
" />
<path d="M35.5954 10.4792
L35.4716 10.6030
" />
<path d="M35.4716 10.6030
L35.3478 10.6649
" />
</g><text x="85.0000" y="11.6500"
textLength="1.4353" font-size="1.7333" lengthAdjust="spacingAndGlyphs"
text-anchor="start" opacity="0" stroke-opacity="0">2</text>
<g class="stroked-text"><desc>2</desc>
<path d="M85.3478 10.4173
L85.4097 10.3554
" />
<path d="M85.4097 10.3554
L85.5335 10.2935
" />
<path d="M85.5335 10.2935
L85.8430 10.2935
" />
<path d="M85.8430 10.2935
L85.9668 10.3554
" />
<path d="M85.9668 10.3554
L86.0287 10.4173
" />
<path d="M86.0287 10.4173
L86.0906 10.5411
" />
<path d="M86.0906 10.5411
L86.0906 10.6649
" />
<path d="M86.0906 10.6649
L86.0287 10.8506
" />
<path d="M86.0287 10.8506
L85.2859 11.5935
" />
<path d="M85.2859 11.5935
L86.0906 11.5935
" />
</g><text x="135.0000" y="11.6500"
textLength="1.4353" font-size="1.7333" lengthAdjust="spacingAndGlyphs"
text-anchor="start" opacity="0" stroke-opacity="0">3</text>
<g class="stroked-text"><desc>3</desc>
<path d="M135.2859 10.2935
L136.0906 10.2935
" />
<path d="M136.0906 10.2935
L135.6573 10.7887
" />
<path d="M135.6573 10.7887
L135.8430 10.7887
" />
<path d="M135.8430 10.7887
L135.9668 10.8506
" />
<path d="M135.9668 10.8506
L136.0287 10.9125
" />
<path d="M136.0287 10.9125
L136.0906 11.0363
" />
<path d="M136.0906 11.0363
L136.0906 11.3458
" />
<path d="M136.0906 11.3458
L136.0287 11.4696
" />
<path d="M136.0287 11.4696
L135.9668 11.5316
" />
<path d="M135.9668 11.5316
L135.8430 11.5935
" />
<path d="M135.8430 11.5935
L135.4716 11.5935
" />
<path d="M135.4716 11.5935
L135.3478 11.5316
" />
<path d="M135.3478 11.5316
L135.2859 11.4696
" />
</g><text x="185.0000" y="11.6500"
textLength="1.4353" font-size="1.7333" lengthAdjust="spacingAndGlyphs"
text-anchor="start" opacity="0" stroke-opacity="0">4</text>
<g class="stroked-text"><desc>4</desc>
<path d="M185.9668 10.7268
L185.9668 11.5935
" />
<path d="M185.6573 10.2316
L185.3478 11.1601
" />
<path d="M185.3478 11.1601
L186.1525 11.1601
" />
</g><text x="235.0000" y="11.6500"
textLength="1.4353" font-size="1.7333" lengthAdjust="spacingAndGlyphs"
text-anchor="start" opacity="0" stroke-opacity="0">5</text>
<g class="stroked-text"><desc>5</desc>
<path d="M236.0287 10.2935
L235.4097 10.2935
" />
<path d="M235.4097 10.2935
L235.3478 10.9125
" />
<path d="M235.3478 10.9125
L235.4097 10.8506
" />
<path d="M235.4097 10.8506
L235.5335 10.7887
" />
<path d="M235.5335 10.7887
L235.8430 10.7887
" />
<path d="M235.8430 10.7887
L235.9668 10.8506
" />
<path d="M235.9668 10.8506
L236.0287 10.9125
" />
<path d="M236.0287 10.9125
L236.0906 11.0363
" />
<path d="M236.0906 11.0363
L236.0906 11.3458
" />
<path d="M236.0906 11.3458
L236.0287 11.4696
" />
<path d="M236.0287 11.4696
L235.9668 11.5316
" />
<path d="M235.9668 11.5316
L235.8430 11.5935
" />
<path d="M235.8430 11.5935
L235.5335 11.5935
" />
<path d="M235.5335 11.5935
L235.4097 11.5316
" />
<path d="M235.4097 11.5316
L235.3478 11.4696
" />
</g><text x="285.0000" y="11.6500"
textLength="1.4353" font-size="1.7333" lengthAdjust="spacingAndGlyphs"
text-anchor="start" opacity="0" stroke-opacity="0">6</text>
<g class="stroked-text"><desc>6</desc>
<path d="M285.9668 10.2935
L285.7192 10.2935
" />
<path d="M285.7192 10.2935
L285.5954 10.3554
" />
<path d="M285.5954 10.3554
L285.5335 10.4173
" />
<path d="M285.5335 10.4173
L285.4097 10.6030
" />
<path d="M285.4097 10.6030
L285.3478 10.8506
" />
<path d="M285.3478 10.8506
L285.3478 11.3458
" />
<path d="M285.3478 11.3458
L285.4097 11.4696
" />
<path d="M285.4097 11.4696
L285.4716 11.5316
" />
<path d="M285.4716 11.5316
L285.5954 11.5935
" />
<path d="M285.5954 11.5935
L285.8430 11.5935
" />
<path d="M285.8430 11.5935
L285.9668 11.5316
" />
<path d="M285.9668 11.5316
L286.0287 11.4696
" />
<path d="M286.0287 11.4696
L286.0906 11.3458
" />
<path d="M286.0906 11.3458
L286.0906 11.0363
" />
<path d="M286.0906 11.0363
L286.0287 10.9125
" />
<path d="M286.0287 10.9125
L285.9668 10.8506
" />
<path d="M285.9668 10.8506
L285.8430 10.7887
" />
<path d="M285.8430 10.7887
L285.5954 10.7887
" />
<path d="M285.5954 10.7887
L285.4716 10.8506
" />
<path d="M285.4716 10.8506
L285.4097 10.9125
" />
<path d="M285.4097 10.9125
L285.3478 11.0363
" />
</g><path d="M60.0000 198.0072
L60.0000 200.0072
" />
<path d="M110.0000 198.0072
L110.0000 200.0072
" />
<path d="M160.0000 198.0072
L160.0000 200.0072
" />
<path d="M210.0000 198.0072
L210.0000 200.0072
" />
<path d="M260.0000 198.0072
L260.0000 200.0072
" />
<text x="35.0000" y="199.6572"
textLength="1.4353" font-size="1.7333" lengthAdjust="spacingAndGlyphs"
text-anchor="start" opacity="0" stroke-opacity="0">1</text>
<g class="stroked-text"><desc>1</desc>
<path d="M36.0906 199.6007
L35.3478 199.6007
" />
<path d="M35.7192 199.6007
L35.7192 198.3007
" />
<path d="M35.7192 198.3007
L35.5954 198.4864
" />
<path d="M35.5954 198.4864
L35.4716 198.6102
" />
<path d="M35.4716 198.6102
L35.3478 198.6721
" />
</g><text x="85.0000" y="199.6572"
textLength="1.4353" font-size="1.7333" lengthAdjust="spacingAndGlyphs"
text-anchor="start" opacity="0" stroke-opacity="0">2</text>
<g class="stroked-text"><desc>2</desc>
<path d="M85.3478 198.4245
L85.4097 198.3626
" />
<path d="M85.4097 198.3626
L85.5335 198.3007
" />
<path d="M85.5335 198.3007
L85.8430 198.3007
" />
<path d="M85.8430 198.3007
L85.9668 198.3626
" />
<path d="M85.9668 198.3626
L86.0287 198.4245
" />
<path d="M86.0287 198.4245
L86.0906 198.5483
" />
<path d="M86.0906 198.5483
L86.0906 198.6721
" />
<path d="M86.0906 198.6721
L86.0287 198.8578
" />
<path d="M86.0287 198.8578
L85.2859 199.6007
" />
<path d="M85.2859 199.6007
L86.0906 199.6007
" />
</g><text x="135.0000" y="199.6572"
textLength="1.4353" font-size="1.7333" lengthAdjust="spacingAndGlyphs"
text-anchor="start" opacity="0" stroke-opacity="0">3</text>
<g class="stroked-text"><desc>3</desc>
<path d="M135.2859 198.3007
L136.0906 198.3007
" />
<path d="M136.0906 198.3007
L135.6573 198.7959
" />
<path d="M135.6573 198.7959
L135.8430 198.7959
" />
<path d="M135.8430 198.7959
L135.9668 198.8578
" />
<path d="M135.9668 198.8578
L136.0287 198.9197
" />
<path d="M136.0287 198.9197
L136.0906 199.0435
" />
<path d="M136.0906 199.0435
L136.0906 199.3530
" />
<path d="M136.0906 199.3530
L136.0287 199.4768
" />
<path d="M136.0287 199.4768
L135.9668 199.5388
" />
<path d="M135.9668 199.5388
L135.8430 199.6007
" />
<path d="M135.8430 199.6007
L135.4716 199.6007
" />
<path d="M135.4716 199.6007
L135.3478 199.5388
" />
<path d="M135.3478 199.5388
L135.2859 199.4768
" />
</g><text x="185.0000" y="199.6572"
textLength="1.4353" font-size="1.7333" lengthAdjust="spacingAndGlyphs"
text-anchor="start" opacity="0" stroke-opacity="0">4</text>
<g class="stroked-text"><desc>4</desc>
<path d="M185.9668 198.7340
L185.9668 199.6007
" />
<path d="M185.6573 198.2388
L185.3478 199.1673
" />
<path d="M185.3478 199.1673
L186.1525 199.1673
" />
</g><text x="235.0000" y="199.6572"
textLength="1.4353" font-size="1.7333" lengthAdjust="spacingAndGlyphs"
text-anchor="start" opacity="0" stroke-opacity="0">5</text>
<g class="stroked-text"><desc>5</desc>
<path d="M236.0287 198.3007
L235.4097 198.3007
" />
<path d="M235.4097 198.3007
L235.3478 198.9197
" />
<path d="M235.3478 198.9197
L235.4097 198.8578
" />
<path d="M235.4097 198.8578
L235.5335 198.7959
" />
<path d="M235.5335 198.7959
L235.8430 198.7959
" />
<path d="M235.8430 198.7959
L235.9668 198.8578
" />
<path d="M235.9668 198.8578
L236.0287 198.9197
" />
<path d="M236.0287 198.9197
L236.0906 199.0435
" />
<path d="M236.0906 199.0435
L236.0906 199.3530
" />
<path d="M236.0906 199.3530
L236.0287 199.4768
" />
<path d="M236.0287 199.4768
L235.9668 199.5388
" />
<path d="M235.9668 199.5388
L235.8430 199.6007
" />
<path d="M235.8430 199.6007
L235.5335 199.6007
" />
<path d="M235.5335 199.6007
L235.4097 199.5388
" />
<path d="M235.4097 199.5388
L235.3478 199.4768
" />
</g><text x="285.0000" y="199.6572"
textLength="1.4353" font-size="1.7333" lengthAdjust="spacingAndGlyphs"
text-anchor="start" opacity="0" stroke-opacity="0">6</text>
<g class="stroked-text"><desc>6</desc>
<path d="M285.9668 198.3007
L285.7192 198.3007
" />
<path d="M285.7192 198.3007
L285.5954 198.3626
" />
<path d="M285.5954 198.3626
L285.5335 198.4245
" />
<path d="M285.5335 198.4245
L285.4097 198.6102
" />
<path d="M285.4097 198.6102
L285.3478 198.8578
" />
<path d="M285.3478 198.8578
L285.3478 199.3530
" />
<path d="M285.3478 199.3530
L285.4097 199.4768
" />
<path d="M285.4097 199.4768
L285.4716 199.5388
" />
<path d="M285.4716 199.5388
L285.5954 199.6007
" />
<path d="M285.5954 199.6007
L285.8430 199.6007
" />
<path d="M285.8430 199.6007
L285.9668 199.5388
" />
<path d="M285.9668 199.5388
L286.0287 199.4768
" />
<path d="M286.0287 199.4768
L286.0906 199.3530
" />
<path d="M286.0906 199.3530
L286.0906 199.0435
" />
<path d="M286.0906 199.0435
L286.0287 198.9197
" />
<path d="M286.0287 198.9197
L285.9668 198.8578
" />
<path d="M285.9668 198.8578
L285.8430 198.7959
" />
<path d="M285.8430 198.7959
L285.5954 198.7959
" />
<path d="M285.5954 198.7959
L285.4716 198.8578
" />
<path d="M285.4716 198.8578
L285.4097 198.9197
" />
<path d="M285.4097 198.9197
L285.3478 199.0435
" />
</g><path d="M10.0000 60.0000
L12.0000 60.0000
" />
<path d="M10.0000 110.0000
L12.0000 110.0000
" />
<path d="M10.0000 160.0000
L12.0000 160.0000
" />
<text x="11.0000" y="35.6500"
textLength="1.3115" font-size="1.7333" lengthAdjust="spacingAndGlyphs"
text-anchor="middle" opacity="0" stroke-opacity="0">A</text>
<g class="stroked-text"><desc>A</desc>
<path d="M10.6905 35.2220
L11.3095 35.2220
" />
<path d="M10.5667 35.5935
L11.0000 34.2935
" />
<path d="M11.0000 34.2935
L11.4333 35.5935
" />
</g><text x="11.0000" y="85.6500"
textLength="1.4972" font-size="1.7333" lengthAdjust="spacingAndGlyphs"
text-anchor="middle" opacity="0" stroke-opacity="0">B</text>
<g class="stroked-text"><desc>B</desc>
<path d="M11.0928 84.9125
L11.2785 84.9744
" />
<path d="M11.2785 84.9744
L11.3404 85.0363
" />
<path d="M11.3404 85.0363
L11.4023 85.1601
" />
<path d="M11.4023 85.1601
L11.4023 85.3458
" />
<path d="M11.4023 85.3458
L11.3404 85.4696
" />
<path d="M11.3404 85.4696
L11.2785 85.5316
" />
<path d="M11.2785 85.5316
L11.1547 85.5935
" />
<path d="M11.1547 85.5935
L10.6595 85.5935
" />
<path d="M10.6595 85.5935
L10.6595 84.2935
" />
<path d="M10.6595 84.2935
L11.0928 84.2935
" />
<path d="M11.0928 84.2935
L11.2166 84.3554
" />
<path d="M11.2166 84.3554
L11.2785 84.4173
" />
<path d="M11.2785 84.4173
L11.3404 84.5411
" />
<path d="M11.3404 84.5411
L11.3404 84.6649
" />
<path d="M11.3404 84.6649
L11.2785 84.7887
" />
<path d="M11.2785 84.7887
L11.2166 84.8506
" />
<path d="M11.2166 84.8506
L11.0928 84.9125
" />
<path d="M11.0928 84.9125
L10.6595 84.9125
" />
</g><text x="11.0000" y="135.6500"
textLength="1.4972" font-size="1.7333" lengthAdjust="spacingAndGlyphs"
text-anchor="middle" opacity="0" stroke-opacity="0">C</text>
<g class="stroked-text"><desc>C</desc>
<path d="M11.4023 135.4696
L11.3404 135.5316
" />
<path d="M11.3404 135.5316
L11.1547 135.5935
" />
<path d="M11.1547 135.5935
L11.0309 135.5935
" />
<path d="M11.0309 135.5935
L10.8452 135.5316
" />
<path d="M10.8452 135.5316
L10.7214 135.4077
" />
<path d="M10.7214 135.4077
L10.6595 135.2839
" />
<path d="M10.6595 135.2839
L10.5976 135.0363
" />
<path d="M10.5976 135.0363
L10.5976 134.8506
" />
<path d="M10.5976 134.8506
L10.6595 134.6030
" />
<path d="M10.6595 134.6030
L10.7214 134.4792
" />
<path d="M10.7214 134.4792
L10.8452 134.3554
" />
<path d="M10.8452 134.3554
L11.0309 134.2935
" />
<path d="M11.0309 134.2935
L11.1547 134.2935
" />
<path d="M11.1547 134.2935
L11.3404 134.3554
" />
<path d="M11.3404 134.3554
L11.4023 134.4173
" />
</g><text x="11.0000" y="185.6500"
textLength="1.4972" font-size="1.7333" lengthAdjust="spacingAndGlyphs"
text-anchor="middle" opacity="0" stroke-opacity="0">D</text>
<g class="stroked-text"><desc>D</desc>
<path d="M10.6595 185.5935
L10.6595 184.2935
" />
<path d="M10.6595 184.2935
L10.9690 184.2935
" />
<path d="M10.9690 184.2935
L11.1547 184.3554
" />
<path d="M11.1547 184.3554
L11.2785 184.4792
" />
<path d="M11.2785 184.4792
L11.3404 184.6030
" />
<path d="M11.3404 184.6030
L11.4023 184.8506
" />
<path d="M11.4023 184.8506
L11.4023 185.0363
" />
<path d="M11.4023 185.0363
L11.3404 185.2839
" />
<path d="M11.3404 185.2839
L11.2785 185.4077
" />
<path d="M11.2785 185.4077
L11.1547 185.5316
" />
<path d="M11.1547 185.5316
L10.9690 185.5935
" />
<path d="M10.9690 185.5935
L10.6595 185.5935
" />
</g><path d="M287.0022 60.0000
L285.0022 60.0000
" />
<path d="M287.0022 110.0000
L285.0022 110.0000
" />
<path d="M287.0022 160.0000
L285.0022 160.0000
" />
<text x="286.0022" y="35.6500"
textLength="1.3115" font-size="1.7333" lengthAdjust="spacingAndGlyphs"
text-anchor="middle" opacity="0" stroke-opacity="0">A</text>
<g class="stroked-text"><desc>A</desc>
<path d="M285.6927 35.2220
L286.3117 35.2220
" />
<path d="M285.5689 35.5935
L286.0022 34.2935
" />
<path d="M286.0022 34.2935
L286.4355 35.5935
" />
</g><text x="286.0022" y="85.6500"
textLength="1.4972" font-size="1.7333" lengthAdjust="spacingAndGlyphs"
text-anchor="middle" opacity="0" stroke-opacity="0">B</text>
<g class="stroked-text"><desc>B</desc>
<path d="M286.0950 84.9125
L286.2807 84.9744
" />
<path d="M286.2807 84.9744
L286.3426 85.0363
" />
<path d="M286.3426 85.0363
L286.4045 85.1601
" />
<path d="M286.4045 85.1601
L286.4045 85.3458
" />
<path d="M286.4045 85.3458
L286.3426 85.4696
" />
<path d="M286.3426 85.4696
L286.2807 85.5316
" />
<path d="M286.2807 85.5316
L286.1569 85.5935
" />
<path d="M286.1569 85.5935
L285.6617 85.5935
" />
<path d="M285.6617 85.5935
L285.6617 84.2935
" />
<path d="M285.6617 84.2935
L286.0950 84.2935
" />
<path d="M286.0950 84.2935
L286.2188 84.3554
" />
<path d="M286.2188 84.3554
L286.2807 84.4173
" />
<path d="M286.2807 84.4173
L286.3426 84.5411
" />
<path d="M286.3426 84.5411
L286.3426 84.6649
" />
<path d="M286.3426 84.6649
L286.2807 84.7887
" />
<path d="M286.2807 84.7887
L286.2188 84.8506
" />
<path d="M286.2188 84.8506
L286.0950 84.9125
" />
<path d="M286.0950 84.9125
L285.6617 84.9125
" />
</g><text x="286.0022" y="135.6500"
textLength="1.4972" font-size="1.7333" lengthAdjust="spacingAndGlyphs"
text-anchor="middle" opacity="0" stroke-opacity="0">C</text>
<g class="stroked-text"><desc>C</desc>
<path d="M286.4045 135.4696
L286.3426 135.5316
" />
<path d="M286.3426 135.5316
L286.1569 135.5935
" />
<path d="M286.1569 135.5935
L286.0331 135.5935
" />
<path d="M286.0331 135.5935
L285.8474 135.5316
" />
<path d="M285.8474 135.5316
L285.7236 135.4077
" />
<path d="M285.7236 135.4077
L285.6617 135.2839
" />
<path d="M285.6617 135.2839
L285.5998 135.0363
" />
<path d="M285.5998 135.0363
L285.5998 134.8506
" />
<path d="M285.5998 134.8506
L285.6617 134.6030
" />
<path d="M285.6617 134.6030
L285.7236 134.4792
" />
<path d="M285.7236 134.4792
L285.8474 134.3554
" />
<path d="M285.8474 134.3554
L286.0331 134.2935
" />
<path d="M286.0331 134.2935
L286.1569 134.2935
" />
<path d="M286.1569 134.2935
L286.3426 134.3554
" />
<path d="M286.3426 134.3554
L286.4045 134.4173
" />
</g><text x="286.0022" y="185.6500"
textLength="1.4972" font-size="1.7333" lengthAdjust="spacingAndGlyphs"
text-anchor="middle" opacity="0" stroke-opacity="0">D</text>
<g class="stroked-text"><desc>D</desc>
<path d="M285.6617 185.5935
L285.6617 184.2935
" />
<path d="M285.6617 184.2935
L285.9712 184.2935
" />
<path d="M285.9712 184.2935
L286.1569 184.3554
" />
<path d="M286.1569 184.3554
L286.2807 184.4792
" />
<path d="M286.2807 184.4792
L286.3426 184.6030
" />
<path d="M286.3426 184.6030
L286.4045 184.8506
" />
<path d="M286.4045 184.8506
L286.4045 185.0363
" />
<path d="M286.4045 185.0363
L286.3426 185.2839
" />
<path d="M286.3426 185.2839
L286.2807 185.4077
" />
<path d="M286.2807 185.4077
L286.1569 185.5316
" />
<path d="M286.1569 185.5316
L285.9712 185.5935
" />
<path d="M285.9712 185.5935
L285.6617 185.5935
" />
</g><text x="200.0022" y="193.8572"
textLength="7.0143" font-size="2.0000" lengthAdjust="spacingAndGlyphs"
text-anchor="start" opacity="0" stroke-opacity="0">Date: </text>
<g class="stroked-text"><desc>Date: </desc>
<path d="M200.4595 193.7931
L200.4595 192.2931
" />
<path d="M200.4595 192.2931
L200.8166 192.2931
" />
<path d="M200.8166 192.2931
L201.0309 192.3645
" />
<path d="M201.0309 192.3645
L201.1738 192.5074
" />
<path d="M201.1738 192.5074
L201.2452 192.6502
" />
<path d="M201.2452 192.6502
L201.3166 192.9359
" />
<path d="M201.3166 192.9359
L201.3166 193.1502
" />
<path d="M201.3166 193.1502
L201.2452 193.4359
" />
<path d="M201.2452 193.4359
L201.1738 193.5788
" />
<path d="M201.1738 193.5788
L201.0309 193.7217
" />
<path d="M201.0309 193.7217
L200.8166 193.7931
" />
<path d="M200.8166 193.7931
L200.4595 193.7931
" />
<path d="M202.6024 193.7931
L202.6024 193.0074
" />
<path d="M202.6024 193.0074
L202.5309 192.8645
" />
<path d="M202.5309 192.8645
L202.3881 192.7931
" />
<path d="M202.3881 192.7931
L202.1024 192.7931
" />
<path d="M202.1024 192.7931
L201.9595 192.8645
" />
<path d="M202.6024 193.7217
L202.4595 193.7931
" />
<path d="M202.4595 193.7931
L202.1024 193.7931
" />
<path d="M202.1024 193.7931
L201.9595 193.7217
" />
<path d="M201.9595 193.7217
L201.8881 193.5788
" />
<path d="M201.8881 193.5788
L201.8881 193.4359
" />
<path d="M201.8881 193.4359
L201.9595 193.2931
" />
<path d="M201.9595 193.2931
L202.1024 193.2217
" />
<path d="M202.1024 193.2217
L202.4595 193.2217
" />
<path d="M202.4595 193.2217
L202.6024 193.1502
" />
<path d="M203.1023 192.7931
L203.6737 192.7931
" />
<path d="M203.3166 192.2931
L203.3166 193.5788
" />
<path d="M203.3166 193.5788
L203.3880 193.7217
" />
<path d="M203.3880 193.7217
L203.5309 193.7931
" />
<path d="M203.5309 193.7931
L203.6737 193.7931
" />
<path d="M204.7451 193.7217
L204.6023 193.7931
" />
<path d="M204.6023 193.7931
L204.3166 193.7931
" />
<path d="M204.3166 193.7931
L204.1737 193.7217
" />
<path d="M204.1737 193.7217
L204.1023 193.5788
" />
<path d="M204.1023 193.5788
L204.1023 193.0074
" />
<path d="M204.1023 193.0074
L204.1737 192.8645
" />
<path d="M204.1737 192.8645
L204.3166 192.7931
" />
<path d="M204.3166 192.7931
L204.6023 192.7931
" />
<path d="M204.6023 192.7931
L204.7451 192.8645
" />
<path d="M204.7451 192.8645
L204.8166 193.0074
" />
<path d="M204.8166 193.0074
L204.8166 193.1502
" />
<path d="M204.8166 193.1502
L204.1023 193.2931
" />
<path d="M205.4594 193.6502
L205.5308 193.7217
" />
<path d="M205.5308 193.7217
L205.4594 193.7931
" />
<path d="M205.4594 193.7931
L205.3880 193.7217
" />
<path d="M205.3880 193.7217
L205.4594 193.6502
" />
<path d="M205.4594 193.6502
L205.4594 193.7931
" />
<path d="M205.4594 192.8645
L205.5308 192.9359
" />
<path d="M205.5308 192.9359
L205.4594 193.0074
" />
<path d="M205.4594 193.0074
L205.3880 192.9359
" />
<path d="M205.3880 192.9359
L205.4594 192.8645
" />
<path d="M205.4594 192.8645
L205.4594 193.0074
" />
</g><path d="M177.0022 194.5072
L285.0022 194.5072
" />
<text x="178.0022" y="196.6572"
textLength="22.3002" font-size="2.0000" lengthAdjust="spacingAndGlyphs"
text-anchor="start" opacity="0" stroke-opacity="0">KiCad E.D.A. 10.0.4</text>
<g class="stroked-text"><desc>KiCad E.D.A. 10.0.4</desc>
<path d="M178.4595 196.5931
L178.4595 195.0931
" />
<path d="M179.3166 196.5931
L178.6738 195.7359
" />
<path d="M179.3166 195.0931
L178.4595 195.9502
" />
<path d="M179.9595 196.5931
L179.9595 195.5931
" />
<path d="M179.9595 195.0931
L179.8881 195.1645
" />
<path d="M179.8881 195.1645
L179.9595 195.2359
" />
<path d="M179.9595 195.2359
L180.0309 195.1645
" />
<path d="M180.0309 195.1645
L179.9595 195.0931
" />
<path d="M179.9595 195.0931
L179.9595 195.2359
" />
<path d="M181.5309 196.4502
L181.4595 196.5217
" />
<path d="M181.4595 196.5217
L181.2452 196.5931
" />
<path d="M181.2452 196.5931
L181.1024 196.5931
" />
<path d="M181.1024 196.5931
L180.8881 196.5217
" />
<path d="M180.8881 196.5217
L180.7452 196.3788
" />
<path d="M180.7452 196.3788
L180.6738 196.2359
" />
<path d="M180.6738 196.2359
L180.6024 195.9502
" />
<path d="M180.6024 195.9502
L180.6024 195.7359
" />
<path d="M180.6024 195.7359
L180.6738 195.4502
" />
<path d="M180.6738 195.4502
L180.7452 195.3074
" />
<path d="M180.7452 195.3074
L180.8881 195.1645
" />
<path d="M180.8881 195.1645
L181.1024 195.0931
" />
<path d="M181.1024 195.0931
L181.2452 195.0931
" />
<path d="M181.2452 195.0931
L181.4595 195.1645
" />
<path d="M181.4595 195.1645
L181.5309 195.2359
" />
<path d="M182.8167 196.5931
L182.8167 195.8074
" />
<path d="M182.8167 195.8074
L182.7452 195.6645
" />
<path d="M182.7452 195.6645
L182.6024 195.5931
" />
<path d="M182.6024 195.5931
L182.3167 195.5931
" />
<path d="M182.3167 195.5931
L182.1738 195.6645
" />
<path d="M182.8167 196.5217
L182.6738 196.5931
" />
<path d="M182.6738 196.5931
L182.3167 196.5931
" />
<path d="M182.3167 196.5931
L182.1738 196.5217
" />
<path d="M182.1738 196.5217
L182.1024 196.3788
" />
<path d="M182.1024 196.3788
L182.1024 196.2359
" />
<path d="M182.1024 196.2359
L182.1738 196.0931
" />
<path d="M182.1738 196.0931
L182.3167 196.0217
" />
<path d="M182.3167 196.0217
L182.6738 196.0217
" />
<path d="M182.6738 196.0217
L182.8167 195.9502
" />
<path d="M184.1738 196.5931
L184.1738 195.0931
" />
<path d="M184.1738 196.5217
L184.0309 196.5931
" />
<path d="M184.0309 196.5931
L183.7452 196.5931
" />
<path d="M183.7452 196.5931
L183.6023 196.5217
" />
<path d="M183.6023 196.5217
L183.5309 196.4502
" />
<path d="M183.5309 196.4502
L183.4595 196.3074
" />
<path d="M183.4595 196.3074
L183.4595 195.8788
" />
<path d="M183.4595 195.8788
L183.5309 195.7359
" />
<path d="M183.5309 195.7359
L183.6023 195.6645
" />
<path d="M183.6023 195.6645
L183.7452 195.5931
" />
<path d="M183.7452 195.5931
L184.0309 195.5931
" />
<path d="M184.0309 195.5931
L184.1738 195.6645
" />
<path d="M186.0309 195.8074
L186.5309 195.8074
" />
<path d="M186.7452 196.5931
L186.0309 196.5931
" />
<path d="M186.0309 196.5931
L186.0309 195.0931
" />
<path d="M186.0309 195.0931
L186.7452 195.0931
" />
<path d="M187.3880 196.4502
L187.4594 196.5217
" />
<path d="M187.4594 196.5217
L187.3880 196.5931
" />
<path d="M187.3880 196.5931
L187.3166 196.5217
" />
<path d="M187.3166 196.5217
L187.3880 196.4502
" />
<path d="M187.3880 196.4502
L187.3880 196.5931
" />
<path d="M188.1023 196.5931
L188.1023 195.0931
" />
<path d="M188.1023 195.0931
L188.4594 195.0931
" />
<path d="M188.4594 195.0931
L188.6737 195.1645
" />
<path d="M188.6737 195.1645
L188.8166 195.3074
" />
<path d="M188.8166 195.3074
L188.8880 195.4502
" />
<path d="M188.8880 195.4502
L188.9594 195.7359
" />
<path d="M188.9594 195.7359
L188.9594 195.9502
" />
<path d="M188.9594 195.9502
L188.8880 196.2359
" />
<path d="M188.8880 196.2359
L188.8166 196.3788
" />
<path d="M188.8166 196.3788
L188.6737 196.5217
" />
<path d="M188.6737 196.5217
L188.4594 196.5931
" />
<path d="M188.4594 196.5931
L188.1023 196.5931
" />
<path d="M189.6023 196.4502
L189.6737 196.5217
" />
<path d="M189.6737 196.5217
L189.6023 196.5931
" />
<path d="M189.6023 196.5931
L189.5309 196.5217
" />
<path d="M189.5309 196.5217
L189.6023 196.4502
" />
<path d="M189.6023 196.4502
L189.6023 196.5931
" />
<path d="M190.2452 196.1645
L190.9595 196.1645
" />
<path d="M190.1023 196.5931
L190.6023 195.0931
" />
<path d="M190.6023 195.0931
L191.1023 196.5931
" />
<path d="M191.6023 196.4502
L191.6737 196.5217
" />
<path d="M191.6737 196.5217
L191.6023 196.5931
" />
<path d="M191.6023 196.5931
L191.5309 196.5217
" />
<path d="M191.5309 196.5217
L191.6023 196.4502
" />
<path d="M191.6023 196.4502
L191.6023 196.5931
" />
<path d="M194.2452 196.5931
L193.3881 196.5931
" />
<path d="M193.8166 196.5931
L193.8166 195.0931
" />
<path d="M193.8166 195.0931
L193.6738 195.3074
" />
<path d="M193.6738 195.3074
L193.5309 195.4502
" />
<path d="M193.5309 195.4502
L193.3881 195.5217
" />
<path d="M195.1738 195.0931
L195.3167 195.0931
" />
<path d="M195.3167 195.0931
L195.4595 195.1645
" />
<path d="M195.4595 195.1645
L195.5310 195.2359
" />
<path d="M195.5310 195.2359
L195.6024 195.3788
" />
<path d="M195.6024 195.3788
L195.6738 195.6645
" />
<path d="M195.6738 195.6645
L195.6738 196.0217
" />
<path d="M195.6738 196.0217
L195.6024 196.3074
" />
<path d="M195.6024 196.3074
L195.5310 196.4502
" />
<path d="M195.5310 196.4502
L195.4595 196.5217
" />
<path d="M195.4595 196.5217
L195.3167 196.5931
" />
<path d="M195.3167 196.5931
L195.1738 196.5931
" />
<path d="M195.1738 196.5931
L195.0310 196.5217
" />
<path d="M195.0310 196.5217
L194.9595 196.4502
" />
<path d="M194.9595 196.4502
L194.8881 196.3074
" />
<path d="M194.8881 196.3074
L194.8167 196.0217
" />
<path d="M194.8167 196.0217
L194.8167 195.6645
" />
<path d="M194.8167 195.6645
L194.8881 195.3788
" />
<path d="M194.8881 195.3788
L194.9595 195.2359
" />
<path d="M194.9595 195.2359
L195.0310 195.1645
" />
<path d="M195.0310 195.1645
L195.1738 195.0931
" />
<path d="M196.3167 196.4502
L196.3881 196.5217
" />
<path d="M196.3881 196.5217
L196.3167 196.5931
" />
<path d="M196.3167 196.5931
L196.2453 196.5217
" />
<path d="M196.2453 196.5217
L196.3167 196.4502
" />
<path d="M196.3167 196.4502
L196.3167 196.5931
" />
<path d="M197.3167 195.0931
L197.4596 195.0931
" />
<path d="M197.4596 195.0931
L197.6024 195.1645
" />
<path d="M197.6024 195.1645
L197.6739 195.2359
" />
<path d="M197.6739 195.2359
L197.7453 195.3788
" />
<path d="M197.7453 195.3788
L197.8167 195.6645
" />
<path d="M197.8167 195.6645
L197.8167 196.0217
" />
<path d="M197.8167 196.0217
L197.7453 196.3074
" />
<path d="M197.7453 196.3074
L197.6739 196.4502
" />
<path d="M197.6739 196.4502
L197.6024 196.5217
" />
<path d="M197.6024 196.5217
L197.4596 196.5931
" />
<path d="M197.4596 196.5931
L197.3167 196.5931
" />
<path d="M197.3167 196.5931
L197.1739 196.5217
" />
<path d="M197.1739 196.5217
L197.1024 196.4502
" />
<path d="M197.1024 196.4502
L197.0310 196.3074
" />
<path d="M197.0310 196.3074
L196.9596 196.0217
" />
<path d="M196.9596 196.0217
L196.9596 195.6645
" />
<path d="M196.9596 195.6645
L197.0310 195.3788
" />
<path d="M197.0310 195.3788
L197.1024 195.2359
" />
<path d="M197.1024 195.2359
L197.1739 195.1645
" />
<path d="M197.1739 195.1645
L197.3167 195.0931
" />
<path d="M198.4596 196.4502
L198.5310 196.5217
" />
<path d="M198.5310 196.5217
L198.4596 196.5931
" />
<path d="M198.4596 196.5931
L198.3882 196.5217
" />
<path d="M198.3882 196.5217
L198.4596 196.4502
" />
<path d="M198.4596 196.4502
L198.4596 196.5931
" />
<path d="M199.8168 195.5931
L199.8168 196.5931
" />
<path d="M199.4596 195.0217
L199.1025 196.0931
" />
<path d="M199.1025 196.0931
L200.0310 196.0931
" />
</g><path d="M177.0022 191.5072
L285.0022 191.5072
" />
</g>
<g style="fill:none; 
stroke:#840000; stroke-width:0.3000; stroke-opacity:1; 
stroke-linecap:round; stroke-linejoin:round;">
<text x="263.0022" y="193.8572"
textLength="6.3858" font-size="2.0000" lengthAdjust="spacingAndGlyphs"
text-anchor="start" opacity="0" stroke-opacity="0">Rev: </text>
<g class="stroked-text"><desc>Rev: </desc>
<path d="M264.4137 193.7855
L263.9137 193.0712
" />
<path d="M263.5566 193.7855
L263.5566 192.2855
" />
<path d="M263.5566 192.2855
L264.1280 192.2855
" />
<path d="M264.1280 192.2855
L264.2709 192.3569
" />
<path d="M264.2709 192.3569
L264.3423 192.4283
" />
<path d="M264.3423 192.4283
L264.4137 192.5712
" />
<path d="M264.4137 192.5712
L264.4137 192.7855
" />
<path d="M264.4137 192.7855
L264.3423 192.9283
" />
<path d="M264.3423 192.9283
L264.2709 192.9998
" />
<path d="M264.2709 192.9998
L264.1280 193.0712
" />
<path d="M264.1280 193.0712
L263.5566 193.0712
" />
<path d="M265.6280 193.7141
L265.4852 193.7855
" />
<path d="M265.4852 193.7855
L265.1995 193.7855
" />
<path d="M265.1995 193.7855
L265.0566 193.7141
" />
<path d="M265.0566 193.7141
L264.9852 193.5712
" />
<path d="M264.9852 193.5712
L264.9852 192.9998
" />
<path d="M264.9852 192.9998
L265.0566 192.8569
" />
<path d="M265.0566 192.8569
L265.1995 192.7855
" />
<path d="M265.1995 192.7855
L265.4852 192.7855
" />
<path d="M265.4852 192.7855
L265.6280 192.8569
" />
<path d="M265.6280 192.8569
L265.6995 192.9998
" />
<path d="M265.6995 192.9998
L265.6995 193.1426
" />
<path d="M265.6995 193.1426
L264.9852 193.2855
" />
<path d="M266.1994 192.7855
L266.5566 193.7855
" />
<path d="M266.5566 193.7855
L266.9137 192.7855
" />
<path d="M267.4852 193.6426
L267.5566 193.7141
" />
<path d="M267.5566 193.7141
L267.4852 193.7855
" />
<path d="M267.4852 193.7855
L267.4138 193.7141
" />
<path d="M267.4138 193.7141
L267.4852 193.6426
" />
<path d="M267.4852 193.6426
L267.4852 193.7855
" />
<path d="M267.4852 192.8569
L267.5566 192.9283
" />
<path d="M267.5566 192.9283
L267.4852 192.9998
" />
<path d="M267.4852 192.9998
L267.4138 192.9283
" />
<path d="M267.4138 192.9283
L267.4852 192.8569
" />
<path d="M267.4852 192.8569
L267.4852 192.9998
" />
</g></g>
<g style="fill:none; 
stroke:#840000; stroke-width:0.1524; stroke-opacity:1; 
stroke-linecap:round; stroke-linejoin:round;">
<text x="178.0022" y="193.8572"
textLength="9.3716" font-size="2.0000" lengthAdjust="spacingAndGlyphs"
text-anchor="start" opacity="0" stroke-opacity="0">Size: A4</text>
<g class="stroked-text"><desc>Size: A4</desc>
<path d="M178.3881 193.7217
L178.6024 193.7931
" />
<path d="M178.6024 193.7931
L178.9595 193.7931
" />
<path d="M178.9595 193.7931
L179.1024 193.7217
" />
<path d="M179.1024 193.7217
L179.1738 193.6502
" />
<path d="M179.1738 193.6502
L179.2452 193.5074
" />
<path d="M179.2452 193.5074
L179.2452 193.3645
" />
<path d="M179.2452 193.3645
L179.1738 193.2217
" />
<path d="M179.1738 193.2217
L179.1024 193.1502
" />
<path d="M179.1024 193.1502
L178.9595 193.0788
" />
<path d="M178.9595 193.0788
L178.6738 193.0074
" />
<path d="M178.6738 193.0074
L178.5309 192.9359
" />
<path d="M178.5309 192.9359
L178.4595 192.8645
" />
<path d="M178.4595 192.8645
L178.3881 192.7217
" />
<path d="M178.3881 192.7217
L178.3881 192.5788
" />
<path d="M178.3881 192.5788
L178.4595 192.4359
" />
<path d="M178.4595 192.4359
L178.5309 192.3645
" />
<path d="M178.5309 192.3645
L178.6738 192.2931
" />
<path d="M178.6738 192.2931
L179.0309 192.2931
" />
<path d="M179.0309 192.2931
L179.2452 192.3645
" />
<path d="M179.8881 193.7931
L179.8881 192.7931
" />
<path d="M179.8881 192.2931
L179.8167 192.3645
" />
<path d="M179.8167 192.3645
L179.8881 192.4359
" />
<path d="M179.8881 192.4359
L179.9595 192.3645
" />
<path d="M179.9595 192.3645
L179.8881 192.2931
" />
<path d="M179.8881 192.2931
L179.8881 192.4359
" />
<path d="M180.4595 192.7931
L181.2453 192.7931
" />
<path d="M181.2453 192.7931
L180.4595 193.7931
" />
<path d="M180.4595 193.7931
L181.2453 193.7931
" />
<path d="M182.3881 193.7217
L182.2453 193.7931
" />
<path d="M182.2453 193.7931
L181.9596 193.7931
" />
<path d="M181.9596 193.7931
L181.8167 193.7217
" />
<path d="M181.8167 193.7217
L181.7453 193.5788
" />
<path d="M181.7453 193.5788
L181.7453 193.0074
" />
<path d="M181.7453 193.0074
L181.8167 192.8645
" />
<path d="M181.8167 192.8645
L181.9596 192.7931
" />
<path d="M181.9596 192.7931
L182.2453 192.7931
" />
<path d="M182.2453 192.7931
L182.3881 192.8645
" />
<path d="M182.3881 192.8645
L182.4596 193.0074
" />
<path d="M182.4596 193.0074
L182.4596 193.1502
" />
<path d="M182.4596 193.1502
L181.7453 193.2931
" />
<path d="M183.1024 193.6502
L183.1738 193.7217
" />
<path d="M183.1738 193.7217
L183.1024 193.7931
" />
<path d="M183.1024 193.7931
L183.0310 193.7217
" />
<path d="M183.0310 193.7217
L183.1024 193.6502
" />
<path d="M183.1024 193.6502
L183.1024 193.7931
" />
<path d="M183.1024 192.8645
L183.1738 192.9359
" />
<path d="M183.1738 192.9359
L183.1024 193.0074
" />
<path d="M183.1024 193.0074
L183.0310 192.9359
" />
<path d="M183.0310 192.9359
L183.1024 192.8645
" />
<path d="M183.1024 192.8645
L183.1024 193.0074
" />
<path d="M184.8882 193.3645
L185.6025 193.3645
" />
<path d="M184.7453 193.7931
L185.2453 192.2931
" />
<path d="M185.2453 192.2931
L185.7453 193.7931
" />
<path d="M186.8882 192.7931
L186.8882 193.7931
" />
<path d="M186.5310 192.2217
L186.1739 193.2931
" />
<path d="M186.1739 193.2931
L187.1024 193.2931
" />
</g><text x="263.0022" y="196.6572"
textLength="8.5144" font-size="2.0000" lengthAdjust="spacingAndGlyphs"
text-anchor="start" opacity="0" stroke-opacity="0">Id: 5/5</text>
<g class="stroked-text"><desc>Id: 5/5</desc>
<path d="M263.4595 196.5931
L263.4595 195.0931
" />
<path d="M264.8167 196.5931
L264.8167 195.0931
" />
<path d="M264.8167 196.5217
L264.6738 196.5931
" />
<path d="M264.6738 196.5931
L264.3881 196.5931
" />
<path d="M264.3881 196.5931
L264.2452 196.5217
" />
<path d="M264.2452 196.5217
L264.1738 196.4502
" />
<path d="M264.1738 196.4502
L264.1024 196.3074
" />
<path d="M264.1024 196.3074
L264.1024 195.8788
" />
<path d="M264.1024 195.8788
L264.1738 195.7359
" />
<path d="M264.1738 195.7359
L264.2452 195.6645
" />
<path d="M264.2452 195.6645
L264.3881 195.5931
" />
<path d="M264.3881 195.5931
L264.6738 195.5931
" />
<path d="M264.6738 195.5931
L264.8167 195.6645
" />
<path d="M265.5309 196.4502
L265.6023 196.5217
" />
<path d="M265.6023 196.5217
L265.5309 196.5931
" />
<path d="M265.5309 196.5931
L265.4595 196.5217
" />
<path d="M265.4595 196.5217
L265.5309 196.4502
" />
<path d="M265.5309 196.4502
L265.5309 196.5931
" />
<path d="M265.5309 195.6645
L265.6023 195.7359
" />
<path d="M265.6023 195.7359
L265.5309 195.8074
" />
<path d="M265.5309 195.8074
L265.4595 195.7359
" />
<path d="M265.4595 195.7359
L265.5309 195.6645
" />
<path d="M265.5309 195.6645
L265.5309 195.8074
" />
<path d="M268.1024 195.0931
L267.3881 195.0931
" />
<path d="M267.3881 195.0931
L267.3167 195.8074
" />
<path d="M267.3167 195.8074
L267.3881 195.7359
" />
<path d="M267.3881 195.7359
L267.5310 195.6645
" />
<path d="M267.5310 195.6645
L267.8881 195.6645
" />
<path d="M267.8881 195.6645
L268.0310 195.7359
" />
<path d="M268.0310 195.7359
L268.1024 195.8074
" />
<path d="M268.1024 195.8074
L268.1738 195.9502
" />
<path d="M268.1738 195.9502
L268.1738 196.3074
" />
<path d="M268.1738 196.3074
L268.1024 196.4502
" />
<path d="M268.1024 196.4502
L268.0310 196.5217
" />
<path d="M268.0310 196.5217
L267.8881 196.5931
" />
<path d="M267.8881 196.5931
L267.5310 196.5931
" />
<path d="M267.5310 196.5931
L267.3881 196.5217
" />
<path d="M267.3881 196.5217
L267.3167 196.4502
" />
<path d="M269.8881 195.0217
L268.6024 196.9502
" />
<path d="M271.1024 195.0931
L270.3881 195.0931
" />
<path d="M270.3881 195.0931
L270.3167 195.8074
" />
<path d="M270.3167 195.8074
L270.3881 195.7359
" />
<path d="M270.3881 195.7359
L270.5310 195.6645
" />
<path d="M270.5310 195.6645
L270.8881 195.6645
" />
<path d="M270.8881 195.6645
L271.0310 195.7359
" />
<path d="M271.0310 195.7359
L271.1024 195.8074
" />
<path d="M271.1024 195.8074
L271.1738 195.9502
" />
<path d="M271.1738 195.9502
L271.1738 196.3074
" />
<path d="M271.1738 196.3074
L271.1024 196.4502
" />
<path d="M271.1024 196.4502
L271.0310 196.5217
" />
<path d="M271.0310 196.5217
L270.8881 196.5931
" />
<path d="M270.8881 196.5931
L270.5310 196.5931
" />
<path d="M270.5310 196.5931
L270.3881 196.5217
" />
<path d="M270.3881 196.5217
L270.3167 196.4502
" />
</g><path d="M177.0022 187.5072
L285.0022 187.5072
" />
</g>
<g style="fill:none; 
stroke:#840000; stroke-width:0.4000; stroke-opacity:1; 
stroke-linecap:round; stroke-linejoin:round;">
<text x="178.0022" y="190.3072"
textLength="32.2286" font-size="2.6666" lengthAdjust="spacingAndGlyphs"
text-anchor="start" opacity="0" stroke-opacity="0">Title: Voltage divider</text>
<g class="stroked-text"><desc>Title: Voltage divider</desc>
<path d="M178.6938 188.2116
L179.8367 188.2116
" />
<path d="M179.0153 190.2116
L179.2653 188.2116
" />
<path d="M180.2533 190.2116
L180.4200 188.8783
" />
<path d="M180.5033 188.2116
L180.3962 188.3068
" />
<path d="M180.3962 188.3068
L180.4795 188.4021
" />
<path d="M180.4795 188.4021
L180.5867 188.3068
" />
<path d="M180.5867 188.3068
L180.5033 188.2116
" />
<path d="M180.5033 188.2116
L180.4795 188.4021
" />
<path d="M181.0867 188.8783
L181.8486 188.8783
" />
<path d="M181.4557 188.2116
L181.2415 189.9259
" />
<path d="M181.2415 189.9259
L181.3129 190.1164
" />
<path d="M181.3129 190.1164
L181.4915 190.2116
" />
<path d="M181.4915 190.2116
L181.6819 190.2116
" />
<path d="M182.6344 190.2116
L182.4558 190.1164
" />
<path d="M182.4558 190.1164
L182.3844 189.9259
" />
<path d="M182.3844 189.9259
L182.5986 188.2116
" />
<path d="M184.1700 190.1164
L183.9677 190.2116
" />
<path d="M183.9677 190.2116
L183.5867 190.2116
" />
<path d="M183.5867 190.2116
L183.4081 190.1164
" />
<path d="M183.4081 190.1164
L183.3367 189.9259
" />
<path d="M183.3367 189.9259
L183.4320 189.1640
" />
<path d="M183.4320 189.1640
L183.5510 188.9735
" />
<path d="M183.5510 188.9735
L183.7534 188.8783
" />
<path d="M183.7534 188.8783
L184.1343 188.8783
" />
<path d="M184.1343 188.8783
L184.3129 188.9735
" />
<path d="M184.3129 188.9735
L184.3843 189.1640
" />
<path d="M184.3843 189.1640
L184.3605 189.3544
" />
<path d="M184.3605 189.3544
L183.3843 189.5449
" />
<path d="M185.1343 190.0211
L185.2177 190.1164
" />
<path d="M185.2177 190.1164
L185.1105 190.2116
" />
<path d="M185.1105 190.2116
L185.0272 190.1164
" />
<path d="M185.0272 190.1164
L185.1343 190.0211
" />
<path d="M185.1343 190.0211
L185.1105 190.2116
" />
<path d="M185.2653 188.9735
L185.3486 189.0687
" />
<path d="M185.3486 189.0687
L185.2415 189.1640
" />
<path d="M185.2415 189.1640
L185.1582 189.0687
" />
<path d="M185.1582 189.0687
L185.2653 188.9735
" />
<path d="M185.2653 188.9735
L185.2415 189.1640
" />
<path d="M187.5510 188.2116
L187.9677 190.2116
" />
<path d="M187.9677 190.2116
L188.8844 188.2116
" />
<path d="M189.5868 190.2116
L189.4082 190.1164
" />
<path d="M189.4082 190.1164
L189.3248 190.0211
" />
<path d="M189.3248 190.0211
L189.2534 189.8306
" />
<path d="M189.2534 189.8306
L189.3248 189.2592
" />
<path d="M189.3248 189.2592
L189.4439 189.0687
" />
<path d="M189.4439 189.0687
L189.5510 188.9735
" />
<path d="M189.5510 188.9735
L189.7534 188.8783
" />
<path d="M189.7534 188.8783
L190.0391 188.8783
" />
<path d="M190.0391 188.8783
L190.2177 188.9735
" />
<path d="M190.2177 188.9735
L190.3010 189.0687
" />
<path d="M190.3010 189.0687
L190.3725 189.2592
" />
<path d="M190.3725 189.2592
L190.3010 189.8306
" />
<path d="M190.3010 189.8306
L190.1820 190.0211
" />
<path d="M190.1820 190.0211
L190.0748 190.1164
" />
<path d="M190.0748 190.1164
L189.8725 190.2116
" />
<path d="M189.8725 190.2116
L189.5868 190.2116
" />
<path d="M191.3963 190.2116
L191.2177 190.1164
" />
<path d="M191.2177 190.1164
L191.1463 189.9259
" />
<path d="M191.1463 189.9259
L191.3605 188.2116
" />
<path d="M192.0391 188.8783
L192.8010 188.8783
" />
<path d="M192.4081 188.2116
L192.1939 189.9259
" />
<path d="M192.1939 189.9259
L192.2653 190.1164
" />
<path d="M192.2653 190.1164
L192.4439 190.2116
" />
<path d="M192.4439 190.2116
L192.6343 190.2116
" />
<path d="M194.1582 190.2116
L194.2891 189.1640
" />
<path d="M194.2891 189.1640
L194.2177 188.9735
" />
<path d="M194.2177 188.9735
L194.0391 188.8783
" />
<path d="M194.0391 188.8783
L193.6582 188.8783
" />
<path d="M193.6582 188.8783
L193.4558 188.9735
" />
<path d="M194.1701 190.1164
L193.9677 190.2116
" />
<path d="M193.9677 190.2116
L193.4915 190.2116
" />
<path d="M193.4915 190.2116
L193.3129 190.1164
" />
<path d="M193.3129 190.1164
L193.2415 189.9259
" />
<path d="M193.2415 189.9259
L193.2653 189.7354
" />
<path d="M193.2653 189.7354
L193.3844 189.5449
" />
<path d="M193.3844 189.5449
L193.5868 189.4497
" />
<path d="M193.5868 189.4497
L194.0629 189.4497
" />
<path d="M194.0629 189.4497
L194.2653 189.3544
" />
<path d="M196.1343 188.8783
L195.9320 190.4973
" />
<path d="M195.9320 190.4973
L195.8129 190.6878
" />
<path d="M195.8129 190.6878
L195.7058 190.7830
" />
<path d="M195.7058 190.7830
L195.5034 190.8783
" />
<path d="M195.5034 190.8783
L195.2177 190.8783
" />
<path d="M195.2177 190.8783
L195.0391 190.7830
" />
<path d="M195.9796 190.1164
L195.7772 190.2116
" />
<path d="M195.7772 190.2116
L195.3963 190.2116
" />
<path d="M195.3963 190.2116
L195.2177 190.1164
" />
<path d="M195.2177 190.1164
L195.1343 190.0211
" />
<path d="M195.1343 190.0211
L195.0629 189.8306
" />
<path d="M195.0629 189.8306
L195.1343 189.2592
" />
<path d="M195.1343 189.2592
L195.2534 189.0687
" />
<path d="M195.2534 189.0687
L195.3605 188.9735
" />
<path d="M195.3605 188.9735
L195.5629 188.8783
" />
<path d="M195.5629 188.8783
L195.9439 188.8783
" />
<path d="M195.9439 188.8783
L196.1224 188.9735
" />
<path d="M197.6938 190.1164
L197.4915 190.2116
" />
<path d="M197.4915 190.2116
L197.1105 190.2116
" />
<path d="M197.1105 190.2116
L196.9319 190.1164
" />
<path d="M196.9319 190.1164
L196.8605 189.9259
" />
<path d="M196.8605 189.9259
L196.9558 189.1640
" />
<path d="M196.9558 189.1640
L197.0748 188.9735
" />
<path d="M197.0748 188.9735
L197.2772 188.8783
" />
<path d="M197.2772 188.8783
L197.6581 188.8783
" />
<path d="M197.6581 188.8783
L197.8367 188.9735
" />
<path d="M197.8367 188.9735
L197.9081 189.1640
" />
<path d="M197.9081 189.1640
L197.8843 189.3544
" />
<path d="M197.8843 189.3544
L196.9081 189.5449
" />
<path d="M201.0153 190.2116
L201.2653 188.2116
" />
<path d="M201.0272 190.1164
L200.8248 190.2116
" />
<path d="M200.8248 190.2116
L200.4439 190.2116
" />
<path d="M200.4439 190.2116
L200.2653 190.1164
" />
<path d="M200.2653 190.1164
L200.1819 190.0211
" />
<path d="M200.1819 190.0211
L200.1105 189.8306
" />
<path d="M200.1105 189.8306
L200.1819 189.2592
" />
<path d="M200.1819 189.2592
L200.3010 189.0687
" />
<path d="M200.3010 189.0687
L200.4081 188.9735
" />
<path d="M200.4081 188.9735
L200.6105 188.8783
" />
<path d="M200.6105 188.8783
L200.9915 188.8783
" />
<path d="M200.9915 188.8783
L201.1700 188.9735
" />
<path d="M201.9676 190.2116
L202.1343 188.8783
" />
<path d="M202.2176 188.2116
L202.1105 188.3068
" />
<path d="M202.1105 188.3068
L202.1938 188.4021
" />
<path d="M202.1938 188.4021
L202.3010 188.3068
" />
<path d="M202.3010 188.3068
L202.2176 188.2116
" />
<path d="M202.2176 188.2116
L202.1938 188.4021
" />
<path d="M202.8962 188.8783
L203.2058 190.2116
" />
<path d="M203.2058 190.2116
L203.8486 188.8783
" />
<path d="M204.4438 190.2116
L204.6105 188.8783
" />
<path d="M204.6938 188.2116
L204.5867 188.3068
" />
<path d="M204.5867 188.3068
L204.6700 188.4021
" />
<path d="M204.6700 188.4021
L204.7772 188.3068
" />
<path d="M204.7772 188.3068
L204.6938 188.2116
" />
<path d="M204.6938 188.2116
L204.6700 188.4021
" />
<path d="M206.2534 190.2116
L206.5034 188.2116
" />
<path d="M206.2653 190.1164
L206.0629 190.2116
" />
<path d="M206.0629 190.2116
L205.6820 190.2116
" />
<path d="M205.6820 190.2116
L205.5034 190.1164
" />
<path d="M205.5034 190.1164
L205.4200 190.0211
" />
<path d="M205.4200 190.0211
L205.3486 189.8306
" />
<path d="M205.3486 189.8306
L205.4200 189.2592
" />
<path d="M205.4200 189.2592
L205.5391 189.0687
" />
<path d="M205.5391 189.0687
L205.6462 188.9735
" />
<path d="M205.6462 188.9735
L205.8486 188.8783
" />
<path d="M205.8486 188.8783
L206.2296 188.8783
" />
<path d="M206.2296 188.8783
L206.4081 188.9735
" />
<path d="M207.9795 190.1164
L207.7772 190.2116
" />
<path d="M207.7772 190.2116
L207.3962 190.2116
" />
<path d="M207.3962 190.2116
L207.2176 190.1164
" />
<path d="M207.2176 190.1164
L207.1462 189.9259
" />
<path d="M207.1462 189.9259
L207.2415 189.1640
" />
<path d="M207.2415 189.1640
L207.3605 188.9735
" />
<path d="M207.3605 188.9735
L207.5629 188.8783
" />
<path d="M207.5629 188.8783
L207.9438 188.8783
" />
<path d="M207.9438 188.8783
L208.1224 188.9735
" />
<path d="M208.1224 188.9735
L208.1938 189.1640
" />
<path d="M208.1938 189.1640
L208.1700 189.3544
" />
<path d="M208.1700 189.3544
L207.1938 189.5449
" />
<path d="M208.9200 190.2116
L209.0867 188.8783
" />
<path d="M209.0391 189.2592
L209.1581 189.0687
" />
<path d="M209.1581 189.0687
L209.2653 188.9735
" />
<path d="M209.2653 188.9735
L209.4677 188.8783
" />
<path d="M209.4677 188.8783
L209.6581 188.8783
" />
</g></g>
<g style="fill:none; 
stroke:#840000; stroke-width:0.1524; stroke-opacity:1; 
stroke-linecap:round; stroke-linejoin:round;">
<text x="178.0022" y="186.4572"
textLength="23.2287" font-size="2.0000" lengthAdjust="spacingAndGlyphs"
text-anchor="start" opacity="0" stroke-opacity="0">File: _vdiv.kicad_sch</text>
<g class="stroked-text"><desc>File: _vdiv.kicad_sch</desc>
<path d="M178.9595 185.6074
L178.4595 185.6074
" />
<path d="M178.4595 186.3931
L178.4595 184.8931
" />
<path d="M178.4595 184.8931
L179.1738 184.8931
" />
<path d="M179.7452 186.3931
L179.7452 185.3931
" />
<path d="M179.7452 184.8931
L179.6738 184.9645
" />
<path d="M179.6738 184.9645
L179.7452 185.0359
" />
<path d="M179.7452 185.0359
L179.8166 184.9645
" />
<path d="M179.8166 184.9645
L179.7452 184.8931
" />
<path d="M179.7452 184.8931
L179.7452 185.0359
" />
<path d="M180.6738 186.3931
L180.5309 186.3217
" />
<path d="M180.5309 186.3217
L180.4595 186.1788
" />
<path d="M180.4595 186.1788
L180.4595 184.8931
" />
<path d="M181.8166 186.3217
L181.6738 186.3931
" />
<path d="M181.6738 186.3931
L181.3881 186.3931
" />
<path d="M181.3881 186.3931
L181.2452 186.3217
" />
<path d="M181.2452 186.3217
L181.1738 186.1788
" />
<path d="M181.1738 186.1788
L181.1738 185.6074
" />
<path d="M181.1738 185.6074
L181.2452 185.4645
" />
<path d="M181.2452 185.4645
L181.3881 185.3931
" />
<path d="M181.3881 185.3931
L181.6738 185.3931
" />
<path d="M181.6738 185.3931
L181.8166 185.4645
" />
<path d="M181.8166 185.4645
L181.8881 185.6074
" />
<path d="M181.8881 185.6074
L181.8881 185.7502
" />
<path d="M181.8881 185.7502
L181.1738 185.8931
" />
<path d="M182.5309 186.2502
L182.6023 186.3217
" />
<path d="M182.6023 186.3217
L182.5309 186.3931
" />
<path d="M182.5309 186.3931
L182.4595 186.3217
" />
<path d="M182.4595 186.3217
L182.5309 186.2502
" />
<path d="M182.5309 186.2502
L182.5309 186.3931
" />
<path d="M182.5309 185.4645
L182.6023 185.5359
" />
<path d="M182.6023 185.5359
L182.5309 185.6074
" />
<path d="M182.5309 185.6074
L182.4595 185.5359
" />
<path d="M182.4595 185.5359
L182.5309 185.4645
" />
<path d="M182.5309 185.4645
L182.5309 185.6074
" />
<path d="M184.0310 186.5359
L185.1738 186.5359
" />
<path d="M185.3881 185.3931
L185.7453 186.3931
" />
<path d="M185.7453 186.3931
L186.1024 185.3931
" />
<path d="M187.3168 186.3931
L187.3168 184.8931
" />
<path d="M187.3168 186.3217
L187.1739 186.3931
" />
<path d="M187.1739 186.3931
L186.8882 186.3931
" />
<path d="M186.8882 186.3931
L186.7453 186.3217
" />
<path d="M186.7453 186.3217
L186.6739 186.2502
" />
<path d="M186.6739 186.2502
L186.6025 186.1074
" />
<path d="M186.6025 186.1074
L186.6025 185.6788
" />
<path d="M186.6025 185.6788
L186.6739 185.5359
" />
<path d="M186.6739 185.5359
L186.7453 185.4645
" />
<path d="M186.7453 185.4645
L186.8882 185.3931
" />
<path d="M186.8882 185.3931
L187.1739 185.3931
" />
<path d="M187.1739 185.3931
L187.3168 185.4645
" />
<path d="M188.0310 186.3931
L188.0310 185.3931
" />
<path d="M188.0310 184.8931
L187.9596 184.9645
" />
<path d="M187.9596 184.9645
L188.0310 185.0359
" />
<path d="M188.0310 185.0359
L188.1024 184.9645
" />
<path d="M188.1024 184.9645
L188.0310 184.8931
" />
<path d="M188.0310 184.8931
L188.0310 185.0359
" />
<path d="M188.6024 185.3931
L188.9596 186.3931
" />
<path d="M188.9596 186.3931
L189.3167 185.3931
" />
<path d="M189.8882 186.2502
L189.9596 186.3217
" />
<path d="M189.9596 186.3217
L189.8882 186.3931
" />
<path d="M189.8882 186.3931
L189.8168 186.3217
" />
<path d="M189.8168 186.3217
L189.8882 186.2502
" />
<path d="M189.8882 186.2502
L189.8882 186.3931
" />
<path d="M190.6025 186.3931
L190.6025 184.8931
" />
<path d="M190.7454 185.8217
L191.1739 186.3931
" />
<path d="M191.1739 185.3931
L190.6025 185.9645
" />
<path d="M191.8168 186.3931
L191.8168 185.3931
" />
<path d="M191.8168 184.8931
L191.7454 184.9645
" />
<path d="M191.7454 184.9645
L191.8168 185.0359
" />
<path d="M191.8168 185.0359
L191.8882 184.9645
" />
<path d="M191.8882 184.9645
L191.8168 184.8931
" />
<path d="M191.8168 184.8931
L191.8168 185.0359
" />
<path d="M193.1740 186.3217
L193.0311 186.3931
" />
<path d="M193.0311 186.3931
L192.7454 186.3931
" />
<path d="M192.7454 186.3931
L192.6025 186.3217
" />
<path d="M192.6025 186.3217
L192.5311 186.2502
" />
<path d="M192.5311 186.2502
L192.4597 186.1074
" />
<path d="M192.4597 186.1074
L192.4597 185.6788
" />
<path d="M192.4597 185.6788
L192.5311 185.5359
" />
<path d="M192.5311 185.5359
L192.6025 185.4645
" />
<path d="M192.6025 185.4645
L192.7454 185.3931
" />
<path d="M192.7454 185.3931
L193.0311 185.3931
" />
<path d="M193.0311 185.3931
L193.1740 185.4645
" />
<path d="M194.4597 186.3931
L194.4597 185.6074
" />
<path d="M194.4597 185.6074
L194.3882 185.4645
" />
<path d="M194.3882 185.4645
L194.2454 185.3931
" />
<path d="M194.2454 185.3931
L193.9597 185.3931
" />
<path d="M193.9597 185.3931
L193.8168 185.4645
" />
<path d="M194.4597 186.3217
L194.3168 186.3931
" />
<path d="M194.3168 186.3931
L193.9597 186.3931
" />
<path d="M193.9597 186.3931
L193.8168 186.3217
" />
<path d="M193.8168 186.3217
L193.7454 186.1788
" />
<path d="M193.7454 186.1788
L193.7454 186.0359
" />
<path d="M193.7454 186.0359
L193.8168 185.8931
" />
<path d="M193.8168 185.8931
L193.9597 185.8217
" />
<path d="M193.9597 185.8217
L194.3168 185.8217
" />
<path d="M194.3168 185.8217
L194.4597 185.7502
" />
<path d="M195.8168 186.3931
L195.8168 184.8931
" />
<path d="M195.8168 186.3217
L195.6739 186.3931
" />
<path d="M195.6739 186.3931
L195.3882 186.3931
" />
<path d="M195.3882 186.3931
L195.2453 186.3217
" />
<path d="M195.2453 186.3217
L195.1739 186.2502
" />
<path d="M195.1739 186.2502
L195.1025 186.1074
" />
<path d="M195.1025 186.1074
L195.1025 185.6788
" />
<path d="M195.1025 185.6788
L195.1739 185.5359
" />
<path d="M195.1739 185.5359
L195.2453 185.4645
" />
<path d="M195.2453 185.4645
L195.3882 185.3931
" />
<path d="M195.3882 185.3931
L195.6739 185.3931
" />
<path d="M195.6739 185.3931
L195.8168 185.4645
" />
<path d="M196.1739 186.5359
L197.3167 186.5359
" />
<path d="M197.6025 186.3217
L197.7453 186.3931
" />
<path d="M197.7453 186.3931
L198.0310 186.3931
" />
<path d="M198.0310 186.3931
L198.1739 186.3217
" />
<path d="M198.1739 186.3217
L198.2453 186.1788
" />
<path d="M198.2453 186.1788
L198.2453 186.1074
" />
<path d="M198.2453 186.1074
L198.1739 185.9645
" />
<path d="M198.1739 185.9645
L198.0310 185.8931
" />
<path d="M198.0310 185.8931
L197.8168 185.8931
" />
<path d="M197.8168 185.8931
L197.6739 185.8217
" />
<path d="M197.6739 185.8217
L197.6025 185.6788
" />
<path d="M197.6025 185.6788
L197.6025 185.6074
" />
<path d="M197.6025 185.6074
L197.6739 185.4645
" />
<path d="M197.6739 185.4645
L197.8168 185.3931
" />
<path d="M197.8168 185.3931
L198.0310 185.3931
" />
<path d="M198.0310 185.3931
L198.1739 185.4645
" />
<path d="M199.5311 186.3217
L199.3882 186.3931
" />
<path d="M199.3882 186.3931
L199.1025 186.3931
" />
<path d="M199.1025 186.3931
L198.9596 186.3217
" />
<path d="M198.9596 186.3217
L198.8882 186.2502
" />
<path d="M198.8882 186.2502
L198.8168 186.1074
" />
<path d="M198.8168 186.1074
L198.8168 185.6788
" />
<path d="M198.8168 185.6788
L198.8882 185.5359
" />
<path d="M198.8882 185.5359
L198.9596 185.4645
" />
<path d="M198.9596 185.4645
L199.1025 185.3931
" />
<path d="M199.1025 185.3931
L199.3882 185.3931
" />
<path d="M199.3882 185.3931
L199.5311 185.4645
" />
<path d="M200.1739 186.3931
L200.1739 184.8931
" />
<path d="M200.8168 186.3931
L200.8168 185.6074
" />
<path d="M200.8168 185.6074
L200.7453 185.4645
" />
<path d="M200.7453 185.4645
L200.6025 185.3931
" />
<path d="M200.6025 185.3931
L200.3882 185.3931
" />
<path d="M200.3882 185.3931
L200.2453 185.4645
" />
<path d="M200.2453 185.4645
L200.1739 185.5359
" />
</g><path d="M177.0022 181.5072
L285.0022 181.5072
" />
<text x="178.0022" y="183.7572"
textLength="17.8714" font-size="2.0000" lengthAdjust="spacingAndGlyphs"
text-anchor="start" opacity="0" stroke-opacity="0">Sheet: /V-Div/</text>
<g class="stroked-text"><desc>Sheet: /V-Div/</desc>
<path d="M178.3881 183.6217
L178.6024 183.6931
" />
<path d="M178.6024 183.6931
L178.9595 183.6931
" />
<path d="M178.9595 183.6931
L179.1024 183.6217
" />
<path d="M179.1024 183.6217
L179.1738 183.5502
" />
<path d="M179.1738 183.5502
L179.2452 183.4074
" />
<path d="M179.2452 183.4074
L179.2452 183.2645
" />
<path d="M179.2452 183.2645
L179.1738 183.1217
" />
<path d="M179.1738 183.1217
L179.1024 183.0502
" />
<path d="M179.1024 183.0502
L178.9595 182.9788
" />
<path d="M178.9595 182.9788
L178.6738 182.9074
" />
<path d="M178.6738 182.9074
L178.5309 182.8359
" />
<path d="M178.5309 182.8359
L178.4595 182.7645
" />
<path d="M178.4595 182.7645
L178.3881 182.6217
" />
<path d="M178.3881 182.6217
L178.3881 182.4788
" />
<path d="M178.3881 182.4788
L178.4595 182.3359
" />
<path d="M178.4595 182.3359
L178.5309 182.2645
" />
<path d="M178.5309 182.2645
L178.6738 182.1931
" />
<path d="M178.6738 182.1931
L179.0309 182.1931
" />
<path d="M179.0309 182.1931
L179.2452 182.2645
" />
<path d="M179.8881 183.6931
L179.8881 182.1931
" />
<path d="M180.5310 183.6931
L180.5310 182.9074
" />
<path d="M180.5310 182.9074
L180.4595 182.7645
" />
<path d="M180.4595 182.7645
L180.3167 182.6931
" />
<path d="M180.3167 182.6931
L180.1024 182.6931
" />
<path d="M180.1024 182.6931
L179.9595 182.7645
" />
<path d="M179.9595 182.7645
L179.8881 182.8359
" />
<path d="M181.8166 183.6217
L181.6738 183.6931
" />
<path d="M181.6738 183.6931
L181.3881 183.6931
" />
<path d="M181.3881 183.6931
L181.2452 183.6217
" />
<path d="M181.2452 183.6217
L181.1738 183.4788
" />
<path d="M181.1738 183.4788
L181.1738 182.9074
" />
<path d="M181.1738 182.9074
L181.2452 182.7645
" />
<path d="M181.2452 182.7645
L181.3881 182.6931
" />
<path d="M181.3881 182.6931
L181.6738 182.6931
" />
<path d="M181.6738 182.6931
L181.8166 182.7645
" />
<path d="M181.8166 182.7645
L181.8881 182.9074
" />
<path d="M181.8881 182.9074
L181.8881 183.0502
" />
<path d="M181.8881 183.0502
L181.1738 183.1931
" />
<path d="M183.1023 183.6217
L182.9595 183.6931
" />
<path d="M182.9595 183.6931
L182.6738 183.6931
" />
<path d="M182.6738 183.6931
L182.5309 183.6217
" />
<path d="M182.5309 183.6217
L182.4595 183.4788
" />
<path d="M182.4595 183.4788
L182.4595 182.9074
" />
<path d="M182.4595 182.9074
L182.5309 182.7645
" />
<path d="M182.5309 182.7645
L182.6738 182.6931
" />
<path d="M182.6738 182.6931
L182.9595 182.6931
" />
<path d="M182.9595 182.6931
L183.1023 182.7645
" />
<path d="M183.1023 182.7645
L183.1738 182.9074
" />
<path d="M183.1738 182.9074
L183.1738 183.0502
" />
<path d="M183.1738 183.0502
L182.4595 183.1931
" />
<path d="M183.6023 182.6931
L184.1737 182.6931
" />
<path d="M183.8166 182.1931
L183.8166 183.4788
" />
<path d="M183.8166 183.4788
L183.8880 183.6217
" />
<path d="M183.8880 183.6217
L184.0309 183.6931
" />
<path d="M184.0309 183.6931
L184.1737 183.6931
" />
<path d="M184.6737 183.5502
L184.7451 183.6217
" />
<path d="M184.7451 183.6217
L184.6737 183.6931
" />
<path d="M184.6737 183.6931
L184.6023 183.6217
" />
<path d="M184.6023 183.6217
L184.6737 183.5502
" />
<path d="M184.6737 183.5502
L184.6737 183.6931
" />
<path d="M184.6737 182.7645
L184.7451 182.8359
" />
<path d="M184.7451 182.8359
L184.6737 182.9074
" />
<path d="M184.6737 182.9074
L184.6023 182.8359
" />
<path d="M184.6023 182.8359
L184.6737 182.7645
" />
<path d="M184.6737 182.7645
L184.6737 182.9074
" />
<path d="M187.6023 182.1217
L186.3166 184.0502
" />
<path d="M187.8880 182.1931
L188.3880 183.6931
" />
<path d="M188.3880 183.6931
L188.8880 182.1931
" />
<path d="M189.3880 183.1217
L190.5309 183.1217
" />
<path d="M191.2451 183.6931
L191.2451 182.1931
" />
<path d="M191.2451 182.1931
L191.6022 182.1931
" />
<path d="M191.6022 182.1931
L191.8165 182.2645
" />
<path d="M191.8165 182.2645
L191.9594 182.4074
" />
<path d="M191.9594 182.4074
L192.0308 182.5502
" />
<path d="M192.0308 182.5502
L192.1022 182.8359
" />
<path d="M192.1022 182.8359
L192.1022 183.0502
" />
<path d="M192.1022 183.0502
L192.0308 183.3359
" />
<path d="M192.0308 183.3359
L191.9594 183.4788
" />
<path d="M191.9594 183.4788
L191.8165 183.6217
" />
<path d="M191.8165 183.6217
L191.6022 183.6931
" />
<path d="M191.6022 183.6931
L191.2451 183.6931
" />
<path d="M192.7451 183.6931
L192.7451 182.6931
" />
<path d="M192.7451 182.1931
L192.6737 182.2645
" />
<path d="M192.6737 182.2645
L192.7451 182.3359
" />
<path d="M192.7451 182.3359
L192.8165 182.2645
" />
<path d="M192.8165 182.2645
L192.7451 182.1931
" />
<path d="M192.7451 182.1931
L192.7451 182.3359
" />
<path d="M193.3165 182.6931
L193.6737 183.6931
" />
<path d="M193.6737 183.6931
L194.0308 182.6931
" />
<path d="M195.6737 182.1217
L194.3880 184.0502
" />
</g></g>
<g style="fill:none; 
stroke:#840000; stroke-width:0.3000; stroke-opacity:1; 
stroke-linecap:round; stroke-linejoin:round;">
<text x="178.0022" y="180.7572"
textLength="0.9000" font-size="2.0000" lengthAdjust="spacingAndGlyphs"
text-anchor="start" opacity="0" stroke-opacity="0"></text>
<g class="stroked-text"><desc></desc>
</g></g>
<g style="fill:none; 
stroke:#840000; stroke-width:0.1524; stroke-opacity:1; 
stroke-linecap:round; stroke-linejoin:round;">
<text x="178.0022" y="177.7572"
textLength="49.5855" font-size="2.0000" lengthAdjust="spacingAndGlyphs"
text-anchor="start" opacity="0" stroke-opacity="0">divide supply voltage for use as ADC input</text>
<g class="stroked-text"><desc>divide supply voltage for use as ADC input</desc>
<path d="M179.1024 177.6931
L179.1024 176.1931
" />
<path d="M179.1024 177.6217
L178.9595 177.6931
" />
<path d="M178.9595 177.6931
L178.6738 177.6931
" />
<path d="M178.6738 177.6931
L178.5309 177.6217
" />
<path d="M178.5309 177.6217
L178.4595 177.5502
" />
<path d="M178.4595 177.5502
L178.3881 177.4074
" />
<path d="M178.3881 177.4074
L178.3881 176.9788
" />
<path d="M178.3881 176.9788
L178.4595 176.8359
" />
<path d="M178.4595 176.8359
L178.5309 176.7645
" />
<path d="M178.5309 176.7645
L178.6738 176.6931
" />
<path d="M178.6738 176.6931
L178.9595 176.6931
" />
<path d="M178.9595 176.6931
L179.1024 176.7645
" />
<path d="M179.8166 177.6931
L179.8166 176.6931
" />
<path d="M179.8166 176.1931
L179.7452 176.2645
" />
<path d="M179.7452 176.2645
L179.8166 176.3359
" />
<path d="M179.8166 176.3359
L179.8880 176.2645
" />
<path d="M179.8880 176.2645
L179.8166 176.1931
" />
<path d="M179.8166 176.1931
L179.8166 176.3359
" />
<path d="M180.3880 176.6931
L180.7452 177.6931
" />
<path d="M180.7452 177.6931
L181.1023 176.6931
" />
<path d="M181.6738 177.6931
L181.6738 176.6931
" />
<path d="M181.6738 176.1931
L181.6024 176.2645
" />
<path d="M181.6024 176.2645
L181.6738 176.3359
" />
<path d="M181.6738 176.3359
L181.7452 176.2645
" />
<path d="M181.7452 176.2645
L181.6738 176.1931
" />
<path d="M181.6738 176.1931
L181.6738 176.3359
" />
<path d="M183.0310 177.6931
L183.0310 176.1931
" />
<path d="M183.0310 177.6217
L182.8881 177.6931
" />
<path d="M182.8881 177.6931
L182.6024 177.6931
" />
<path d="M182.6024 177.6931
L182.4595 177.6217
" />
<path d="M182.4595 177.6217
L182.3881 177.5502
" />
<path d="M182.3881 177.5502
L182.3167 177.4074
" />
<path d="M182.3167 177.4074
L182.3167 176.9788
" />
<path d="M182.3167 176.9788
L182.3881 176.8359
" />
<path d="M182.3881 176.8359
L182.4595 176.7645
" />
<path d="M182.4595 176.7645
L182.6024 176.6931
" />
<path d="M182.6024 176.6931
L182.8881 176.6931
" />
<path d="M182.8881 176.6931
L183.0310 176.7645
" />
<path d="M184.3166 177.6217
L184.1738 177.6931
" />
<path d="M184.1738 177.6931
L183.8881 177.6931
" />
<path d="M183.8881 177.6931
L183.7452 177.6217
" />
<path d="M183.7452 177.6217
L183.6738 177.4788
" />
<path d="M183.6738 177.4788
L183.6738 176.9074
" />
<path d="M183.6738 176.9074
L183.7452 176.7645
" />
<path d="M183.7452 176.7645
L183.8881 176.6931
" />
<path d="M183.8881 176.6931
L184.1738 176.6931
" />
<path d="M184.1738 176.6931
L184.3166 176.7645
" />
<path d="M184.3166 176.7645
L184.3881 176.9074
" />
<path d="M184.3881 176.9074
L184.3881 177.0502
" />
<path d="M184.3881 177.0502
L183.6738 177.1931
" />
<path d="M186.1024 177.6217
L186.2452 177.6931
" />
<path d="M186.2452 177.6931
L186.5309 177.6931
" />
<path d="M186.5309 177.6931
L186.6738 177.6217
" />
<path d="M186.6738 177.6217
L186.7452 177.4788
" />
<path d="M186.7452 177.4788
L186.7452 177.4074
" />
<path d="M186.7452 177.4074
L186.6738 177.2645
" />
<path d="M186.6738 177.2645
L186.5309 177.1931
" />
<path d="M186.5309 177.1931
L186.3167 177.1931
" />
<path d="M186.3167 177.1931
L186.1738 177.1217
" />
<path d="M186.1738 177.1217
L186.1024 176.9788
" />
<path d="M186.1024 176.9788
L186.1024 176.9074
" />
<path d="M186.1024 176.9074
L186.1738 176.7645
" />
<path d="M186.1738 176.7645
L186.3167 176.6931
" />
<path d="M186.3167 176.6931
L186.5309 176.6931
" />
<path d="M186.5309 176.6931
L186.6738 176.7645
" />
<path d="M188.0310 176.6931
L188.0310 177.6931
" />
<path d="M187.3881 176.6931
L187.3881 177.4788
" />
<path d="M187.3881 177.4788
L187.4595 177.6217
" />
<path d="M187.4595 177.6217
L187.6024 177.6931
" />
<path d="M187.6024 177.6931
L187.8167 177.6931
" />
<path d="M187.8167 177.6931
L187.9595 177.6217
" />
<path d="M187.9595 177.6217
L188.0310 177.5502
" />
<path d="M188.7452 176.6931
L188.7452 178.1931
" />
<path d="M188.7452 176.7645
L188.8881 176.6931
" />
<path d="M188.8881 176.6931
L189.1738 176.6931
" />
<path d="M189.1738 176.6931
L189.3166 176.7645
" />
<path d="M189.3166 176.7645
L189.3881 176.8359
" />
<path d="M189.3881 176.8359
L189.4595 176.9788
" />
<path d="M189.4595 176.9788
L189.4595 177.4074
" />
<path d="M189.4595 177.4074
L189.3881 177.5502
" />
<path d="M189.3881 177.5502
L189.3166 177.6217
" />
<path d="M189.3166 177.6217
L189.1738 177.6931
" />
<path d="M189.1738 177.6931
L188.8881 177.6931
" />
<path d="M188.8881 177.6931
L188.7452 177.6217
" />
<path d="M190.1023 176.6931
L190.1023 178.1931
" />
<path d="M190.1023 176.7645
L190.2452 176.6931
" />
<path d="M190.2452 176.6931
L190.5309 176.6931
" />
<path d="M190.5309 176.6931
L190.6737 176.7645
" />
<path d="M190.6737 176.7645
L190.7452 176.8359
" />
<path d="M190.7452 176.8359
L190.8166 176.9788
" />
<path d="M190.8166 176.9788
L190.8166 177.4074
" />
<path d="M190.8166 177.4074
L190.7452 177.5502
" />
<path d="M190.7452 177.5502
L190.6737 177.6217
" />
<path d="M190.6737 177.6217
L190.5309 177.6931
" />
<path d="M190.5309 177.6931
L190.2452 177.6931
" />
<path d="M190.2452 177.6931
L190.1023 177.6217
" />
<path d="M191.6737 177.6931
L191.5308 177.6217
" />
<path d="M191.5308 177.6217
L191.4594 177.4788
" />
<path d="M191.4594 177.4788
L191.4594 176.1931
" />
<path d="M192.1022 176.6931
L192.4594 177.6931
" />
<path d="M192.8165 176.6931
L192.4594 177.6931
" />
<path d="M192.4594 177.6931
L192.3165 178.0502
" />
<path d="M192.3165 178.0502
L192.2451 178.1217
" />
<path d="M192.2451 178.1217
L192.1022 178.1931
" />
<path d="M194.3880 176.6931
L194.7452 177.6931
" />
<path d="M194.7452 177.6931
L195.1023 176.6931
" />
<path d="M195.8881 177.6931
L195.7452 177.6217
" />
<path d="M195.7452 177.6217
L195.6738 177.5502
" />
<path d="M195.6738 177.5502
L195.6024 177.4074
" />
<path d="M195.6024 177.4074
L195.6024 176.9788
" />
<path d="M195.6024 176.9788
L195.6738 176.8359
" />
<path d="M195.6738 176.8359
L195.7452 176.7645
" />
<path d="M195.7452 176.7645
L195.8881 176.6931
" />
<path d="M195.8881 176.6931
L196.1024 176.6931
" />
<path d="M196.1024 176.6931
L196.2452 176.7645
" />
<path d="M196.2452 176.7645
L196.3167 176.8359
" />
<path d="M196.3167 176.8359
L196.3881 176.9788
" />
<path d="M196.3881 176.9788
L196.3881 177.4074
" />
<path d="M196.3881 177.4074
L196.3167 177.5502
" />
<path d="M196.3167 177.5502
L196.2452 177.6217
" />
<path d="M196.2452 177.6217
L196.1024 177.6931
" />
<path d="M196.1024 177.6931
L195.8881 177.6931
" />
<path d="M197.2452 177.6931
L197.1023 177.6217
" />
<path d="M197.1023 177.6217
L197.0309 177.4788
" />
<path d="M197.0309 177.4788
L197.0309 176.1931
" />
<path d="M197.6023 176.6931
L198.1737 176.6931
" />
<path d="M197.8166 176.1931
L197.8166 177.4788
" />
<path d="M197.8166 177.4788
L197.8880 177.6217
" />
<path d="M197.8880 177.6217
L198.0309 177.6931
" />
<path d="M198.0309 177.6931
L198.1737 177.6931
" />
<path d="M199.3166 177.6931
L199.3166 176.9074
" />
<path d="M199.3166 176.9074
L199.2451 176.7645
" />
<path d="M199.2451 176.7645
L199.1023 176.6931
" />
<path d="M199.1023 176.6931
L198.8166 176.6931
" />
<path d="M198.8166 176.6931
L198.6737 176.7645
" />
<path d="M199.3166 177.6217
L199.1737 177.6931
" />
<path d="M199.1737 177.6931
L198.8166 177.6931
" />
<path d="M198.8166 177.6931
L198.6737 177.6217
" />
<path d="M198.6737 177.6217
L198.6023 177.4788
" />
<path d="M198.6023 177.4788
L198.6023 177.3359
" />
<path d="M198.6023 177.3359
L198.6737 177.1931
" />
<path d="M198.6737 177.1931
L198.8166 177.1217
" />
<path d="M198.8166 177.1217
L199.1737 177.1217
" />
<path d="M199.1737 177.1217
L199.3166 177.0502
" />
<path d="M200.6737 176.6931
L200.6737 177.9074
" />
<path d="M200.6737 177.9074
L200.6022 178.0502
" />
<path d="M200.6022 178.0502
L200.5308 178.1217
" />
<path d="M200.5308 178.1217
L200.3879 178.1931
" />
<path d="M200.3879 178.1931
L200.1737 178.1931
" />
<path d="M200.1737 178.1931
L200.0308 178.1217
" />
<path d="M200.6737 177.6217
L200.5308 177.6931
" />
<path d="M200.5308 177.6931
L200.2451 177.6931
" />
<path d="M200.2451 177.6931
L200.1022 177.6217
" />
<path d="M200.1022 177.6217
L200.0308 177.5502
" />
<path d="M200.0308 177.5502
L199.9594 177.4074
" />
<path d="M199.9594 177.4074
L199.9594 176.9788
" />
<path d="M199.9594 176.9788
L200.0308 176.8359
" />
<path d="M200.0308 176.8359
L200.1022 176.7645
" />
<path d="M200.1022 176.7645
L200.2451 176.6931
" />
<path d="M200.2451 176.6931
L200.5308 176.6931
" />
<path d="M200.5308 176.6931
L200.6737 176.7645
" />
<path d="M201.9593 177.6217
L201.8165 177.6931
" />
<path d="M201.8165 177.6931
L201.5308 177.6931
" />
<path d="M201.5308 177.6931
L201.3879 177.6217
" />
<path d="M201.3879 177.6217
L201.3165 177.4788
" />
<path d="M201.3165 177.4788
L201.3165 176.9074
" />
<path d="M201.3165 176.9074
L201.3879 176.7645
" />
<path d="M201.3879 176.7645
L201.5308 176.6931
" />
<path d="M201.5308 176.6931
L201.8165 176.6931
" />
<path d="M201.8165 176.6931
L201.9593 176.7645
" />
<path d="M201.9593 176.7645
L202.0308 176.9074
" />
<path d="M202.0308 176.9074
L202.0308 177.0502
" />
<path d="M202.0308 177.0502
L201.3165 177.1931
" />
<path d="M203.6022 176.6931
L204.1736 176.6931
" />
<path d="M203.8165 177.6931
L203.8165 176.4074
" />
<path d="M203.8165 176.4074
L203.8879 176.2645
" />
<path d="M203.8879 176.2645
L204.0308 176.1931
" />
<path d="M204.0308 176.1931
L204.1736 176.1931
" />
<path d="M204.8879 177.6931
L204.7450 177.6217
" />
<path d="M204.7450 177.6217
L204.6736 177.5502
" />
<path d="M204.6736 177.5502
L204.6022 177.4074
" />
<path d="M204.6022 177.4074
L204.6022 176.9788
" />
<path d="M204.6022 176.9788
L204.6736 176.8359
" />
<path d="M204.6736 176.8359
L204.7450 176.7645
" />
<path d="M204.7450 176.7645
L204.8879 176.6931
" />
<path d="M204.8879 176.6931
L205.1022 176.6931
" />
<path d="M205.1022 176.6931
L205.2450 176.7645
" />
<path d="M205.2450 176.7645
L205.3165 176.8359
" />
<path d="M205.3165 176.8359
L205.3879 176.9788
" />
<path d="M205.3879 176.9788
L205.3879 177.4074
" />
<path d="M205.3879 177.4074
L205.3165 177.5502
" />
<path d="M205.3165 177.5502
L205.2450 177.6217
" />
<path d="M205.2450 177.6217
L205.1022 177.6931
" />
<path d="M205.1022 177.6931
L204.8879 177.6931
" />
<path d="M206.0307 177.6931
L206.0307 176.6931
" />
<path d="M206.0307 176.9788
L206.1021 176.8359
" />
<path d="M206.1021 176.8359
L206.1736 176.7645
" />
<path d="M206.1736 176.7645
L206.3164 176.6931
" />
<path d="M206.3164 176.6931
L206.4593 176.6931
" />
<path d="M208.7451 176.6931
L208.7451 177.6931
" />
<path d="M208.1022 176.6931
L208.1022 177.4788
" />
<path d="M208.1022 177.4788
L208.1736 177.6217
" />
<path d="M208.1736 177.6217
L208.3165 177.6931
" />
<path d="M208.3165 177.6931
L208.5308 177.6931
" />
<path d="M208.5308 177.6931
L208.6736 177.6217
" />
<path d="M208.6736 177.6217
L208.7451 177.5502
" />
<path d="M209.3879 177.6217
L209.5307 177.6931
" />
<path d="M209.5307 177.6931
L209.8164 177.6931
" />
<path d="M209.8164 177.6931
L209.9593 177.6217
" />
<path d="M209.9593 177.6217
L210.0307 177.4788
" />
<path d="M210.0307 177.4788
L210.0307 177.4074
" />
<path d="M210.0307 177.4074
L209.9593 177.2645
" />
<path d="M209.9593 177.2645
L209.8164 177.1931
" />
<path d="M209.8164 177.1931
L209.6022 177.1931
" />
<path d="M209.6022 177.1931
L209.4593 177.1217
" />
<path d="M209.4593 177.1217
L209.3879 176.9788
" />
<path d="M209.3879 176.9788
L209.3879 176.9074
" />
<path d="M209.3879 176.9074
L209.4593 176.7645
" />
<path d="M209.4593 176.7645
L209.6022 176.6931
" />
<path d="M209.6022 176.6931
L209.8164 176.6931
" />
<path d="M209.8164 176.6931
L209.9593 176.7645
" />
<path d="M211.2450 177.6217
L211.1022 177.6931
" />
<path d="M211.1022 177.6931
L210.8165 177.6931
" />
<path d="M210.8165 177.6931
L210.6736 177.6217
" />
<path d="M210.6736 177.6217
L210.6022 177.4788
" />
<path d="M210.6022 177.4788
L210.6022 176.9074
" />
<path d="M210.6022 176.9074
L210.6736 176.7645
" />
<path d="M210.6736 176.7645
L210.8165 176.6931
" />
<path d="M210.8165 176.6931
L211.1022 176.6931
" />
<path d="M211.1022 176.6931
L211.2450 176.7645
" />
<path d="M211.2450 176.7645
L211.3165 176.9074
" />
<path d="M211.3165 176.9074
L211.3165 177.0502
" />
<path d="M211.3165 177.0502
L210.6022 177.1931
" />
<path d="M213.7451 177.6931
L213.7451 176.9074
" />
<path d="M213.7451 176.9074
L213.6736 176.7645
" />
<path d="M213.6736 176.7645
L213.5308 176.6931
" />
<path d="M213.5308 176.6931
L213.2451 176.6931
" />
<path d="M213.2451 176.6931
L213.1022 176.7645
" />
<path d="M213.7451 177.6217
L213.6022 177.6931
" />
<path d="M213.6022 177.6931
L213.2451 177.6931
" />
<path d="M213.2451 177.6931
L213.1022 177.6217
" />
<path d="M213.1022 177.6217
L213.0308 177.4788
" />
<path d="M213.0308 177.4788
L213.0308 177.3359
" />
<path d="M213.0308 177.3359
L213.1022 177.1931
" />
<path d="M213.1022 177.1931
L213.2451 177.1217
" />
<path d="M213.2451 177.1217
L213.6022 177.1217
" />
<path d="M213.6022 177.1217
L213.7451 177.0502
" />
<path d="M214.3879 177.6217
L214.5307 177.6931
" />
<path d="M214.5307 177.6931
L214.8164 177.6931
" />
<path d="M214.8164 177.6931
L214.9593 177.6217
" />
<path d="M214.9593 177.6217
L215.0307 177.4788
" />
<path d="M215.0307 177.4788
L215.0307 177.4074
" />
<path d="M215.0307 177.4074
L214.9593 177.2645
" />
<path d="M214.9593 177.2645
L214.8164 177.1931
" />
<path d="M214.8164 177.1931
L214.6022 177.1931
" />
<path d="M214.6022 177.1931
L214.4593 177.1217
" />
<path d="M214.4593 177.1217
L214.3879 176.9788
" />
<path d="M214.3879 176.9788
L214.3879 176.9074
" />
<path d="M214.3879 176.9074
L214.4593 176.7645
" />
<path d="M214.4593 176.7645
L214.6022 176.6931
" />
<path d="M214.6022 176.6931
L214.8164 176.6931
" />
<path d="M214.8164 176.6931
L214.9593 176.7645
" />
<path d="M216.7451 177.2645
L217.4594 177.2645
" />
<path d="M216.6022 177.6931
L217.1022 176.1931
" />
<path d="M217.1022 176.1931
L217.6022 177.6931
" />
<path d="M218.1022 177.6931
L218.1022 176.1931
" />
<path d="M218.1022 176.1931
L218.4593 176.1931
" />
<path d="M218.4593 176.1931
L218.6736 176.2645
" />
<path d="M218.6736 176.2645
L218.8165 176.4074
" />
<path d="M218.8165 176.4074
L218.8879 176.5502
" />
<path d="M218.8879 176.5502
L218.9593 176.8359
" />
<path d="M218.9593 176.8359
L218.9593 177.0502
" />
<path d="M218.9593 177.0502
L218.8879 177.3359
" />
<path d="M218.8879 177.3359
L218.8165 177.4788
" />
<path d="M218.8165 177.4788
L218.6736 177.6217
" />
<path d="M218.6736 177.6217
L218.4593 177.6931
" />
<path d="M218.4593 177.6931
L218.1022 177.6931
" />
<path d="M220.4593 177.5502
L220.3879 177.6217
" />
<path d="M220.3879 177.6217
L220.1736 177.6931
" />
<path d="M220.1736 177.6931
L220.0308 177.6931
" />
<path d="M220.0308 177.6931
L219.8165 177.6217
" />
<path d="M219.8165 177.6217
L219.6736 177.4788
" />
<path d="M219.6736 177.4788
L219.6022 177.3359
" />
<path d="M219.6022 177.3359
L219.5308 177.0502
" />
<path d="M219.5308 177.0502
L219.5308 176.8359
" />
<path d="M219.5308 176.8359
L219.6022 176.5502
" />
<path d="M219.6022 176.5502
L219.6736 176.4074
" />
<path d="M219.6736 176.4074
L219.8165 176.2645
" />
<path d="M219.8165 176.2645
L220.0308 176.1931
" />
<path d="M220.0308 176.1931
L220.1736 176.1931
" />
<path d="M220.1736 176.1931
L220.3879 176.2645
" />
<path d="M220.3879 176.2645
L220.4593 176.3359
" />
<path d="M222.2451 177.6931
L222.2451 176.6931
" />
<path d="M222.2451 176.1931
L222.1737 176.2645
" />
<path d="M222.1737 176.2645
L222.2451 176.3359
" />
<path d="M222.2451 176.3359
L222.3165 176.2645
" />
<path d="M222.3165 176.2645
L222.2451 176.1931
" />
<path d="M222.2451 176.1931
L222.2451 176.3359
" />
<path d="M222.9594 176.6931
L222.9594 177.6931
" />
<path d="M222.9594 176.8359
L223.0308 176.7645
" />
<path d="M223.0308 176.7645
L223.1737 176.6931
" />
<path d="M223.1737 176.6931
L223.3880 176.6931
" />
<path d="M223.3880 176.6931
L223.5308 176.7645
" />
<path d="M223.5308 176.7645
L223.6023 176.9074
" />
<path d="M223.6023 176.9074
L223.6023 177.6931
" />
<path d="M224.3165 176.6931
L224.3165 178.1931
" />
<path d="M224.3165 176.7645
L224.4594 176.6931
" />
<path d="M224.4594 176.6931
L224.7451 176.6931
" />
<path d="M224.7451 176.6931
L224.8879 176.7645
" />
<path d="M224.8879 176.7645
L224.9594 176.8359
" />
<path d="M224.9594 176.8359
L225.0308 176.9788
" />
<path d="M225.0308 176.9788
L225.0308 177.4074
" />
<path d="M225.0308 177.4074
L224.9594 177.5502
" />
<path d="M224.9594 177.5502
L224.8879 177.6217
" />
<path d="M224.8879 177.6217
L224.7451 177.6931
" />
<path d="M224.7451 177.6931
L224.4594 177.6931
" />
<path d="M224.4594 177.6931
L224.3165 177.6217
" />
<path d="M226.3165 176.6931
L226.3165 177.6931
" />
<path d="M225.6736 176.6931
L225.6736 177.4788
" />
<path d="M225.6736 177.4788
L225.7450 177.6217
" />
<path d="M225.7450 177.6217
L225.8879 177.6931
" />
<path d="M225.8879 177.6931
L226.1022 177.6931
" />
<path d="M226.1022 177.6931
L226.2450 177.6217
" />
<path d="M226.2450 177.6217
L226.3165 177.5502
" />
<path d="M226.8164 176.6931
L227.3878 176.6931
" />
<path d="M227.0307 176.1931
L227.0307 177.4788
" />
<path d="M227.0307 177.4788
L227.1021 177.6217
" />
<path d="M227.1021 177.6217
L227.2450 177.6931
" />
<path d="M227.2450 177.6931
L227.3878 177.6931
" />
</g><text x="178.0022" y="174.7572"
textLength="0.4572" font-size="2.0000" lengthAdjust="spacingAndGlyphs"
text-anchor="start" opacity="0" stroke-opacity="0"></text>
<g class="stroked-text"><desc></desc>
</g><text x="178.0022" y="171.7572"
textLength="0.4572" font-size="2.0000" lengthAdjust="spacingAndGlyphs"
text-anchor="start" opacity="0" stroke-opacity="0"></text>
<g class="stroked-text"><desc></desc>
</g><text x="178.0022" y="168.7572"
textLength="0.4572" font-size="2.0000" lengthAdjust="spacingAndGlyphs"
text-anchor="start" opacity="0" stroke-opacity="0"></text>
<g class="stroked-text"><desc></desc>
</g><path d="M197.0022 191.5072
L197.0022 194.5072
" />
<path d="M261.0022 191.5072
L261.0022 198.0072
" />
<path style="fill:none; 
stroke:#840000; stroke-width:0.1524; stroke-opacity:1; 
stroke-linecap:round; stroke-linejoin:round;fill:none"
d="M 140.9700,107.9500
140.9700,109.2200
142.2400,109.2200
140.9700,110.4900
139.7000,109.2200
140.9700,109.2200
" /> 
</g>
<g style="fill:none; 
stroke:#840000; stroke-width:0.1524; stroke-opacity:1; 
stroke-linecap:round; stroke-linejoin:round;">
<path d="M140.9700 107.9500
L140.9700 107.9500
" />
</g>
<g style="fill:none; 
stroke:#006464; stroke-width:0.1524; stroke-opacity:1; 
stroke-linecap:round; stroke-linejoin:round;">
<text x="141.0843" y="112.9094"
textLength="4.0737" font-size="1.6933" lengthAdjust="spacingAndGlyphs"
text-anchor="middle" opacity="0" stroke-opacity="0">GND</text>
<g class="stroked-text"><desc>GND</desc>
<path d="M140.1167 111.6444
L139.9957 111.5839
" />
<path d="M139.9957 111.5839
L139.8143 111.5839
" />
<path d="M139.8143 111.5839
L139.6329 111.6444
" />
<path d="M139.6329 111.6444
L139.5119 111.7654
" />
<path d="M139.5119 111.7654
L139.4514 111.8863
" />
<path d="M139.4514 111.8863
L139.3910 112.1282
" />
<path d="M139.3910 112.1282
L139.3910 112.3096
" />
<path d="M139.3910 112.3096
L139.4514 112.5515
" />
<path d="M139.4514 112.5515
L139.5119 112.6725
" />
<path d="M139.5119 112.6725
L139.6329 112.7935
" />
<path d="M139.6329 112.7935
L139.8143 112.8539
" />
<path d="M139.8143 112.8539
L139.9352 112.8539
" />
<path d="M139.9352 112.8539
L140.1167 112.7935
" />
<path d="M140.1167 112.7935
L140.1771 112.7330
" />
<path d="M140.1771 112.7330
L140.1771 112.3096
" />
<path d="M140.1771 112.3096
L139.9352 112.3096
" />
<path d="M140.7214 112.8539
L140.7214 111.5839
" />
<path d="M140.7214 111.5839
L141.4471 112.8539
" />
<path d="M141.4471 112.8539
L141.4471 111.5839
" />
<path d="M142.0519 112.8539
L142.0519 111.5839
" />
<path d="M142.0519 111.5839
L142.3543 111.5839
" />
<path d="M142.3543 111.5839
L142.5357 111.6444
" />
<path d="M142.5357 111.6444
L142.6567 111.7654
" />
<path d="M142.6567 111.7654
L142.7172 111.8863
" />
<path d="M142.7172 111.8863
L142.7776 112.1282
" />
<path d="M142.7776 112.1282
L142.7776 112.3096
" />
<path d="M142.7776 112.3096
L142.7172 112.5515
" />
<path d="M142.7172 112.5515
L142.6567 112.6725
" />
<path d="M142.6567 112.6725
L142.5357 112.7935
" />
<path d="M142.5357 112.7935
L142.3543 112.8539
" />
<path d="M142.3543 112.8539
L142.0519 112.8539
" />
</g></g>
<g style="fill:none; 
stroke:#840000; stroke-width:0.2540; stroke-opacity:1; 
stroke-linecap:round; stroke-linejoin:round;">
<rect x="139.954000" y="80.010000" width="2.032000" height="5.080000" rx="0.000000" />
</g>
<g style="fill:none; 
stroke:#840000; stroke-width:0.1524; stroke-opacity:1; 
stroke-linecap:round; stroke-linejoin:round;">
<path d="M140.9700 80.0100
L140.9700 78.7400
" />
<path d="M140.9700 85.0900
L140.9700 86.3600
" />
</g>
<g style="fill:none; 
stroke:#006464; stroke-width:0.1524; stroke-opacity:1; 
stroke-linecap:round; stroke-linejoin:round;">
<text x="144.8609" y="81.9149"
textLength="2.6827" font-size="1.6933" lengthAdjust="spacingAndGlyphs"
text-anchor="middle" opacity="0" stroke-opacity="0">R8</text>
<g class="stroked-text"><desc>R8</desc>
<path d="M144.6492 81.8594
L144.2259 81.2547
" />
<path d="M143.9235 81.8594
L143.9235 80.5894
" />
<path d="M143.9235 80.5894
L144.4073 80.5894
" />
<path d="M144.4073 80.5894
L144.5283 80.6499
" />
<path d="M144.5283 80.6499
L144.5888 80.7104
" />
<path d="M144.5888 80.7104
L144.6492 80.8313
" />
<path d="M144.6492 80.8313
L144.6492 81.0128
" />
<path d="M144.6492 81.0128
L144.5888 81.1337
" />
<path d="M144.5888 81.1337
L144.5283 81.1942
" />
<path d="M144.5283 81.1942
L144.4073 81.2547
" />
<path d="M144.4073 81.2547
L143.9235 81.2547
" />
<path d="M145.3750 81.1337
L145.2540 81.0732
" />
<path d="M145.2540 81.0732
L145.1935 81.0128
" />
<path d="M145.1935 81.0128
L145.1331 80.8918
" />
<path d="M145.1331 80.8918
L145.1331 80.8313
" />
<path d="M145.1331 80.8313
L145.1935 80.7104
" />
<path d="M145.1935 80.7104
L145.2540 80.6499
" />
<path d="M145.2540 80.6499
L145.3750 80.5894
" />
<path d="M145.3750 80.5894
L145.6169 80.5894
" />
<path d="M145.6169 80.5894
L145.7378 80.6499
" />
<path d="M145.7378 80.6499
L145.7983 80.7104
" />
<path d="M145.7983 80.7104
L145.8588 80.8313
" />
<path d="M145.8588 80.8313
L145.8588 80.8918
" />
<path d="M145.8588 80.8918
L145.7983 81.0128
" />
<path d="M145.7983 81.0128
L145.7378 81.0732
" />
<path d="M145.7378 81.0732
L145.6169 81.1337
" />
<path d="M145.6169 81.1337
L145.3750 81.1337
" />
<path d="M145.3750 81.1337
L145.2540 81.1942
" />
<path d="M145.2540 81.1942
L145.1935 81.2547
" />
<path d="M145.1935 81.2547
L145.1331 81.3756
" />
<path d="M145.1331 81.3756
L145.1331 81.6175
" />
<path d="M145.1331 81.6175
L145.1935 81.7385
" />
<path d="M145.1935 81.7385
L145.2540 81.7990
" />
<path d="M145.2540 81.7990
L145.3750 81.8594
" />
<path d="M145.3750 81.8594
L145.6169 81.8594
" />
<path d="M145.6169 81.8594
L145.7378 81.7990
" />
<path d="M145.7378 81.7990
L145.7983 81.7385
" />
<path d="M145.7983 81.7385
L145.8588 81.6175
" />
<path d="M145.8588 81.6175
L145.8588 81.3756
" />
<path d="M145.8588 81.3756
L145.7983 81.2547
" />
<path d="M145.7983 81.2547
L145.7378 81.1942
" />
<path d="M145.7378 81.1942
L145.6169 81.1337
" />
</g><text x="152.8437" y="84.4549"
textLength="18.6483" font-size="1.6933" lengthAdjust="spacingAndGlyphs"
text-anchor="middle" opacity="0" stroke-opacity="0">4.7KΩ (4701) ±1%</text>
<g class="stroked-text"><desc>4.7KΩ (4701) ±1%</desc>
<path d="M144.4678 83.5528
L144.4678 84.3994
" />
<path d="M144.1654 83.0690
L143.8631 83.9761
" />
<path d="M143.8631 83.9761
L144.6492 83.9761
" />
<path d="M145.1330 84.2785
L145.1935 84.3390
" />
<path d="M145.1935 84.3390
L145.1330 84.3994
" />
<path d="M145.1330 84.3994
L145.0726 84.3390
" />
<path d="M145.0726 84.3390
L145.1330 84.2785
" />
<path d="M145.1330 84.2785
L145.1330 84.3994
" />
<path d="M145.6169 83.1294
L146.4635 83.1294
" />
<path d="M146.4635 83.1294
L145.9193 84.3994
" />
<path d="M146.9473 84.3994
L146.9473 83.1294
" />
<path d="M147.6730 84.3994
L147.1288 83.6737
" />
<path d="M147.6730 83.1294
L146.9473 83.8551
" />
<path d="M148.1569 84.3994
L148.4592 84.3994
" />
<path d="M148.4592 84.3994
L148.4592 84.1575
" />
<path d="M148.4592 84.1575
L148.3383 84.0970
" />
<path d="M148.3383 84.0970
L148.2173 83.9761
" />
<path d="M148.2173 83.9761
L148.1569 83.7947
" />
<path d="M148.1569 83.7947
L148.1569 83.4923
" />
<path d="M148.1569 83.4923
L148.2173 83.3109
" />
<path d="M148.2173 83.3109
L148.3383 83.1899
" />
<path d="M148.3383 83.1899
L148.5197 83.1294
" />
<path d="M148.5197 83.1294
L148.7616 83.1294
" />
<path d="M148.7616 83.1294
L148.9430 83.1899
" />
<path d="M148.9430 83.1899
L149.0640 83.3109
" />
<path d="M149.0640 83.3109
L149.1245 83.4923
" />
<path d="M149.1245 83.4923
L149.1245 83.7947
" />
<path d="M149.1245 83.7947
L149.0640 83.9761
" />
<path d="M149.0640 83.9761
L148.9430 84.0970
" />
<path d="M148.9430 84.0970
L148.8221 84.1575
" />
<path d="M148.8221 84.1575
L148.8221 84.3994
" />
<path d="M148.8221 84.3994
L149.1245 84.3994
" />
<path d="M150.9992 84.8832
L150.9387 84.8228
" />
<path d="M150.9387 84.8228
L150.8178 84.6413
" />
<path d="M150.8178 84.6413
L150.7573 84.5204
" />
<path d="M150.7573 84.5204
L150.6968 84.3390
" />
<path d="M150.6968 84.3390
L150.6363 84.0366
" />
<path d="M150.6363 84.0366
L150.6363 83.7947
" />
<path d="M150.6363 83.7947
L150.6968 83.4923
" />
<path d="M150.6968 83.4923
L150.7573 83.3109
" />
<path d="M150.7573 83.3109
L150.8178 83.1899
" />
<path d="M150.8178 83.1899
L150.9387 83.0085
" />
<path d="M150.9387 83.0085
L150.9992 82.9480
" />
<path d="M152.0273 83.5528
L152.0273 84.3994
" />
<path d="M151.7249 83.0690
L151.4226 83.9761
" />
<path d="M151.4226 83.9761
L152.2087 83.9761
" />
<path d="M152.5716 83.1294
L153.4182 83.1294
" />
<path d="M153.4182 83.1294
L152.8740 84.3994
" />
<path d="M154.1439 83.1294
L154.2649 83.1294
" />
<path d="M154.2649 83.1294
L154.3858 83.1899
" />
<path d="M154.3858 83.1899
L154.4463 83.2504
" />
<path d="M154.4463 83.2504
L154.5068 83.3713
" />
<path d="M154.5068 83.3713
L154.5673 83.6132
" />
<path d="M154.5673 83.6132
L154.5673 83.9156
" />
<path d="M154.5673 83.9156
L154.5068 84.1575
" />
<path d="M154.5068 84.1575
L154.4463 84.2785
" />
<path d="M154.4463 84.2785
L154.3858 84.3390
" />
<path d="M154.3858 84.3390
L154.2649 84.3994
" />
<path d="M154.2649 84.3994
L154.1439 84.3994
" />
<path d="M154.1439 84.3994
L154.0230 84.3390
" />
<path d="M154.0230 84.3390
L153.9625 84.2785
" />
<path d="M153.9625 84.2785
L153.9020 84.1575
" />
<path d="M153.9020 84.1575
L153.8416 83.9156
" />
<path d="M153.8416 83.9156
L153.8416 83.6132
" />
<path d="M153.8416 83.6132
L153.9020 83.3713
" />
<path d="M153.9020 83.3713
L153.9625 83.2504
" />
<path d="M153.9625 83.2504
L154.0230 83.1899
" />
<path d="M154.0230 83.1899
L154.1439 83.1294
" />
<path d="M155.7768 84.3994
L155.0511 84.3994
" />
<path d="M155.4139 84.3994
L155.4139 83.1294
" />
<path d="M155.4139 83.1294
L155.2930 83.3109
" />
<path d="M155.2930 83.3109
L155.1720 83.4318
" />
<path d="M155.1720 83.4318
L155.0511 83.4923
" />
<path d="M156.2001 84.8832
L156.2606 84.8228
" />
<path d="M156.2606 84.8228
L156.3815 84.6413
" />
<path d="M156.3815 84.6413
L156.4420 84.5204
" />
<path d="M156.4420 84.5204
L156.5025 84.3390
" />
<path d="M156.5025 84.3390
L156.5629 84.0366
" />
<path d="M156.5629 84.0366
L156.5629 83.7947
" />
<path d="M156.5629 83.7947
L156.5025 83.4923
" />
<path d="M156.5025 83.4923
L156.4420 83.3109
" />
<path d="M156.4420 83.3109
L156.3815 83.1899
" />
<path d="M156.3815 83.1899
L156.2606 83.0085
" />
<path d="M156.2606 83.0085
L156.2001 82.9480
" />
<path d="M158.1353 83.6737
L159.1030 83.6737
" />
<path d="M158.6191 84.1575
L158.6191 83.1899
" />
<path d="M159.1030 84.3994
L158.1353 84.3994
" />
<path d="M160.3730 84.3994
L159.6473 84.3994
" />
<path d="M160.0101 84.3994
L160.0101 83.1294
" />
<path d="M160.0101 83.1294
L159.8892 83.3109
" />
<path d="M159.8892 83.3109
L159.7682 83.4318
" />
<path d="M159.7682 83.4318
L159.6473 83.4923
" />
<path d="M160.8568 84.3994
L161.8244 83.1294
" />
<path d="M161.0382 83.1294
L161.1591 83.1899
" />
<path d="M161.1591 83.1899
L161.2196 83.3109
" />
<path d="M161.2196 83.3109
L161.1591 83.4318
" />
<path d="M161.1591 83.4318
L161.0382 83.4923
" />
<path d="M161.0382 83.4923
L160.9172 83.4318
" />
<path d="M160.9172 83.4318
L160.8568 83.3109
" />
<path d="M160.8568 83.3109
L160.9172 83.1899
" />
<path d="M160.9172 83.1899
L161.0382 83.1294
" />
<path d="M161.7639 84.3390
L161.8244 84.2180
" />
<path d="M161.8244 84.2180
L161.7639 84.0970
" />
<path d="M161.7639 84.0970
L161.6429 84.0366
" />
<path d="M161.6429 84.0366
L161.5220 84.0970
" />
<path d="M161.5220 84.0970
L161.4615 84.2180
" />
<path d="M161.4615 84.2180
L161.5220 84.3390
" />
<path d="M161.5220 84.3390
L161.6429 84.3994
" />
<path d="M161.6429 84.3994
L161.7639 84.3390
" />
</g></g>
<g style="fill:none; 
stroke:#840000; stroke-width:0.2540; stroke-opacity:1; 
stroke-linecap:round; stroke-linejoin:round;">
<rect x="139.954000" y="95.250000" width="2.032000" height="5.080000" rx="0.000000" />
</g>
<g style="fill:none; 
stroke:#840000; stroke-width:0.1524; stroke-opacity:1; 
stroke-linecap:round; stroke-linejoin:round;">
<path d="M140.9700 95.2500
L140.9700 93.9800
" />
<path d="M140.9700 100.3300
L140.9700 101.6000
" />
</g>
<g style="fill:none; 
stroke:#006464; stroke-width:0.1524; stroke-opacity:1; 
stroke-linecap:round; stroke-linejoin:round;">
<text x="144.8609" y="97.1549"
textLength="2.6827" font-size="1.6933" lengthAdjust="spacingAndGlyphs"
text-anchor="middle" opacity="0" stroke-opacity="0">R7</text>
<g class="stroked-text"><desc>R7</desc>
<path d="M144.6492 97.0994
L144.2259 96.4947
" />
<path d="M143.9235 97.0994
L143.9235 95.8294
" />
<path d="M143.9235 95.8294
L144.4073 95.8294
" />
<path d="M144.4073 95.8294
L144.5283 95.8899
" />
<path d="M144.5283 95.8899
L144.5888 95.9504
" />
<path d="M144.5888 95.9504
L144.6492 96.0713
" />
<path d="M144.6492 96.0713
L144.6492 96.2528
" />
<path d="M144.6492 96.2528
L144.5888 96.3737
" />
<path d="M144.5888 96.3737
L144.5283 96.4342
" />
<path d="M144.5283 96.4342
L144.4073 96.4947
" />
<path d="M144.4073 96.4947
L143.9235 96.4947
" />
<path d="M145.0726 95.8294
L145.9192 95.8294
" />
<path d="M145.9192 95.8294
L145.3750 97.0994
" />
</g><text x="151.9366" y="99.6949"
textLength="16.8340" font-size="1.6933" lengthAdjust="spacingAndGlyphs"
text-anchor="middle" opacity="0" stroke-opacity="0">1KΩ (1001) ±1%</text>
<g class="stroked-text"><desc>1KΩ (1001) ±1%</desc>
<path d="M144.5888 99.6394
L143.8631 99.6394
" />
<path d="M144.2259 99.6394
L144.2259 98.3694
" />
<path d="M144.2259 98.3694
L144.1050 98.5509
" />
<path d="M144.1050 98.5509
L143.9840 98.6718
" />
<path d="M143.9840 98.6718
L143.8631 98.7323
" />
<path d="M145.1330 99.6394
L145.1330 98.3694
" />
<path d="M145.8587 99.6394
L145.3145 98.9137
" />
<path d="M145.8587 98.3694
L145.1330 99.0951
" />
<path d="M146.3426 99.6394
L146.6449 99.6394
" />
<path d="M146.6449 99.6394
L146.6449 99.3975
" />
<path d="M146.6449 99.3975
L146.5240 99.3370
" />
<path d="M146.5240 99.3370
L146.4030 99.2161
" />
<path d="M146.4030 99.2161
L146.3426 99.0347
" />
<path d="M146.3426 99.0347
L146.3426 98.7323
" />
<path d="M146.3426 98.7323
L146.4030 98.5509
" />
<path d="M146.4030 98.5509
L146.5240 98.4299
" />
<path d="M146.5240 98.4299
L146.7054 98.3694
" />
<path d="M146.7054 98.3694
L146.9473 98.3694
" />
<path d="M146.9473 98.3694
L147.1287 98.4299
" />
<path d="M147.1287 98.4299
L147.2497 98.5509
" />
<path d="M147.2497 98.5509
L147.3102 98.7323
" />
<path d="M147.3102 98.7323
L147.3102 99.0347
" />
<path d="M147.3102 99.0347
L147.2497 99.2161
" />
<path d="M147.2497 99.2161
L147.1287 99.3370
" />
<path d="M147.1287 99.3370
L147.0078 99.3975
" />
<path d="M147.0078 99.3975
L147.0078 99.6394
" />
<path d="M147.0078 99.6394
L147.3102 99.6394
" />
<path d="M149.1849 100.1232
L149.1244 100.0628
" />
<path d="M149.1244 100.0628
L149.0035 99.8813
" />
<path d="M149.0035 99.8813
L148.9430 99.7604
" />
<path d="M148.9430 99.7604
L148.8825 99.5790
" />
<path d="M148.8825 99.5790
L148.8220 99.2766
" />
<path d="M148.8220 99.2766
L148.8220 99.0347
" />
<path d="M148.8220 99.0347
L148.8825 98.7323
" />
<path d="M148.8825 98.7323
L148.9430 98.5509
" />
<path d="M148.9430 98.5509
L149.0035 98.4299
" />
<path d="M149.0035 98.4299
L149.1244 98.2485
" />
<path d="M149.1244 98.2485
L149.1849 98.1880
" />
<path d="M150.3340 99.6394
L149.6083 99.6394
" />
<path d="M149.9711 99.6394
L149.9711 98.3694
" />
<path d="M149.9711 98.3694
L149.8502 98.5509
" />
<path d="M149.8502 98.5509
L149.7292 98.6718
" />
<path d="M149.7292 98.6718
L149.6083 98.7323
" />
<path d="M151.1201 98.3694
L151.2411 98.3694
" />
<path d="M151.2411 98.3694
L151.3620 98.4299
" />
<path d="M151.3620 98.4299
L151.4225 98.4904
" />
<path d="M151.4225 98.4904
L151.4830 98.6113
" />
<path d="M151.4830 98.6113
L151.5435 98.8532
" />
<path d="M151.5435 98.8532
L151.5435 99.1556
" />
<path d="M151.5435 99.1556
L151.4830 99.3975
" />
<path d="M151.4830 99.3975
L151.4225 99.5185
" />
<path d="M151.4225 99.5185
L151.3620 99.5790
" />
<path d="M151.3620 99.5790
L151.2411 99.6394
" />
<path d="M151.2411 99.6394
L151.1201 99.6394
" />
<path d="M151.1201 99.6394
L150.9992 99.5790
" />
<path d="M150.9992 99.5790
L150.9387 99.5185
" />
<path d="M150.9387 99.5185
L150.8782 99.3975
" />
<path d="M150.8782 99.3975
L150.8178 99.1556
" />
<path d="M150.8178 99.1556
L150.8178 98.8532
" />
<path d="M150.8178 98.8532
L150.8782 98.6113
" />
<path d="M150.8782 98.6113
L150.9387 98.4904
" />
<path d="M150.9387 98.4904
L150.9992 98.4299
" />
<path d="M150.9992 98.4299
L151.1201 98.3694
" />
<path d="M152.3296 98.3694
L152.4506 98.3694
" />
<path d="M152.4506 98.3694
L152.5715 98.4299
" />
<path d="M152.5715 98.4299
L152.6320 98.4904
" />
<path d="M152.6320 98.4904
L152.6925 98.6113
" />
<path d="M152.6925 98.6113
L152.7530 98.8532
" />
<path d="M152.7530 98.8532
L152.7530 99.1556
" />
<path d="M152.7530 99.1556
L152.6925 99.3975
" />
<path d="M152.6925 99.3975
L152.6320 99.5185
" />
<path d="M152.6320 99.5185
L152.5715 99.5790
" />
<path d="M152.5715 99.5790
L152.4506 99.6394
" />
<path d="M152.4506 99.6394
L152.3296 99.6394
" />
<path d="M152.3296 99.6394
L152.2087 99.5790
" />
<path d="M152.2087 99.5790
L152.1482 99.5185
" />
<path d="M152.1482 99.5185
L152.0877 99.3975
" />
<path d="M152.0877 99.3975
L152.0273 99.1556
" />
<path d="M152.0273 99.1556
L152.0273 98.8532
" />
<path d="M152.0273 98.8532
L152.0877 98.6113
" />
<path d="M152.0877 98.6113
L152.1482 98.4904
" />
<path d="M152.1482 98.4904
L152.2087 98.4299
" />
<path d="M152.2087 98.4299
L152.3296 98.3694
" />
<path d="M153.9625 99.6394
L153.2368 99.6394
" />
<path d="M153.5996 99.6394
L153.5996 98.3694
" />
<path d="M153.5996 98.3694
L153.4787 98.5509
" />
<path d="M153.4787 98.5509
L153.3577 98.6718
" />
<path d="M153.3577 98.6718
L153.2368 98.7323
" />
<path d="M154.3858 100.1232
L154.4463 100.0628
" />
<path d="M154.4463 100.0628
L154.5672 99.8813
" />
<path d="M154.5672 99.8813
L154.6277 99.7604
" />
<path d="M154.6277 99.7604
L154.6882 99.5790
" />
<path d="M154.6882 99.5790
L154.7486 99.2766
" />
<path d="M154.7486 99.2766
L154.7486 99.0347
" />
<path d="M154.7486 99.0347
L154.6882 98.7323
" />
<path d="M154.6882 98.7323
L154.6277 98.5509
" />
<path d="M154.6277 98.5509
L154.5672 98.4299
" />
<path d="M154.5672 98.4299
L154.4463 98.2485
" />
<path d="M154.4463 98.2485
L154.3858 98.1880
" />
<path d="M156.3210 98.9137
L157.2887 98.9137
" />
<path d="M156.8048 99.3975
L156.8048 98.4299
" />
<path d="M157.2887 99.6394
L156.3210 99.6394
" />
<path d="M158.5587 99.6394
L157.8330 99.6394
" />
<path d="M158.1958 99.6394
L158.1958 98.3694
" />
<path d="M158.1958 98.3694
L158.0749 98.5509
" />
<path d="M158.0749 98.5509
L157.9539 98.6718
" />
<path d="M157.9539 98.6718
L157.8330 98.7323
" />
<path d="M159.0425 99.6394
L160.0101 98.3694
" />
<path d="M159.2239 98.3694
L159.3448 98.4299
" />
<path d="M159.3448 98.4299
L159.4053 98.5509
" />
<path d="M159.4053 98.5509
L159.3448 98.6718
" />
<path d="M159.3448 98.6718
L159.2239 98.7323
" />
<path d="M159.2239 98.7323
L159.1029 98.6718
" />
<path d="M159.1029 98.6718
L159.0425 98.5509
" />
<path d="M159.0425 98.5509
L159.1029 98.4299
" />
<path d="M159.1029 98.4299
L159.2239 98.3694
" />
<path d="M159.9496 99.5790
L160.0101 99.4580
" />
<path d="M160.0101 99.4580
L159.9496 99.3370
" />
<path d="M159.9496 99.3370
L159.8286 99.2766
" />
<path d="M159.8286 99.2766
L159.7077 99.3370
" />
<path d="M159.7077 99.3370
L159.6472 99.4580
" />
<path d="M159.6472 99.4580
L159.7077 99.5790
" />
<path d="M159.7077 99.5790
L159.8286 99.6394
" />
<path d="M159.8286 99.6394
L159.9496 99.5790
" />
</g></g>
<g style="fill:none; 
stroke:#725600; stroke-width:0.1524; stroke-opacity:1; 
stroke-linecap:round; stroke-linejoin:round;">
<text x="127.8890" y="90.8050"
textLength="4.2552" font-size="1.6933" lengthAdjust="spacingAndGlyphs"
text-anchor="end" opacity="0" stroke-opacity="0">VDIV</text>
<g class="stroked-text"><desc>VDIV</desc>
<path d="M123.8577 89.4795
L124.2810 90.7495
" />
<path d="M124.2810 90.7495
L124.7044 89.4795
" />
<path d="M125.1277 90.7495
L125.1277 89.4795
" />
<path d="M125.1277 89.4795
L125.4301 89.4795
" />
<path d="M125.4301 89.4795
L125.6115 89.5400
" />
<path d="M125.6115 89.5400
L125.7325 89.6610
" />
<path d="M125.7325 89.6610
L125.7930 89.7819
" />
<path d="M125.7930 89.7819
L125.8534 90.0238
" />
<path d="M125.8534 90.0238
L125.8534 90.2052
" />
<path d="M125.8534 90.2052
L125.7930 90.4471
" />
<path d="M125.7930 90.4471
L125.7325 90.5681
" />
<path d="M125.7325 90.5681
L125.6115 90.6891
" />
<path d="M125.6115 90.6891
L125.4301 90.7495
" />
<path d="M125.4301 90.7495
L125.1277 90.7495
" />
<path d="M126.3977 90.7495
L126.3977 89.4795
" />
<path d="M126.8211 89.4795
L127.2444 90.7495
" />
<path d="M127.2444 90.7495
L127.6678 89.4795
" />
</g><path style="fill:none; 
stroke:#725600; stroke-width:0.1524; stroke-opacity:1; 
stroke-linecap:round; stroke-linejoin:round;fill:none"
d="M 128.2700,90.1700
128.9050,90.8050
129.5400,90.8050
129.5400,89.5350
128.9050,89.5350
Z" /> 
</g>
<g style="fill:none; 
stroke:#725600; stroke-width:0.1524; stroke-opacity:1; 
stroke-linecap:round; stroke-linejoin:round;">
<g transform="rotate(-90.000000 140.9700 72.0090)">
<text x="140.9700" y="72.6440"
textLength="3.2271" font-size="1.6933" lengthAdjust="spacingAndGlyphs"
text-anchor="start" opacity="0" stroke-opacity="0">VIN</text>
</g>
<g class="stroked-text"><desc>VIN</desc>
<path d="M140.2795 71.7878
L141.5495 71.3645
" />
<path d="M141.5495 71.3645
L140.2795 70.9411
" />
<path d="M141.5495 70.5178
L140.2795 70.5178
" />
<path d="M141.5495 69.9130
L140.2795 69.9130
" />
<path d="M140.2795 69.9130
L141.5495 69.1873
" />
<path d="M141.5495 69.1873
L140.2795 69.1873
" />
</g><path style="fill:none; 
stroke:#725600; stroke-width:0.1524; stroke-opacity:1; 
stroke-linecap:round; stroke-linejoin:round;fill:none"
d="M 140.9700,73.6600
141.6050,73.0250
141.6050,72.3900
140.3350,72.3900
140.3350,73.0250
Z" /> 
</g>
<g style="fill:none; 
stroke:#009600; stroke-width:0.1524; stroke-opacity:1; 
stroke-linecap:round; stroke-linejoin:round;">
<path d="M140.9700 90.1700
L140.9700 93.9800
" />
<path d="M140.9700 101.6000
L140.9700 107.9500
" />
<path d="M129.5400 90.1700
L140.9700 90.1700
" />
<path d="M140.9700 86.3600
L140.9700 90.1700
" />
<path d="M140.9700 73.6600
L140.9700 78.7400
" />
</g>
<g style="fill:#009600; fill-opacity:1.0000; stroke:none;">
<circle cx="140.9700" cy="90.1700" r="0.4572" /> 
</g> 
</svg>
