<?xml version="1.0" standalone="no"?>
 <!DOCTYPE svg PUBLIC "-//W3C//DTD SVG 1.1//EN" 
 "http://www.w3.org/Graphics/SVG/1.1/DTD/svg11.dtd"> 
<svg
  xmlns:svg="http://www.w3.org/2000/svg"
  xmlns="http://www.w3.org/2000/svg"
  xmlns:xlink="http://www.w3.org/1999/xlink"
  xmlns:inkscape="http://www.inkscape.org/namespaces/inkscape"
  version="1.1"
  width="74.9808mm" height="55.9816mm" viewBox="0.0000 0.0000 74.9808 55.9816">
<title>SVG Image created as power-back-asy.svg date 2026-07-13T20:37:07 </title>
  <desc>Image generated by PCBNEW </desc>
<g style="fill:#000000; fill-opacity:1.0000;stroke:#000000; stroke-opacity:1.0000;
stroke-linecap:round; stroke-linejoin:round;"
 transform="translate(0 0) scale(1 1)">
</g>
<g style="fill:none; 
stroke:#C872AB; stroke-width:0.1500; stroke-opacity:1; 
stroke-linecap:round; stroke-linejoin:round;">
<path d="M-145.0000 -32.0000
L-37.0000 -32.0000
L-37.0000 0.0000
L-145.0000 0.0000
L-145.0000 -32.0000
" />
<path d="M-90.0000 -34.0000
L-35.0000 -34.0000
L-35.0000 2.0000
L-90.0000 2.0000
L-90.0000 -34.0000
" />
<path d="M-88.0000 -32.0000
L-37.0000 -32.0000
L-37.0000 0.0000
L-88.0000 0.0000
L-88.0000 -32.0000
" />
<path d="M-40.0000 -32.0000
L-40.0000 -34.0000
" />
<text x="-65.0000" y="-32.3500"
textLength="1.4281" font-size="1.7333" lengthAdjust="spacingAndGlyphs"
text-anchor="start" opacity="0" stroke-opacity="0">1</text>
<g class="stroked-text"><desc>1</desc>
<path d="M-63.9108 -32.4064
L-64.6537 -32.4064
" />
<path d="M-64.2823 -32.4064
L-64.2823 -33.7064
" />
<path d="M-64.2823 -33.7064
L-64.4061 -33.5207
" />
<path d="M-64.4061 -33.5207
L-64.5299 -33.3969
" />
<path d="M-64.5299 -33.3969
L-64.6537 -33.3350
" />
</g><path d="M-40.0000 0.0000
L-40.0000 2.0000
" />
<text x="-65.0000" y="1.6500"
textLength="1.4281" font-size="1.7333" lengthAdjust="spacingAndGlyphs"
text-anchor="start" opacity="0" stroke-opacity="0">1</text>
<g class="stroked-text"><desc>1</desc>
<path d="M-63.9108 1.5936
L-64.6537 1.5936
" />
<path d="M-64.2823 1.5936
L-64.2823 0.2936
" />
<path d="M-64.2823 0.2936
L-64.4061 0.4793
" />
<path d="M-64.4061 0.4793
L-64.5299 0.6031
" />
<path d="M-64.5299 0.6031
L-64.6537 0.6650
" />
</g><path d="M-90.0000 16.0000
L-88.0000 16.0000
" />
<text x="-89.0000" y="-8.3500"
textLength="1.3043" font-size="1.7333" lengthAdjust="spacingAndGlyphs"
text-anchor="middle" opacity="0" stroke-opacity="0">A</text>
<g class="stroked-text"><desc>A</desc>
<path d="M-89.3095 -8.7778
L-88.6905 -8.7778
" />
<path d="M-89.4333 -8.4064
L-89.0000 -9.7064
" />
<path d="M-89.0000 -9.7064
L-88.5667 -8.4064
" />
</g><path d="M-35.0000 16.0000
L-37.0000 16.0000
" />
<text x="-36.0000" y="-8.3500"
textLength="1.3043" font-size="1.7333" lengthAdjust="spacingAndGlyphs"
text-anchor="middle" opacity="0" stroke-opacity="0">A</text>
<g class="stroked-text"><desc>A</desc>
<path d="M-36.3095 -8.7778
L-35.6905 -8.7778
" />
<path d="M-36.4333 -8.4064
L-36.0000 -9.7064
" />
<path d="M-36.0000 -9.7064
L-35.5667 -8.4064
" />
</g><text x="-122.0000" y="-4.1500"
textLength="21.7214" font-size="2.0000" lengthAdjust="spacingAndGlyphs"
text-anchor="start" opacity="0" stroke-opacity="0">Date: 15 nov 2012</text>
<g class="stroked-text"><desc>Date: 15 nov 2012</desc>
<path d="M-121.5442 -4.2139
L-121.5442 -5.7139
" />
<path d="M-121.5442 -5.7139
L-121.1870 -5.7139
" />
<path d="M-121.1870 -5.7139
L-120.9727 -5.6424
" />
<path d="M-120.9727 -5.6424
L-120.8299 -5.4996
" />
<path d="M-120.8299 -5.4996
L-120.7585 -5.3567
" />
<path d="M-120.7585 -5.3567
L-120.6870 -5.0710
" />
<path d="M-120.6870 -5.0710
L-120.6870 -4.8567
" />
<path d="M-120.6870 -4.8567
L-120.7585 -4.5710
" />
<path d="M-120.7585 -4.5710
L-120.8299 -4.4282
" />
<path d="M-120.8299 -4.4282
L-120.9727 -4.2853
" />
<path d="M-120.9727 -4.2853
L-121.1870 -4.2139
" />
<path d="M-121.1870 -4.2139
L-121.5442 -4.2139
" />
<path d="M-119.4013 -4.2139
L-119.4013 -4.9996
" />
<path d="M-119.4013 -4.9996
L-119.4727 -5.1424
" />
<path d="M-119.4727 -5.1424
L-119.6156 -5.2139
" />
<path d="M-119.6156 -5.2139
L-119.9013 -5.2139
" />
<path d="M-119.9013 -5.2139
L-120.0442 -5.1424
" />
<path d="M-119.4013 -4.2853
L-119.5442 -4.2139
" />
<path d="M-119.5442 -4.2139
L-119.9013 -4.2139
" />
<path d="M-119.9013 -4.2139
L-120.0442 -4.2853
" />
<path d="M-120.0442 -4.2853
L-120.1156 -4.4282
" />
<path d="M-120.1156 -4.4282
L-120.1156 -4.5710
" />
<path d="M-120.1156 -4.5710
L-120.0442 -4.7139
" />
<path d="M-120.0442 -4.7139
L-119.9013 -4.7853
" />
<path d="M-119.9013 -4.7853
L-119.5442 -4.7853
" />
<path d="M-119.5442 -4.7853
L-119.4013 -4.8567
" />
<path d="M-118.9013 -5.2139
L-118.3299 -5.2139
" />
<path d="M-118.6870 -5.7139
L-118.6870 -4.4282
" />
<path d="M-118.6870 -4.4282
L-118.6156 -4.2853
" />
<path d="M-118.6156 -4.2853
L-118.4727 -4.2139
" />
<path d="M-118.4727 -4.2139
L-118.3299 -4.2139
" />
<path d="M-117.2585 -4.2853
L-117.4013 -4.2139
" />
<path d="M-117.4013 -4.2139
L-117.6870 -4.2139
" />
<path d="M-117.6870 -4.2139
L-117.8299 -4.2853
" />
<path d="M-117.8299 -4.2853
L-117.9013 -4.4282
" />
<path d="M-117.9013 -4.4282
L-117.9013 -4.9996
" />
<path d="M-117.9013 -4.9996
L-117.8299 -5.1424
" />
<path d="M-117.8299 -5.1424
L-117.6870 -5.2139
" />
<path d="M-117.6870 -5.2139
L-117.4013 -5.2139
" />
<path d="M-117.4013 -5.2139
L-117.2585 -5.1424
" />
<path d="M-117.2585 -5.1424
L-117.1870 -4.9996
" />
<path d="M-117.1870 -4.9996
L-117.1870 -4.8567
" />
<path d="M-117.1870 -4.8567
L-117.9013 -4.7139
" />
<path d="M-116.5442 -4.3567
L-116.4727 -4.2853
" />
<path d="M-116.4727 -4.2853
L-116.5442 -4.2139
" />
<path d="M-116.5442 -4.2139
L-116.6156 -4.2853
" />
<path d="M-116.6156 -4.2853
L-116.5442 -4.3567
" />
<path d="M-116.5442 -4.3567
L-116.5442 -4.2139
" />
<path d="M-116.5442 -5.1424
L-116.4727 -5.0710
" />
<path d="M-116.4727 -5.0710
L-116.5442 -4.9996
" />
<path d="M-116.5442 -4.9996
L-116.6156 -5.0710
" />
<path d="M-116.6156 -5.0710
L-116.5442 -5.1424
" />
<path d="M-116.5442 -5.1424
L-116.5442 -4.9996
" />
<path d="M-113.9013 -4.2139
L-114.7585 -4.2139
" />
<path d="M-114.3299 -4.2139
L-114.3299 -5.7139
" />
<path d="M-114.3299 -5.7139
L-114.4727 -5.4996
" />
<path d="M-114.4727 -5.4996
L-114.6156 -5.3567
" />
<path d="M-114.6156 -5.3567
L-114.7585 -5.2853
" />
<path d="M-112.5442 -5.7139
L-113.2585 -5.7139
" />
<path d="M-113.2585 -5.7139
L-113.3299 -4.9996
" />
<path d="M-113.3299 -4.9996
L-113.2585 -5.0710
" />
<path d="M-113.2585 -5.0710
L-113.1156 -5.1424
" />
<path d="M-113.1156 -5.1424
L-112.7585 -5.1424
" />
<path d="M-112.7585 -5.1424
L-112.6156 -5.0710
" />
<path d="M-112.6156 -5.0710
L-112.5442 -4.9996
" />
<path d="M-112.5442 -4.9996
L-112.4727 -4.8567
" />
<path d="M-112.4727 -4.8567
L-112.4727 -4.4996
" />
<path d="M-112.4727 -4.4996
L-112.5442 -4.3567
" />
<path d="M-112.5442 -4.3567
L-112.6156 -4.2853
" />
<path d="M-112.6156 -4.2853
L-112.7585 -4.2139
" />
<path d="M-112.7585 -4.2139
L-113.1156 -4.2139
" />
<path d="M-113.1156 -4.2139
L-113.2585 -4.2853
" />
<path d="M-113.2585 -4.2853
L-113.3299 -4.3567
" />
<path d="M-110.6870 -5.2139
L-110.6870 -4.2139
" />
<path d="M-110.6870 -5.0710
L-110.6156 -5.1424
" />
<path d="M-110.6156 -5.1424
L-110.4727 -5.2139
" />
<path d="M-110.4727 -5.2139
L-110.2585 -5.2139
" />
<path d="M-110.2585 -5.2139
L-110.1156 -5.1424
" />
<path d="M-110.1156 -5.1424
L-110.0442 -4.9996
" />
<path d="M-110.0442 -4.9996
L-110.0442 -4.2139
" />
<path d="M-109.1156 -4.2139
L-109.2585 -4.2853
" />
<path d="M-109.2585 -4.2853
L-109.3299 -4.3567
" />
<path d="M-109.3299 -4.3567
L-109.4013 -4.4996
" />
<path d="M-109.4013 -4.4996
L-109.4013 -4.9282
" />
<path d="M-109.4013 -4.9282
L-109.3299 -5.0710
" />
<path d="M-109.3299 -5.0710
L-109.2585 -5.1424
" />
<path d="M-109.2585 -5.1424
L-109.1156 -5.2139
" />
<path d="M-109.1156 -5.2139
L-108.9013 -5.2139
" />
<path d="M-108.9013 -5.2139
L-108.7585 -5.1424
" />
<path d="M-108.7585 -5.1424
L-108.6870 -5.0710
" />
<path d="M-108.6870 -5.0710
L-108.6156 -4.9282
" />
<path d="M-108.6156 -4.9282
L-108.6156 -4.4996
" />
<path d="M-108.6156 -4.4996
L-108.6870 -4.3567
" />
<path d="M-108.6870 -4.3567
L-108.7585 -4.2853
" />
<path d="M-108.7585 -4.2853
L-108.9013 -4.2139
" />
<path d="M-108.9013 -4.2139
L-109.1156 -4.2139
" />
<path d="M-108.1156 -5.2139
L-107.7585 -4.2139
" />
<path d="M-107.7585 -4.2139
L-107.4013 -5.2139
" />
<path d="M-105.7585 -5.5710
L-105.6870 -5.6424
" />
<path d="M-105.6870 -5.6424
L-105.5442 -5.7139
" />
<path d="M-105.5442 -5.7139
L-105.1870 -5.7139
" />
<path d="M-105.1870 -5.7139
L-105.0442 -5.6424
" />
<path d="M-105.0442 -5.6424
L-104.9727 -5.5710
" />
<path d="M-104.9727 -5.5710
L-104.9013 -5.4282
" />
<path d="M-104.9013 -5.4282
L-104.9013 -5.2853
" />
<path d="M-104.9013 -5.2853
L-104.9727 -5.0710
" />
<path d="M-104.9727 -5.0710
L-105.8299 -4.2139
" />
<path d="M-105.8299 -4.2139
L-104.9013 -4.2139
" />
<path d="M-103.9727 -5.7139
L-103.8299 -5.7139
" />
<path d="M-103.8299 -5.7139
L-103.6870 -5.6424
" />
<path d="M-103.6870 -5.6424
L-103.6156 -5.5710
" />
<path d="M-103.6156 -5.5710
L-103.5442 -5.4282
" />
<path d="M-103.5442 -5.4282
L-103.4727 -5.1424
" />
<path d="M-103.4727 -5.1424
L-103.4727 -4.7853
" />
<path d="M-103.4727 -4.7853
L-103.5442 -4.4996
" />
<path d="M-103.5442 -4.4996
L-103.6156 -4.3567
" />
<path d="M-103.6156 -4.3567
L-103.6870 -4.2853
" />
<path d="M-103.6870 -4.2853
L-103.8299 -4.2139
" />
<path d="M-103.8299 -4.2139
L-103.9727 -4.2139
" />
<path d="M-103.9727 -4.2139
L-104.1156 -4.2853
" />
<path d="M-104.1156 -4.2853
L-104.1870 -4.3567
" />
<path d="M-104.1870 -4.3567
L-104.2585 -4.4996
" />
<path d="M-104.2585 -4.4996
L-104.3299 -4.7853
" />
<path d="M-104.3299 -4.7853
L-104.3299 -5.1424
" />
<path d="M-104.3299 -5.1424
L-104.2585 -5.4282
" />
<path d="M-104.2585 -5.4282
L-104.1870 -5.5710
" />
<path d="M-104.1870 -5.5710
L-104.1156 -5.6424
" />
<path d="M-104.1156 -5.6424
L-103.9727 -5.7139
" />
<path d="M-102.0442 -4.2139
L-102.9013 -4.2139
" />
<path d="M-102.4727 -4.2139
L-102.4727 -5.7139
" />
<path d="M-102.4727 -5.7139
L-102.6156 -5.4996
" />
<path d="M-102.6156 -5.4996
L-102.7585 -5.3567
" />
<path d="M-102.7585 -5.3567
L-102.9013 -5.2853
" />
<path d="M-101.4727 -5.5710
L-101.4013 -5.6424
" />
<path d="M-101.4013 -5.6424
L-101.2585 -5.7139
" />
<path d="M-101.2585 -5.7139
L-100.9013 -5.7139
" />
<path d="M-100.9013 -5.7139
L-100.7585 -5.6424
" />
<path d="M-100.7585 -5.6424
L-100.6870 -5.5710
" />
<path d="M-100.6870 -5.5710
L-100.6156 -5.4282
" />
<path d="M-100.6156 -5.4282
L-100.6156 -5.2853
" />
<path d="M-100.6156 -5.2853
L-100.6870 -5.0710
" />
<path d="M-100.6870 -5.0710
L-101.5442 -4.2139
" />
<path d="M-101.5442 -4.2139
L-100.6156 -4.2139
" />
</g><path d="M-145.0000 -3.5000
L-37.0000 -3.5000
" />
<text x="-144.0000" y="-1.3500"
textLength="22.2929" font-size="2.0000" lengthAdjust="spacingAndGlyphs"
text-anchor="start" opacity="0" stroke-opacity="0">KiCad E.D.A. 10.0.4</text>
<g class="stroked-text"><desc>KiCad E.D.A. 10.0.4</desc>
<path d="M-143.5442 -1.4139
L-143.5442 -2.9139
" />
<path d="M-142.6870 -1.4139
L-143.3299 -2.2710
" />
<path d="M-142.6870 -2.9139
L-143.5442 -2.0567
" />
<path d="M-142.0442 -1.4139
L-142.0442 -2.4139
" />
<path d="M-142.0442 -2.9139
L-142.1156 -2.8424
" />
<path d="M-142.1156 -2.8424
L-142.0442 -2.7710
" />
<path d="M-142.0442 -2.7710
L-141.9727 -2.8424
" />
<path d="M-141.9727 -2.8424
L-142.0442 -2.9139
" />
<path d="M-142.0442 -2.9139
L-142.0442 -2.7710
" />
<path d="M-140.4727 -1.5567
L-140.5442 -1.4853
" />
<path d="M-140.5442 -1.4853
L-140.7585 -1.4139
" />
<path d="M-140.7585 -1.4139
L-140.9013 -1.4139
" />
<path d="M-140.9013 -1.4139
L-141.1156 -1.4853
" />
<path d="M-141.1156 -1.4853
L-141.2585 -1.6282
" />
<path d="M-141.2585 -1.6282
L-141.3299 -1.7710
" />
<path d="M-141.3299 -1.7710
L-141.4013 -2.0567
" />
<path d="M-141.4013 -2.0567
L-141.4013 -2.2710
" />
<path d="M-141.4013 -2.2710
L-141.3299 -2.5567
" />
<path d="M-141.3299 -2.5567
L-141.2585 -2.6996
" />
<path d="M-141.2585 -2.6996
L-141.1156 -2.8424
" />
<path d="M-141.1156 -2.8424
L-140.9013 -2.9139
" />
<path d="M-140.9013 -2.9139
L-140.7585 -2.9139
" />
<path d="M-140.7585 -2.9139
L-140.5442 -2.8424
" />
<path d="M-140.5442 -2.8424
L-140.4727 -2.7710
" />
<path d="M-139.1870 -1.4139
L-139.1870 -2.1996
" />
<path d="M-139.1870 -2.1996
L-139.2585 -2.3424
" />
<path d="M-139.2585 -2.3424
L-139.4013 -2.4139
" />
<path d="M-139.4013 -2.4139
L-139.6870 -2.4139
" />
<path d="M-139.6870 -2.4139
L-139.8299 -2.3424
" />
<path d="M-139.1870 -1.4853
L-139.3299 -1.4139
" />
<path d="M-139.3299 -1.4139
L-139.6870 -1.4139
" />
<path d="M-139.6870 -1.4139
L-139.8299 -1.4853
" />
<path d="M-139.8299 -1.4853
L-139.9013 -1.6282
" />
<path d="M-139.9013 -1.6282
L-139.9013 -1.7710
" />
<path d="M-139.9013 -1.7710
L-139.8299 -1.9139
" />
<path d="M-139.8299 -1.9139
L-139.6870 -1.9853
" />
<path d="M-139.6870 -1.9853
L-139.3299 -1.9853
" />
<path d="M-139.3299 -1.9853
L-139.1870 -2.0567
" />
<path d="M-137.8299 -1.4139
L-137.8299 -2.9139
" />
<path d="M-137.8299 -1.4853
L-137.9727 -1.4139
" />
<path d="M-137.9727 -1.4139
L-138.2585 -1.4139
" />
<path d="M-138.2585 -1.4139
L-138.4013 -1.4853
" />
<path d="M-138.4013 -1.4853
L-138.4727 -1.5567
" />
<path d="M-138.4727 -1.5567
L-138.5442 -1.6996
" />
<path d="M-138.5442 -1.6996
L-138.5442 -2.1282
" />
<path d="M-138.5442 -2.1282
L-138.4727 -2.2710
" />
<path d="M-138.4727 -2.2710
L-138.4013 -2.3424
" />
<path d="M-138.4013 -2.3424
L-138.2585 -2.4139
" />
<path d="M-138.2585 -2.4139
L-137.9727 -2.4139
" />
<path d="M-137.9727 -2.4139
L-137.8299 -2.3424
" />
<path d="M-135.9727 -2.1996
L-135.4727 -2.1996
" />
<path d="M-135.2585 -1.4139
L-135.9727 -1.4139
" />
<path d="M-135.9727 -1.4139
L-135.9727 -2.9139
" />
<path d="M-135.9727 -2.9139
L-135.2585 -2.9139
" />
<path d="M-134.6156 -1.5567
L-134.5442 -1.4853
" />
<path d="M-134.5442 -1.4853
L-134.6156 -1.4139
" />
<path d="M-134.6156 -1.4139
L-134.6870 -1.4853
" />
<path d="M-134.6870 -1.4853
L-134.6156 -1.5567
" />
<path d="M-134.6156 -1.5567
L-134.6156 -1.4139
" />
<path d="M-133.9013 -1.4139
L-133.9013 -2.9139
" />
<path d="M-133.9013 -2.9139
L-133.5442 -2.9139
" />
<path d="M-133.5442 -2.9139
L-133.3299 -2.8424
" />
<path d="M-133.3299 -2.8424
L-133.1870 -2.6996
" />
<path d="M-133.1870 -2.6996
L-133.1156 -2.5567
" />
<path d="M-133.1156 -2.5567
L-133.0442 -2.2710
" />
<path d="M-133.0442 -2.2710
L-133.0442 -2.0567
" />
<path d="M-133.0442 -2.0567
L-133.1156 -1.7710
" />
<path d="M-133.1156 -1.7710
L-133.1870 -1.6282
" />
<path d="M-133.1870 -1.6282
L-133.3299 -1.4853
" />
<path d="M-133.3299 -1.4853
L-133.5442 -1.4139
" />
<path d="M-133.5442 -1.4139
L-133.9013 -1.4139
" />
<path d="M-132.4013 -1.5567
L-132.3299 -1.4853
" />
<path d="M-132.3299 -1.4853
L-132.4013 -1.4139
" />
<path d="M-132.4013 -1.4139
L-132.4727 -1.4853
" />
<path d="M-132.4727 -1.4853
L-132.4013 -1.5567
" />
<path d="M-132.4013 -1.5567
L-132.4013 -1.4139
" />
<path d="M-131.7585 -1.8424
L-131.0442 -1.8424
" />
<path d="M-131.9013 -1.4139
L-131.4013 -2.9139
" />
<path d="M-131.4013 -2.9139
L-130.9013 -1.4139
" />
<path d="M-130.4013 -1.5567
L-130.3299 -1.4853
" />
<path d="M-130.3299 -1.4853
L-130.4013 -1.4139
" />
<path d="M-130.4013 -1.4139
L-130.4727 -1.4853
" />
<path d="M-130.4727 -1.4853
L-130.4013 -1.5567
" />
<path d="M-130.4013 -1.5567
L-130.4013 -1.4139
" />
<path d="M-127.7585 -1.4139
L-128.6156 -1.4139
" />
<path d="M-128.1870 -1.4139
L-128.1870 -2.9139
" />
<path d="M-128.1870 -2.9139
L-128.3299 -2.6996
" />
<path d="M-128.3299 -2.6996
L-128.4727 -2.5567
" />
<path d="M-128.4727 -2.5567
L-128.6156 -2.4853
" />
<path d="M-126.8299 -2.9139
L-126.6870 -2.9139
" />
<path d="M-126.6870 -2.9139
L-126.5442 -2.8424
" />
<path d="M-126.5442 -2.8424
L-126.4727 -2.7710
" />
<path d="M-126.4727 -2.7710
L-126.4013 -2.6282
" />
<path d="M-126.4013 -2.6282
L-126.3299 -2.3424
" />
<path d="M-126.3299 -2.3424
L-126.3299 -1.9853
" />
<path d="M-126.3299 -1.9853
L-126.4013 -1.6996
" />
<path d="M-126.4013 -1.6996
L-126.4727 -1.5567
" />
<path d="M-126.4727 -1.5567
L-126.5442 -1.4853
" />
<path d="M-126.5442 -1.4853
L-126.6870 -1.4139
" />
<path d="M-126.6870 -1.4139
L-126.8299 -1.4139
" />
<path d="M-126.8299 -1.4139
L-126.9727 -1.4853
" />
<path d="M-126.9727 -1.4853
L-127.0442 -1.5567
" />
<path d="M-127.0442 -1.5567
L-127.1156 -1.6996
" />
<path d="M-127.1156 -1.6996
L-127.1870 -1.9853
" />
<path d="M-127.1870 -1.9853
L-127.1870 -2.3424
" />
<path d="M-127.1870 -2.3424
L-127.1156 -2.6282
" />
<path d="M-127.1156 -2.6282
L-127.0442 -2.7710
" />
<path d="M-127.0442 -2.7710
L-126.9727 -2.8424
" />
<path d="M-126.9727 -2.8424
L-126.8299 -2.9139
" />
<path d="M-125.6870 -1.5567
L-125.6156 -1.4853
" />
<path d="M-125.6156 -1.4853
L-125.6870 -1.4139
" />
<path d="M-125.6870 -1.4139
L-125.7585 -1.4853
" />
<path d="M-125.7585 -1.4853
L-125.6870 -1.5567
" />
<path d="M-125.6870 -1.5567
L-125.6870 -1.4139
" />
<path d="M-124.6870 -2.9139
L-124.5442 -2.9139
" />
<path d="M-124.5442 -2.9139
L-124.4013 -2.8424
" />
<path d="M-124.4013 -2.8424
L-124.3299 -2.7710
" />
<path d="M-124.3299 -2.7710
L-124.2585 -2.6282
" />
<path d="M-124.2585 -2.6282
L-124.1870 -2.3424
" />
<path d="M-124.1870 -2.3424
L-124.1870 -1.9853
" />
<path d="M-124.1870 -1.9853
L-124.2585 -1.6996
" />
<path d="M-124.2585 -1.6996
L-124.3299 -1.5567
" />
<path d="M-124.3299 -1.5567
L-124.4013 -1.4853
" />
<path d="M-124.4013 -1.4853
L-124.5442 -1.4139
" />
<path d="M-124.5442 -1.4139
L-124.6870 -1.4139
" />
<path d="M-124.6870 -1.4139
L-124.8299 -1.4853
" />
<path d="M-124.8299 -1.4853
L-124.9013 -1.5567
" />
<path d="M-124.9013 -1.5567
L-124.9727 -1.6996
" />
<path d="M-124.9727 -1.6996
L-125.0442 -1.9853
" />
<path d="M-125.0442 -1.9853
L-125.0442 -2.3424
" />
<path d="M-125.0442 -2.3424
L-124.9727 -2.6282
" />
<path d="M-124.9727 -2.6282
L-124.9013 -2.7710
" />
<path d="M-124.9013 -2.7710
L-124.8299 -2.8424
" />
<path d="M-124.8299 -2.8424
L-124.6870 -2.9139
" />
<path d="M-123.5442 -1.5567
L-123.4727 -1.4853
" />
<path d="M-123.4727 -1.4853
L-123.5442 -1.4139
" />
<path d="M-123.5442 -1.4139
L-123.6156 -1.4853
" />
<path d="M-123.6156 -1.4853
L-123.5442 -1.5567
" />
<path d="M-123.5442 -1.5567
L-123.5442 -1.4139
" />
<path d="M-122.1870 -2.4139
L-122.1870 -1.4139
" />
<path d="M-122.5442 -2.9853
L-122.9013 -1.9139
" />
<path d="M-122.9013 -1.9139
L-121.9727 -1.9139
" />
</g><path d="M-145.0000 -6.5000
L-37.0000 -6.5000
" />
</g>
<g style="fill:none; 
stroke:#C872AB; stroke-width:0.3000; stroke-opacity:1; 
stroke-linecap:round; stroke-linejoin:round;">
<text x="-59.0000" y="-4.1500"
textLength="6.3857" font-size="2.0000" lengthAdjust="spacingAndGlyphs"
text-anchor="start" opacity="0" stroke-opacity="0">Rev: </text>
<g class="stroked-text"><desc>Rev: </desc>
<path d="M-57.5883 -4.2217
L-58.0883 -4.9360
" />
<path d="M-58.4455 -4.2217
L-58.4455 -5.7217
" />
<path d="M-58.4455 -5.7217
L-57.8741 -5.7217
" />
<path d="M-57.8741 -5.7217
L-57.7312 -5.6502
" />
<path d="M-57.7312 -5.6502
L-57.6598 -5.5788
" />
<path d="M-57.6598 -5.5788
L-57.5883 -5.4360
" />
<path d="M-57.5883 -5.4360
L-57.5883 -5.2217
" />
<path d="M-57.5883 -5.2217
L-57.6598 -5.0788
" />
<path d="M-57.6598 -5.0788
L-57.7312 -5.0074
" />
<path d="M-57.7312 -5.0074
L-57.8741 -4.9360
" />
<path d="M-57.8741 -4.9360
L-58.4455 -4.9360
" />
<path d="M-56.3741 -4.2931
L-56.5169 -4.2217
" />
<path d="M-56.5169 -4.2217
L-56.8026 -4.2217
" />
<path d="M-56.8026 -4.2217
L-56.9455 -4.2931
" />
<path d="M-56.9455 -4.2931
L-57.0169 -4.4360
" />
<path d="M-57.0169 -4.4360
L-57.0169 -5.0074
" />
<path d="M-57.0169 -5.0074
L-56.9455 -5.1502
" />
<path d="M-56.9455 -5.1502
L-56.8026 -5.2217
" />
<path d="M-56.8026 -5.2217
L-56.5169 -5.2217
" />
<path d="M-56.5169 -5.2217
L-56.3741 -5.1502
" />
<path d="M-56.3741 -5.1502
L-56.3026 -5.0074
" />
<path d="M-56.3026 -5.0074
L-56.3026 -4.8645
" />
<path d="M-56.3026 -4.8645
L-57.0169 -4.7217
" />
<path d="M-55.8026 -5.2217
L-55.4455 -4.2217
" />
<path d="M-55.4455 -4.2217
L-55.0883 -5.2217
" />
<path d="M-54.5169 -4.3645
L-54.4455 -4.2931
" />
<path d="M-54.4455 -4.2931
L-54.5169 -4.2217
" />
<path d="M-54.5169 -4.2217
L-54.5883 -4.2931
" />
<path d="M-54.5883 -4.2931
L-54.5169 -4.3645
" />
<path d="M-54.5169 -4.3645
L-54.5169 -4.2217
" />
<path d="M-54.5169 -5.1502
L-54.4455 -5.0788
" />
<path d="M-54.4455 -5.0788
L-54.5169 -5.0074
" />
<path d="M-54.5169 -5.0074
L-54.5883 -5.0788
" />
<path d="M-54.5883 -5.0788
L-54.5169 -5.1502
" />
<path d="M-54.5169 -5.1502
L-54.5169 -5.0074
" />
</g></g>
<g style="fill:none; 
stroke:#C872AB; stroke-width:0.1500; stroke-opacity:1; 
stroke-linecap:round; stroke-linejoin:round;">
<text x="-144.0000" y="-4.1500"
textLength="11.6500" font-size="2.0000" lengthAdjust="spacingAndGlyphs"
text-anchor="start" opacity="0" stroke-opacity="0">Size: User</text>
<g class="stroked-text"><desc>Size: User</desc>
<path d="M-143.6156 -4.2853
L-143.4013 -4.2139
" />
<path d="M-143.4013 -4.2139
L-143.0442 -4.2139
" />
<path d="M-143.0442 -4.2139
L-142.9013 -4.2853
" />
<path d="M-142.9013 -4.2853
L-142.8299 -4.3567
" />
<path d="M-142.8299 -4.3567
L-142.7585 -4.4996
" />
<path d="M-142.7585 -4.4996
L-142.7585 -4.6424
" />
<path d="M-142.7585 -4.6424
L-142.8299 -4.7853
" />
<path d="M-142.8299 -4.7853
L-142.9013 -4.8567
" />
<path d="M-142.9013 -4.8567
L-143.0442 -4.9282
" />
<path d="M-143.0442 -4.9282
L-143.3299 -4.9996
" />
<path d="M-143.3299 -4.9996
L-143.4727 -5.0710
" />
<path d="M-143.4727 -5.0710
L-143.5442 -5.1424
" />
<path d="M-143.5442 -5.1424
L-143.6156 -5.2853
" />
<path d="M-143.6156 -5.2853
L-143.6156 -5.4282
" />
<path d="M-143.6156 -5.4282
L-143.5442 -5.5710
" />
<path d="M-143.5442 -5.5710
L-143.4727 -5.6424
" />
<path d="M-143.4727 -5.6424
L-143.3299 -5.7139
" />
<path d="M-143.3299 -5.7139
L-142.9727 -5.7139
" />
<path d="M-142.9727 -5.7139
L-142.7585 -5.6424
" />
<path d="M-142.1156 -4.2139
L-142.1156 -5.2139
" />
<path d="M-142.1156 -5.7139
L-142.1870 -5.6424
" />
<path d="M-142.1870 -5.6424
L-142.1156 -5.5710
" />
<path d="M-142.1156 -5.5710
L-142.0442 -5.6424
" />
<path d="M-142.0442 -5.6424
L-142.1156 -5.7139
" />
<path d="M-142.1156 -5.7139
L-142.1156 -5.5710
" />
<path d="M-141.5442 -5.2139
L-140.7585 -5.2139
" />
<path d="M-140.7585 -5.2139
L-141.5442 -4.2139
" />
<path d="M-141.5442 -4.2139
L-140.7585 -4.2139
" />
<path d="M-139.6156 -4.2853
L-139.7585 -4.2139
" />
<path d="M-139.7585 -4.2139
L-140.0442 -4.2139
" />
<path d="M-140.0442 -4.2139
L-140.1870 -4.2853
" />
<path d="M-140.1870 -4.2853
L-140.2585 -4.4282
" />
<path d="M-140.2585 -4.4282
L-140.2585 -4.9996
" />
<path d="M-140.2585 -4.9996
L-140.1870 -5.1424
" />
<path d="M-140.1870 -5.1424
L-140.0442 -5.2139
" />
<path d="M-140.0442 -5.2139
L-139.7585 -5.2139
" />
<path d="M-139.7585 -5.2139
L-139.6156 -5.1424
" />
<path d="M-139.6156 -5.1424
L-139.5442 -4.9996
" />
<path d="M-139.5442 -4.9996
L-139.5442 -4.8567
" />
<path d="M-139.5442 -4.8567
L-140.2585 -4.7139
" />
<path d="M-138.9013 -4.3567
L-138.8299 -4.2853
" />
<path d="M-138.8299 -4.2853
L-138.9013 -4.2139
" />
<path d="M-138.9013 -4.2139
L-138.9727 -4.2853
" />
<path d="M-138.9727 -4.2853
L-138.9013 -4.3567
" />
<path d="M-138.9013 -4.3567
L-138.9013 -4.2139
" />
<path d="M-138.9013 -5.1424
L-138.8299 -5.0710
" />
<path d="M-138.8299 -5.0710
L-138.9013 -4.9996
" />
<path d="M-138.9013 -4.9996
L-138.9727 -5.0710
" />
<path d="M-138.9727 -5.0710
L-138.9013 -5.1424
" />
<path d="M-138.9013 -5.1424
L-138.9013 -4.9996
" />
<path d="M-137.0442 -5.7139
L-137.0442 -4.4996
" />
<path d="M-137.0442 -4.4996
L-136.9727 -4.3567
" />
<path d="M-136.9727 -4.3567
L-136.9013 -4.2853
" />
<path d="M-136.9013 -4.2853
L-136.7585 -4.2139
" />
<path d="M-136.7585 -4.2139
L-136.4727 -4.2139
" />
<path d="M-136.4727 -4.2139
L-136.3299 -4.2853
" />
<path d="M-136.3299 -4.2853
L-136.2585 -4.3567
" />
<path d="M-136.2585 -4.3567
L-136.1870 -4.4996
" />
<path d="M-136.1870 -4.4996
L-136.1870 -5.7139
" />
<path d="M-135.5442 -4.2853
L-135.4013 -4.2139
" />
<path d="M-135.4013 -4.2139
L-135.1156 -4.2139
" />
<path d="M-135.1156 -4.2139
L-134.9727 -4.2853
" />
<path d="M-134.9727 -4.2853
L-134.9013 -4.4282
" />
<path d="M-134.9013 -4.4282
L-134.9013 -4.4996
" />
<path d="M-134.9013 -4.4996
L-134.9727 -4.6424
" />
<path d="M-134.9727 -4.6424
L-135.1156 -4.7139
" />
<path d="M-135.1156 -4.7139
L-135.3299 -4.7139
" />
<path d="M-135.3299 -4.7139
L-135.4727 -4.7853
" />
<path d="M-135.4727 -4.7853
L-135.5442 -4.9282
" />
<path d="M-135.5442 -4.9282
L-135.5442 -4.9996
" />
<path d="M-135.5442 -4.9996
L-135.4727 -5.1424
" />
<path d="M-135.4727 -5.1424
L-135.3299 -5.2139
" />
<path d="M-135.3299 -5.2139
L-135.1156 -5.2139
" />
<path d="M-135.1156 -5.2139
L-134.9727 -5.1424
" />
<path d="M-133.6870 -4.2853
L-133.8299 -4.2139
" />
<path d="M-133.8299 -4.2139
L-134.1156 -4.2139
" />
<path d="M-134.1156 -4.2139
L-134.2585 -4.2853
" />
<path d="M-134.2585 -4.2853
L-134.3299 -4.4282
" />
<path d="M-134.3299 -4.4282
L-134.3299 -4.9996
" />
<path d="M-134.3299 -4.9996
L-134.2585 -5.1424
" />
<path d="M-134.2585 -5.1424
L-134.1156 -5.2139
" />
<path d="M-134.1156 -5.2139
L-133.8299 -5.2139
" />
<path d="M-133.8299 -5.2139
L-133.6870 -5.1424
" />
<path d="M-133.6870 -5.1424
L-133.6156 -4.9996
" />
<path d="M-133.6156 -4.9996
L-133.6156 -4.8567
" />
<path d="M-133.6156 -4.8567
L-134.3299 -4.7139
" />
<path d="M-132.9727 -4.2139
L-132.9727 -5.2139
" />
<path d="M-132.9727 -4.9282
L-132.9013 -5.0710
" />
<path d="M-132.9013 -5.0710
L-132.8299 -5.1424
" />
<path d="M-132.8299 -5.1424
L-132.6870 -5.2139
" />
<path d="M-132.6870 -5.2139
L-132.5442 -5.2139
" />
</g><text x="-59.0000" y="-1.3500"
textLength="8.5071" font-size="2.0000" lengthAdjust="spacingAndGlyphs"
text-anchor="start" opacity="0" stroke-opacity="0">Id: 1/1</text>
<g class="stroked-text"><desc>Id: 1/1</desc>
<path d="M-58.5442 -1.4139
L-58.5442 -2.9139
" />
<path d="M-57.1870 -1.4139
L-57.1870 -2.9139
" />
<path d="M-57.1870 -1.4853
L-57.3299 -1.4139
" />
<path d="M-57.3299 -1.4139
L-57.6156 -1.4139
" />
<path d="M-57.6156 -1.4139
L-57.7585 -1.4853
" />
<path d="M-57.7585 -1.4853
L-57.8299 -1.5567
" />
<path d="M-57.8299 -1.5567
L-57.9013 -1.6996
" />
<path d="M-57.9013 -1.6996
L-57.9013 -2.1282
" />
<path d="M-57.9013 -2.1282
L-57.8299 -2.2710
" />
<path d="M-57.8299 -2.2710
L-57.7585 -2.3424
" />
<path d="M-57.7585 -2.3424
L-57.6156 -2.4139
" />
<path d="M-57.6156 -2.4139
L-57.3299 -2.4139
" />
<path d="M-57.3299 -2.4139
L-57.1870 -2.3424
" />
<path d="M-56.4727 -1.5567
L-56.4013 -1.4853
" />
<path d="M-56.4013 -1.4853
L-56.4727 -1.4139
" />
<path d="M-56.4727 -1.4139
L-56.5442 -1.4853
" />
<path d="M-56.5442 -1.4853
L-56.4727 -1.5567
" />
<path d="M-56.4727 -1.5567
L-56.4727 -1.4139
" />
<path d="M-56.4727 -2.3424
L-56.4013 -2.2710
" />
<path d="M-56.4013 -2.2710
L-56.4727 -2.1996
" />
<path d="M-56.4727 -2.1996
L-56.5442 -2.2710
" />
<path d="M-56.5442 -2.2710
L-56.4727 -2.3424
" />
<path d="M-56.4727 -2.3424
L-56.4727 -2.1996
" />
<path d="M-53.8299 -1.4139
L-54.6870 -1.4139
" />
<path d="M-54.2585 -1.4139
L-54.2585 -2.9139
" />
<path d="M-54.2585 -2.9139
L-54.4013 -2.6996
" />
<path d="M-54.4013 -2.6996
L-54.5442 -2.5567
" />
<path d="M-54.5442 -2.5567
L-54.6870 -2.4853
" />
<path d="M-52.1156 -2.9853
L-53.4013 -1.0567
" />
<path d="M-50.8299 -1.4139
L-51.6870 -1.4139
" />
<path d="M-51.2585 -1.4139
L-51.2585 -2.9139
" />
<path d="M-51.2585 -2.9139
L-51.4013 -2.6996
" />
<path d="M-51.4013 -2.6996
L-51.5442 -2.5567
" />
<path d="M-51.5442 -2.5567
L-51.6870 -2.4853
" />
</g><path d="M-145.0000 -10.5000
L-37.0000 -10.5000
" />
</g>
<g style="fill:none; 
stroke:#C872AB; stroke-width:0.4000; stroke-opacity:1; 
stroke-linecap:round; stroke-linejoin:round;">
<text x="-144.0000" y="-7.7000"
textLength="39.7524" font-size="2.6667" lengthAdjust="spacingAndGlyphs"
text-anchor="start" opacity="0" stroke-opacity="0">Title: PilotPI power board</text>
<g class="stroked-text"><desc>Title: PilotPI power board</desc>
<path d="M-143.3083 -9.7956
L-142.1654 -9.7956
" />
<path d="M-142.9868 -7.7956
L-142.7368 -9.7956
" />
<path d="M-141.7487 -7.7956
L-141.5821 -9.1289
" />
<path d="M-141.4987 -9.7956
L-141.6059 -9.7003
" />
<path d="M-141.6059 -9.7003
L-141.5226 -9.6051
" />
<path d="M-141.5226 -9.6051
L-141.4154 -9.7003
" />
<path d="M-141.4154 -9.7003
L-141.4987 -9.7956
" />
<path d="M-141.4987 -9.7956
L-141.5226 -9.6051
" />
<path d="M-140.9154 -9.1289
L-140.1535 -9.1289
" />
<path d="M-140.5464 -9.7956
L-140.7607 -8.0813
" />
<path d="M-140.7607 -8.0813
L-140.6892 -7.8908
" />
<path d="M-140.6892 -7.8908
L-140.5107 -7.7956
" />
<path d="M-140.5107 -7.7956
L-140.3202 -7.7956
" />
<path d="M-139.3678 -7.7956
L-139.5464 -7.8908
" />
<path d="M-139.5464 -7.8908
L-139.6178 -8.0813
" />
<path d="M-139.6178 -8.0813
L-139.4035 -9.7956
" />
<path d="M-137.8321 -7.8908
L-138.0345 -7.7956
" />
<path d="M-138.0345 -7.7956
L-138.4154 -7.7956
" />
<path d="M-138.4154 -7.7956
L-138.5940 -7.8908
" />
<path d="M-138.5940 -7.8908
L-138.6654 -8.0813
" />
<path d="M-138.6654 -8.0813
L-138.5702 -8.8432
" />
<path d="M-138.5702 -8.8432
L-138.4511 -9.0337
" />
<path d="M-138.4511 -9.0337
L-138.2487 -9.1289
" />
<path d="M-138.2487 -9.1289
L-137.8678 -9.1289
" />
<path d="M-137.8678 -9.1289
L-137.6892 -9.0337
" />
<path d="M-137.6892 -9.0337
L-137.6178 -8.8432
" />
<path d="M-137.6178 -8.8432
L-137.6416 -8.6527
" />
<path d="M-137.6416 -8.6527
L-138.6178 -8.4622
" />
<path d="M-136.8678 -7.9860
L-136.7845 -7.8908
" />
<path d="M-136.7845 -7.8908
L-136.8916 -7.7956
" />
<path d="M-136.8916 -7.7956
L-136.9749 -7.8908
" />
<path d="M-136.9749 -7.8908
L-136.8678 -7.9860
" />
<path d="M-136.8678 -7.9860
L-136.8916 -7.7956
" />
<path d="M-136.7368 -9.0337
L-136.6535 -8.9384
" />
<path d="M-136.6535 -8.9384
L-136.7607 -8.8432
" />
<path d="M-136.7607 -8.8432
L-136.8440 -8.9384
" />
<path d="M-136.8440 -8.9384
L-136.7368 -9.0337
" />
<path d="M-136.7368 -9.0337
L-136.7607 -8.8432
" />
<path d="M-134.4154 -7.7956
L-134.1654 -9.7956
" />
<path d="M-134.1654 -9.7956
L-133.4035 -9.7956
" />
<path d="M-133.4035 -9.7956
L-133.2249 -9.7003
" />
<path d="M-133.2249 -9.7003
L-133.1416 -9.6051
" />
<path d="M-133.1416 -9.6051
L-133.0702 -9.4146
" />
<path d="M-133.0702 -9.4146
L-133.1059 -9.1289
" />
<path d="M-133.1059 -9.1289
L-133.2249 -8.9384
" />
<path d="M-133.2249 -8.9384
L-133.3321 -8.8432
" />
<path d="M-133.3321 -8.8432
L-133.5345 -8.7479
" />
<path d="M-133.5345 -8.7479
L-134.2964 -8.7479
" />
<path d="M-132.4154 -7.7956
L-132.2487 -9.1289
" />
<path d="M-132.1654 -9.7956
L-132.2726 -9.7003
" />
<path d="M-132.2726 -9.7003
L-132.1892 -9.6051
" />
<path d="M-132.1892 -9.6051
L-132.0821 -9.7003
" />
<path d="M-132.0821 -9.7003
L-132.1654 -9.7956
" />
<path d="M-132.1654 -9.7956
L-132.1892 -9.6051
" />
<path d="M-131.1773 -7.7956
L-131.3559 -7.8908
" />
<path d="M-131.3559 -7.8908
L-131.4273 -8.0813
" />
<path d="M-131.4273 -8.0813
L-131.2130 -9.7956
" />
<path d="M-130.1297 -7.7956
L-130.3083 -7.8908
" />
<path d="M-130.3083 -7.8908
L-130.3916 -7.9860
" />
<path d="M-130.3916 -7.9860
L-130.4630 -8.1765
" />
<path d="M-130.4630 -8.1765
L-130.3916 -8.7479
" />
<path d="M-130.3916 -8.7479
L-130.2726 -8.9384
" />
<path d="M-130.2726 -8.9384
L-130.1654 -9.0337
" />
<path d="M-130.1654 -9.0337
L-129.9630 -9.1289
" />
<path d="M-129.9630 -9.1289
L-129.6773 -9.1289
" />
<path d="M-129.6773 -9.1289
L-129.4987 -9.0337
" />
<path d="M-129.4987 -9.0337
L-129.4154 -8.9384
" />
<path d="M-129.4154 -8.9384
L-129.3440 -8.7479
" />
<path d="M-129.3440 -8.7479
L-129.4154 -8.1765
" />
<path d="M-129.4154 -8.1765
L-129.5345 -7.9860
" />
<path d="M-129.5345 -7.9860
L-129.6416 -7.8908
" />
<path d="M-129.6416 -7.8908
L-129.8440 -7.7956
" />
<path d="M-129.8440 -7.7956
L-130.1297 -7.7956
" />
<path d="M-128.7249 -9.1289
L-127.9630 -9.1289
" />
<path d="M-128.3559 -9.7956
L-128.5702 -8.0813
" />
<path d="M-128.5702 -8.0813
L-128.4987 -7.8908
" />
<path d="M-128.4987 -7.8908
L-128.3202 -7.7956
" />
<path d="M-128.3202 -7.7956
L-128.1297 -7.7956
" />
<path d="M-127.4630 -7.7956
L-127.2130 -9.7956
" />
<path d="M-127.2130 -9.7956
L-126.4511 -9.7956
" />
<path d="M-126.4511 -9.7956
L-126.2726 -9.7003
" />
<path d="M-126.2726 -9.7003
L-126.1892 -9.6051
" />
<path d="M-126.1892 -9.6051
L-126.1178 -9.4146
" />
<path d="M-126.1178 -9.4146
L-126.1535 -9.1289
" />
<path d="M-126.1535 -9.1289
L-126.2726 -8.9384
" />
<path d="M-126.2726 -8.9384
L-126.3797 -8.8432
" />
<path d="M-126.3797 -8.8432
L-126.5821 -8.7479
" />
<path d="M-126.5821 -8.7479
L-127.3440 -8.7479
" />
<path d="M-125.4630 -7.7956
L-125.2130 -9.7956
" />
<path d="M-122.8202 -9.1289
L-123.0702 -7.1289
" />
<path d="M-122.8321 -9.0337
L-122.6297 -9.1289
" />
<path d="M-122.6297 -9.1289
L-122.2487 -9.1289
" />
<path d="M-122.2487 -9.1289
L-122.0702 -9.0337
" />
<path d="M-122.0702 -9.0337
L-121.9868 -8.9384
" />
<path d="M-121.9868 -8.9384
L-121.9154 -8.7479
" />
<path d="M-121.9154 -8.7479
L-121.9868 -8.1765
" />
<path d="M-121.9868 -8.1765
L-122.1059 -7.9860
" />
<path d="M-122.1059 -7.9860
L-122.2130 -7.8908
" />
<path d="M-122.2130 -7.8908
L-122.4154 -7.7956
" />
<path d="M-122.4154 -7.7956
L-122.7964 -7.7956
" />
<path d="M-122.7964 -7.7956
L-122.9749 -7.8908
" />
<path d="M-120.8916 -7.7956
L-121.0702 -7.8908
" />
<path d="M-121.0702 -7.8908
L-121.1535 -7.9860
" />
<path d="M-121.1535 -7.9860
L-121.2249 -8.1765
" />
<path d="M-121.2249 -8.1765
L-121.1535 -8.7479
" />
<path d="M-121.1535 -8.7479
L-121.0345 -8.9384
" />
<path d="M-121.0345 -8.9384
L-120.9273 -9.0337
" />
<path d="M-120.9273 -9.0337
L-120.7249 -9.1289
" />
<path d="M-120.7249 -9.1289
L-120.4392 -9.1289
" />
<path d="M-120.4392 -9.1289
L-120.2606 -9.0337
" />
<path d="M-120.2606 -9.0337
L-120.1773 -8.9384
" />
<path d="M-120.1773 -8.9384
L-120.1059 -8.7479
" />
<path d="M-120.1059 -8.7479
L-120.1773 -8.1765
" />
<path d="M-120.1773 -8.1765
L-120.2964 -7.9860
" />
<path d="M-120.2964 -7.9860
L-120.4035 -7.8908
" />
<path d="M-120.4035 -7.8908
L-120.6059 -7.7956
" />
<path d="M-120.6059 -7.7956
L-120.8916 -7.7956
" />
<path d="M-119.3916 -9.1289
L-119.1773 -7.7956
" />
<path d="M-119.1773 -7.7956
L-118.6773 -8.7479
" />
<path d="M-118.6773 -8.7479
L-118.4154 -7.7956
" />
<path d="M-118.4154 -7.7956
L-117.8678 -9.1289
" />
<path d="M-116.4987 -7.8908
L-116.7011 -7.7956
" />
<path d="M-116.7011 -7.7956
L-117.0821 -7.7956
" />
<path d="M-117.0821 -7.7956
L-117.2606 -7.8908
" />
<path d="M-117.2606 -7.8908
L-117.3321 -8.0813
" />
<path d="M-117.3321 -8.0813
L-117.2368 -8.8432
" />
<path d="M-117.2368 -8.8432
L-117.1178 -9.0337
" />
<path d="M-117.1178 -9.0337
L-116.9154 -9.1289
" />
<path d="M-116.9154 -9.1289
L-116.5345 -9.1289
" />
<path d="M-116.5345 -9.1289
L-116.3559 -9.0337
" />
<path d="M-116.3559 -9.0337
L-116.2845 -8.8432
" />
<path d="M-116.2845 -8.8432
L-116.3083 -8.6527
" />
<path d="M-116.3083 -8.6527
L-117.2845 -8.4622
" />
<path d="M-115.5583 -7.7956
L-115.3916 -9.1289
" />
<path d="M-115.4392 -8.7479
L-115.3202 -8.9384
" />
<path d="M-115.3202 -8.9384
L-115.2130 -9.0337
" />
<path d="M-115.2130 -9.0337
L-115.0106 -9.1289
" />
<path d="M-115.0106 -9.1289
L-114.8202 -9.1289
" />
<path d="M-112.7964 -7.7956
L-112.5464 -9.7956
" />
<path d="M-112.6416 -9.0337
L-112.4392 -9.1289
" />
<path d="M-112.4392 -9.1289
L-112.0583 -9.1289
" />
<path d="M-112.0583 -9.1289
L-111.8797 -9.0337
" />
<path d="M-111.8797 -9.0337
L-111.7964 -8.9384
" />
<path d="M-111.7964 -8.9384
L-111.7249 -8.7479
" />
<path d="M-111.7249 -8.7479
L-111.7964 -8.1765
" />
<path d="M-111.7964 -8.1765
L-111.9154 -7.9860
" />
<path d="M-111.9154 -7.9860
L-112.0226 -7.8908
" />
<path d="M-112.0226 -7.8908
L-112.2249 -7.7956
" />
<path d="M-112.2249 -7.7956
L-112.6059 -7.7956
" />
<path d="M-112.6059 -7.7956
L-112.7845 -7.8908
" />
<path d="M-110.7011 -7.7956
L-110.8797 -7.8908
" />
<path d="M-110.8797 -7.8908
L-110.9630 -7.9860
" />
<path d="M-110.9630 -7.9860
L-111.0345 -8.1765
" />
<path d="M-111.0345 -8.1765
L-110.9630 -8.7479
" />
<path d="M-110.9630 -8.7479
L-110.8440 -8.9384
" />
<path d="M-110.8440 -8.9384
L-110.7368 -9.0337
" />
<path d="M-110.7368 -9.0337
L-110.5345 -9.1289
" />
<path d="M-110.5345 -9.1289
L-110.2487 -9.1289
" />
<path d="M-110.2487 -9.1289
L-110.0702 -9.0337
" />
<path d="M-110.0702 -9.0337
L-109.9868 -8.9384
" />
<path d="M-109.9868 -8.9384
L-109.9154 -8.7479
" />
<path d="M-109.9154 -8.7479
L-109.9868 -8.1765
" />
<path d="M-109.9868 -8.1765
L-110.1059 -7.9860
" />
<path d="M-110.1059 -7.9860
L-110.2130 -7.8908
" />
<path d="M-110.2130 -7.8908
L-110.4154 -7.7956
" />
<path d="M-110.4154 -7.7956
L-110.7011 -7.7956
" />
<path d="M-108.3202 -7.7956
L-108.1892 -8.8432
" />
<path d="M-108.1892 -8.8432
L-108.2606 -9.0337
" />
<path d="M-108.2606 -9.0337
L-108.4392 -9.1289
" />
<path d="M-108.4392 -9.1289
L-108.8202 -9.1289
" />
<path d="M-108.8202 -9.1289
L-109.0226 -9.0337
" />
<path d="M-108.3083 -7.8908
L-108.5106 -7.7956
" />
<path d="M-108.5106 -7.7956
L-108.9868 -7.7956
" />
<path d="M-108.9868 -7.7956
L-109.1654 -7.8908
" />
<path d="M-109.1654 -7.8908
L-109.2368 -8.0813
" />
<path d="M-109.2368 -8.0813
L-109.2130 -8.2718
" />
<path d="M-109.2130 -8.2718
L-109.0940 -8.4622
" />
<path d="M-109.0940 -8.4622
L-108.8916 -8.5575
" />
<path d="M-108.8916 -8.5575
L-108.4154 -8.5575
" />
<path d="M-108.4154 -8.5575
L-108.2130 -8.6527
" />
<path d="M-107.3678 -7.7956
L-107.2011 -9.1289
" />
<path d="M-107.2487 -8.7479
L-107.1297 -8.9384
" />
<path d="M-107.1297 -8.9384
L-107.0226 -9.0337
" />
<path d="M-107.0226 -9.0337
L-106.8202 -9.1289
" />
<path d="M-106.8202 -9.1289
L-106.6297 -9.1289
" />
<path d="M-105.2726 -7.7956
L-105.0226 -9.7956
" />
<path d="M-105.2606 -7.8908
L-105.4630 -7.7956
" />
<path d="M-105.4630 -7.7956
L-105.8440 -7.7956
" />
<path d="M-105.8440 -7.7956
L-106.0226 -7.8908
" />
<path d="M-106.0226 -7.8908
L-106.1059 -7.9860
" />
<path d="M-106.1059 -7.9860
L-106.1773 -8.1765
" />
<path d="M-106.1773 -8.1765
L-106.1059 -8.7479
" />
<path d="M-106.1059 -8.7479
L-105.9868 -8.9384
" />
<path d="M-105.9868 -8.9384
L-105.8797 -9.0337
" />
<path d="M-105.8797 -9.0337
L-105.6773 -9.1289
" />
<path d="M-105.6773 -9.1289
L-105.2964 -9.1289
" />
<path d="M-105.2964 -9.1289
L-105.1178 -9.0337
" />
</g></g>
<g style="fill:none; 
stroke:#C872AB; stroke-width:0.1500; stroke-opacity:1; 
stroke-linecap:round; stroke-linejoin:round;">
<text x="-144.0000" y="-11.5500"
textLength="24.3643" font-size="2.0000" lengthAdjust="spacingAndGlyphs"
text-anchor="start" opacity="0" stroke-opacity="0">File: power.kicad_pcb</text>
<g class="stroked-text"><desc>File: power.kicad_pcb</desc>
<path d="M-143.0442 -12.3996
L-143.5442 -12.3996
" />
<path d="M-143.5442 -11.6139
L-143.5442 -13.1139
" />
<path d="M-143.5442 -13.1139
L-142.8299 -13.1139
" />
<path d="M-142.2585 -11.6139
L-142.2585 -12.6139
" />
<path d="M-142.2585 -13.1139
L-142.3299 -13.0424
" />
<path d="M-142.3299 -13.0424
L-142.2585 -12.9710
" />
<path d="M-142.2585 -12.9710
L-142.1870 -13.0424
" />
<path d="M-142.1870 -13.0424
L-142.2585 -13.1139
" />
<path d="M-142.2585 -13.1139
L-142.2585 -12.9710
" />
<path d="M-141.3299 -11.6139
L-141.4727 -11.6853
" />
<path d="M-141.4727 -11.6853
L-141.5442 -11.8282
" />
<path d="M-141.5442 -11.8282
L-141.5442 -13.1139
" />
<path d="M-140.1870 -11.6853
L-140.3299 -11.6139
" />
<path d="M-140.3299 -11.6139
L-140.6156 -11.6139
" />
<path d="M-140.6156 -11.6139
L-140.7585 -11.6853
" />
<path d="M-140.7585 -11.6853
L-140.8299 -11.8282
" />
<path d="M-140.8299 -11.8282
L-140.8299 -12.3996
" />
<path d="M-140.8299 -12.3996
L-140.7585 -12.5424
" />
<path d="M-140.7585 -12.5424
L-140.6156 -12.6139
" />
<path d="M-140.6156 -12.6139
L-140.3299 -12.6139
" />
<path d="M-140.3299 -12.6139
L-140.1870 -12.5424
" />
<path d="M-140.1870 -12.5424
L-140.1156 -12.3996
" />
<path d="M-140.1156 -12.3996
L-140.1156 -12.2567
" />
<path d="M-140.1156 -12.2567
L-140.8299 -12.1139
" />
<path d="M-139.4727 -11.7567
L-139.4013 -11.6853
" />
<path d="M-139.4013 -11.6853
L-139.4727 -11.6139
" />
<path d="M-139.4727 -11.6139
L-139.5442 -11.6853
" />
<path d="M-139.5442 -11.6853
L-139.4727 -11.7567
" />
<path d="M-139.4727 -11.7567
L-139.4727 -11.6139
" />
<path d="M-139.4727 -12.5424
L-139.4013 -12.4710
" />
<path d="M-139.4013 -12.4710
L-139.4727 -12.3996
" />
<path d="M-139.4727 -12.3996
L-139.5442 -12.4710
" />
<path d="M-139.5442 -12.4710
L-139.4727 -12.5424
" />
<path d="M-139.4727 -12.5424
L-139.4727 -12.3996
" />
<path d="M-137.6156 -12.6139
L-137.6156 -11.1139
" />
<path d="M-137.6156 -12.5424
L-137.4727 -12.6139
" />
<path d="M-137.4727 -12.6139
L-137.1870 -12.6139
" />
<path d="M-137.1870 -12.6139
L-137.0442 -12.5424
" />
<path d="M-137.0442 -12.5424
L-136.9727 -12.4710
" />
<path d="M-136.9727 -12.4710
L-136.9013 -12.3282
" />
<path d="M-136.9013 -12.3282
L-136.9013 -11.8996
" />
<path d="M-136.9013 -11.8996
L-136.9727 -11.7567
" />
<path d="M-136.9727 -11.7567
L-137.0442 -11.6853
" />
<path d="M-137.0442 -11.6853
L-137.1870 -11.6139
" />
<path d="M-137.1870 -11.6139
L-137.4727 -11.6139
" />
<path d="M-137.4727 -11.6139
L-137.6156 -11.6853
" />
<path d="M-136.0442 -11.6139
L-136.1870 -11.6853
" />
<path d="M-136.1870 -11.6853
L-136.2585 -11.7567
" />
<path d="M-136.2585 -11.7567
L-136.3299 -11.8996
" />
<path d="M-136.3299 -11.8996
L-136.3299 -12.3282
" />
<path d="M-136.3299 -12.3282
L-136.2585 -12.4710
" />
<path d="M-136.2585 -12.4710
L-136.1870 -12.5424
" />
<path d="M-136.1870 -12.5424
L-136.0442 -12.6139
" />
<path d="M-136.0442 -12.6139
L-135.8299 -12.6139
" />
<path d="M-135.8299 -12.6139
L-135.6870 -12.5424
" />
<path d="M-135.6870 -12.5424
L-135.6156 -12.4710
" />
<path d="M-135.6156 -12.4710
L-135.5442 -12.3282
" />
<path d="M-135.5442 -12.3282
L-135.5442 -11.8996
" />
<path d="M-135.5442 -11.8996
L-135.6156 -11.7567
" />
<path d="M-135.6156 -11.7567
L-135.6870 -11.6853
" />
<path d="M-135.6870 -11.6853
L-135.8299 -11.6139
" />
<path d="M-135.8299 -11.6139
L-136.0442 -11.6139
" />
<path d="M-135.0442 -12.6139
L-134.7585 -11.6139
" />
<path d="M-134.7585 -11.6139
L-134.4727 -12.3282
" />
<path d="M-134.4727 -12.3282
L-134.1870 -11.6139
" />
<path d="M-134.1870 -11.6139
L-133.9013 -12.6139
" />
<path d="M-132.7585 -11.6853
L-132.9013 -11.6139
" />
<path d="M-132.9013 -11.6139
L-133.1870 -11.6139
" />
<path d="M-133.1870 -11.6139
L-133.3299 -11.6853
" />
<path d="M-133.3299 -11.6853
L-133.4013 -11.8282
" />
<path d="M-133.4013 -11.8282
L-133.4013 -12.3996
" />
<path d="M-133.4013 -12.3996
L-133.3299 -12.5424
" />
<path d="M-133.3299 -12.5424
L-133.1870 -12.6139
" />
<path d="M-133.1870 -12.6139
L-132.9013 -12.6139
" />
<path d="M-132.9013 -12.6139
L-132.7585 -12.5424
" />
<path d="M-132.7585 -12.5424
L-132.6870 -12.3996
" />
<path d="M-132.6870 -12.3996
L-132.6870 -12.2567
" />
<path d="M-132.6870 -12.2567
L-133.4013 -12.1139
" />
<path d="M-132.0442 -11.6139
L-132.0442 -12.6139
" />
<path d="M-132.0442 -12.3282
L-131.9727 -12.4710
" />
<path d="M-131.9727 -12.4710
L-131.9013 -12.5424
" />
<path d="M-131.9013 -12.5424
L-131.7585 -12.6139
" />
<path d="M-131.7585 -12.6139
L-131.6156 -12.6139
" />
<path d="M-131.1156 -11.7567
L-131.0442 -11.6853
" />
<path d="M-131.0442 -11.6853
L-131.1156 -11.6139
" />
<path d="M-131.1156 -11.6139
L-131.1870 -11.6853
" />
<path d="M-131.1870 -11.6853
L-131.1156 -11.7567
" />
<path d="M-131.1156 -11.7567
L-131.1156 -11.6139
" />
<path d="M-130.4013 -11.6139
L-130.4013 -13.1139
" />
<path d="M-130.2585 -12.1853
L-129.8299 -11.6139
" />
<path d="M-129.8299 -12.6139
L-130.4013 -12.0424
" />
<path d="M-129.1870 -11.6139
L-129.1870 -12.6139
" />
<path d="M-129.1870 -13.1139
L-129.2585 -13.0424
" />
<path d="M-129.2585 -13.0424
L-129.1870 -12.9710
" />
<path d="M-129.1870 -12.9710
L-129.1156 -13.0424
" />
<path d="M-129.1156 -13.0424
L-129.1870 -13.1139
" />
<path d="M-129.1870 -13.1139
L-129.1870 -12.9710
" />
<path d="M-127.8299 -11.6853
L-127.9727 -11.6139
" />
<path d="M-127.9727 -11.6139
L-128.2585 -11.6139
" />
<path d="M-128.2585 -11.6139
L-128.4013 -11.6853
" />
<path d="M-128.4013 -11.6853
L-128.4727 -11.7567
" />
<path d="M-128.4727 -11.7567
L-128.5442 -11.8996
" />
<path d="M-128.5442 -11.8996
L-128.5442 -12.3282
" />
<path d="M-128.5442 -12.3282
L-128.4727 -12.4710
" />
<path d="M-128.4727 -12.4710
L-128.4013 -12.5424
" />
<path d="M-128.4013 -12.5424
L-128.2585 -12.6139
" />
<path d="M-128.2585 -12.6139
L-127.9727 -12.6139
" />
<path d="M-127.9727 -12.6139
L-127.8299 -12.5424
" />
<path d="M-126.5442 -11.6139
L-126.5442 -12.3996
" />
<path d="M-126.5442 -12.3996
L-126.6156 -12.5424
" />
<path d="M-126.6156 -12.5424
L-126.7585 -12.6139
" />
<path d="M-126.7585 -12.6139
L-127.0442 -12.6139
" />
<path d="M-127.0442 -12.6139
L-127.1870 -12.5424
" />
<path d="M-126.5442 -11.6853
L-126.6870 -11.6139
" />
<path d="M-126.6870 -11.6139
L-127.0442 -11.6139
" />
<path d="M-127.0442 -11.6139
L-127.1870 -11.6853
" />
<path d="M-127.1870 -11.6853
L-127.2585 -11.8282
" />
<path d="M-127.2585 -11.8282
L-127.2585 -11.9710
" />
<path d="M-127.2585 -11.9710
L-127.1870 -12.1139
" />
<path d="M-127.1870 -12.1139
L-127.0442 -12.1853
" />
<path d="M-127.0442 -12.1853
L-126.6870 -12.1853
" />
<path d="M-126.6870 -12.1853
L-126.5442 -12.2567
" />
<path d="M-125.1870 -11.6139
L-125.1870 -13.1139
" />
<path d="M-125.1870 -11.6853
L-125.3299 -11.6139
" />
<path d="M-125.3299 -11.6139
L-125.6156 -11.6139
" />
<path d="M-125.6156 -11.6139
L-125.7585 -11.6853
" />
<path d="M-125.7585 -11.6853
L-125.8299 -11.7567
" />
<path d="M-125.8299 -11.7567
L-125.9013 -11.8996
" />
<path d="M-125.9013 -11.8996
L-125.9013 -12.3282
" />
<path d="M-125.9013 -12.3282
L-125.8299 -12.4710
" />
<path d="M-125.8299 -12.4710
L-125.7585 -12.5424
" />
<path d="M-125.7585 -12.5424
L-125.6156 -12.6139
" />
<path d="M-125.6156 -12.6139
L-125.3299 -12.6139
" />
<path d="M-125.3299 -12.6139
L-125.1870 -12.5424
" />
<path d="M-124.8299 -11.4710
L-123.6870 -11.4710
" />
<path d="M-123.3299 -12.6139
L-123.3299 -11.1139
" />
<path d="M-123.3299 -12.5424
L-123.1870 -12.6139
" />
<path d="M-123.1870 -12.6139
L-122.9013 -12.6139
" />
<path d="M-122.9013 -12.6139
L-122.7585 -12.5424
" />
<path d="M-122.7585 -12.5424
L-122.6870 -12.4710
" />
<path d="M-122.6870 -12.4710
L-122.6156 -12.3282
" />
<path d="M-122.6156 -12.3282
L-122.6156 -11.8996
" />
<path d="M-122.6156 -11.8996
L-122.6870 -11.7567
" />
<path d="M-122.6870 -11.7567
L-122.7585 -11.6853
" />
<path d="M-122.7585 -11.6853
L-122.9013 -11.6139
" />
<path d="M-122.9013 -11.6139
L-123.1870 -11.6139
" />
<path d="M-123.1870 -11.6139
L-123.3299 -11.6853
" />
<path d="M-121.3299 -11.6853
L-121.4727 -11.6139
" />
<path d="M-121.4727 -11.6139
L-121.7585 -11.6139
" />
<path d="M-121.7585 -11.6139
L-121.9013 -11.6853
" />
<path d="M-121.9013 -11.6853
L-121.9727 -11.7567
" />
<path d="M-121.9727 -11.7567
L-122.0442 -11.8996
" />
<path d="M-122.0442 -11.8996
L-122.0442 -12.3282
" />
<path d="M-122.0442 -12.3282
L-121.9727 -12.4710
" />
<path d="M-121.9727 -12.4710
L-121.9013 -12.5424
" />
<path d="M-121.9013 -12.5424
L-121.7585 -12.6139
" />
<path d="M-121.7585 -12.6139
L-121.4727 -12.6139
" />
<path d="M-121.4727 -12.6139
L-121.3299 -12.5424
" />
<path d="M-120.6870 -11.6139
L-120.6870 -13.1139
" />
<path d="M-120.6870 -12.5424
L-120.5442 -12.6139
" />
<path d="M-120.5442 -12.6139
L-120.2585 -12.6139
" />
<path d="M-120.2585 -12.6139
L-120.1156 -12.5424
" />
<path d="M-120.1156 -12.5424
L-120.0442 -12.4710
" />
<path d="M-120.0442 -12.4710
L-119.9727 -12.3282
" />
<path d="M-119.9727 -12.3282
L-119.9727 -11.8996
" />
<path d="M-119.9727 -11.8996
L-120.0442 -11.7567
" />
<path d="M-120.0442 -11.7567
L-120.1156 -11.6853
" />
<path d="M-120.1156 -11.6853
L-120.2585 -11.6139
" />
<path d="M-120.2585 -11.6139
L-120.5442 -11.6139
" />
<path d="M-120.5442 -11.6139
L-120.6870 -11.6853
" />
</g><path d="M-145.0000 -16.5000
L-37.0000 -16.5000
" />
<text x="-144.0000" y="-14.2500"
textLength="8.2214" font-size="2.0000" lengthAdjust="spacingAndGlyphs"
text-anchor="start" opacity="0" stroke-opacity="0">Sheet: </text>
<g class="stroked-text"><desc>Sheet: </desc>
<path d="M-143.6156 -14.3853
L-143.4013 -14.3139
" />
<path d="M-143.4013 -14.3139
L-143.0442 -14.3139
" />
<path d="M-143.0442 -14.3139
L-142.9013 -14.3853
" />
<path d="M-142.9013 -14.3853
L-142.8299 -14.4567
" />
<path d="M-142.8299 -14.4567
L-142.7585 -14.5996
" />
<path d="M-142.7585 -14.5996
L-142.7585 -14.7424
" />
<path d="M-142.7585 -14.7424
L-142.8299 -14.8853
" />
<path d="M-142.8299 -14.8853
L-142.9013 -14.9567
" />
<path d="M-142.9013 -14.9567
L-143.0442 -15.0282
" />
<path d="M-143.0442 -15.0282
L-143.3299 -15.0996
" />
<path d="M-143.3299 -15.0996
L-143.4727 -15.1710
" />
<path d="M-143.4727 -15.1710
L-143.5442 -15.2424
" />
<path d="M-143.5442 -15.2424
L-143.6156 -15.3853
" />
<path d="M-143.6156 -15.3853
L-143.6156 -15.5282
" />
<path d="M-143.6156 -15.5282
L-143.5442 -15.6710
" />
<path d="M-143.5442 -15.6710
L-143.4727 -15.7424
" />
<path d="M-143.4727 -15.7424
L-143.3299 -15.8139
" />
<path d="M-143.3299 -15.8139
L-142.9727 -15.8139
" />
<path d="M-142.9727 -15.8139
L-142.7585 -15.7424
" />
<path d="M-142.1156 -14.3139
L-142.1156 -15.8139
" />
<path d="M-141.4727 -14.3139
L-141.4727 -15.0996
" />
<path d="M-141.4727 -15.0996
L-141.5442 -15.2424
" />
<path d="M-141.5442 -15.2424
L-141.6870 -15.3139
" />
<path d="M-141.6870 -15.3139
L-141.9013 -15.3139
" />
<path d="M-141.9013 -15.3139
L-142.0442 -15.2424
" />
<path d="M-142.0442 -15.2424
L-142.1156 -15.1710
" />
<path d="M-140.1870 -14.3853
L-140.3299 -14.3139
" />
<path d="M-140.3299 -14.3139
L-140.6156 -14.3139
" />
<path d="M-140.6156 -14.3139
L-140.7585 -14.3853
" />
<path d="M-140.7585 -14.3853
L-140.8299 -14.5282
" />
<path d="M-140.8299 -14.5282
L-140.8299 -15.0996
" />
<path d="M-140.8299 -15.0996
L-140.7585 -15.2424
" />
<path d="M-140.7585 -15.2424
L-140.6156 -15.3139
" />
<path d="M-140.6156 -15.3139
L-140.3299 -15.3139
" />
<path d="M-140.3299 -15.3139
L-140.1870 -15.2424
" />
<path d="M-140.1870 -15.2424
L-140.1156 -15.0996
" />
<path d="M-140.1156 -15.0996
L-140.1156 -14.9567
" />
<path d="M-140.1156 -14.9567
L-140.8299 -14.8139
" />
<path d="M-138.9013 -14.3853
L-139.0442 -14.3139
" />
<path d="M-139.0442 -14.3139
L-139.3299 -14.3139
" />
<path d="M-139.3299 -14.3139
L-139.4727 -14.3853
" />
<path d="M-139.4727 -14.3853
L-139.5442 -14.5282
" />
<path d="M-139.5442 -14.5282
L-139.5442 -15.0996
" />
<path d="M-139.5442 -15.0996
L-139.4727 -15.2424
" />
<path d="M-139.4727 -15.2424
L-139.3299 -15.3139
" />
<path d="M-139.3299 -15.3139
L-139.0442 -15.3139
" />
<path d="M-139.0442 -15.3139
L-138.9013 -15.2424
" />
<path d="M-138.9013 -15.2424
L-138.8299 -15.0996
" />
<path d="M-138.8299 -15.0996
L-138.8299 -14.9567
" />
<path d="M-138.8299 -14.9567
L-139.5442 -14.8139
" />
<path d="M-138.4013 -15.3139
L-137.8299 -15.3139
" />
<path d="M-138.1870 -15.8139
L-138.1870 -14.5282
" />
<path d="M-138.1870 -14.5282
L-138.1156 -14.3853
" />
<path d="M-138.1156 -14.3853
L-137.9727 -14.3139
" />
<path d="M-137.9727 -14.3139
L-137.8299 -14.3139
" />
<path d="M-137.3299 -14.4567
L-137.2585 -14.3853
" />
<path d="M-137.2585 -14.3853
L-137.3299 -14.3139
" />
<path d="M-137.3299 -14.3139
L-137.4013 -14.3853
" />
<path d="M-137.4013 -14.3853
L-137.3299 -14.4567
" />
<path d="M-137.3299 -14.4567
L-137.3299 -14.3139
" />
<path d="M-137.3299 -15.2424
L-137.2585 -15.1710
" />
<path d="M-137.2585 -15.1710
L-137.3299 -15.0996
" />
<path d="M-137.3299 -15.0996
L-137.4013 -15.1710
" />
<path d="M-137.4013 -15.1710
L-137.3299 -15.2424
" />
<path d="M-137.3299 -15.2424
L-137.3299 -15.0996
" />
</g></g>
<g style="fill:none; 
stroke:#C872AB; stroke-width:0.3000; stroke-opacity:1; 
stroke-linecap:round; stroke-linejoin:round;">
<text x="-144.0000" y="-17.2500"
textLength="0.9000" font-size="2.0000" lengthAdjust="spacingAndGlyphs"
text-anchor="start" opacity="0" stroke-opacity="0"></text>
<g class="stroked-text"><desc></desc>
</g></g>
<g style="fill:none; 
stroke:#C872AB; stroke-width:0.1500; stroke-opacity:1; 
stroke-linecap:round; stroke-linejoin:round;">
<text x="-144.0000" y="-20.2500"
textLength="53.5071" font-size="2.0000" lengthAdjust="spacingAndGlyphs"
text-anchor="start" opacity="0" stroke-opacity="0">Breaks out PWM pins since it's topmost board</text>
<g class="stroked-text"><desc>Breaks out PWM pins since it's topmost board</desc>
<path d="M-143.0442 -21.0996
L-142.8299 -21.0282
" />
<path d="M-142.8299 -21.0282
L-142.7585 -20.9567
" />
<path d="M-142.7585 -20.9567
L-142.6870 -20.8139
" />
<path d="M-142.6870 -20.8139
L-142.6870 -20.5996
" />
<path d="M-142.6870 -20.5996
L-142.7585 -20.4567
" />
<path d="M-142.7585 -20.4567
L-142.8299 -20.3853
" />
<path d="M-142.8299 -20.3853
L-142.9727 -20.3139
" />
<path d="M-142.9727 -20.3139
L-143.5442 -20.3139
" />
<path d="M-143.5442 -20.3139
L-143.5442 -21.8139
" />
<path d="M-143.5442 -21.8139
L-143.0442 -21.8139
" />
<path d="M-143.0442 -21.8139
L-142.9013 -21.7424
" />
<path d="M-142.9013 -21.7424
L-142.8299 -21.6710
" />
<path d="M-142.8299 -21.6710
L-142.7585 -21.5282
" />
<path d="M-142.7585 -21.5282
L-142.7585 -21.3853
" />
<path d="M-142.7585 -21.3853
L-142.8299 -21.2424
" />
<path d="M-142.8299 -21.2424
L-142.9013 -21.1710
" />
<path d="M-142.9013 -21.1710
L-143.0442 -21.0996
" />
<path d="M-143.0442 -21.0996
L-143.5442 -21.0996
" />
<path d="M-142.0442 -20.3139
L-142.0442 -21.3139
" />
<path d="M-142.0442 -21.0282
L-141.9727 -21.1710
" />
<path d="M-141.9727 -21.1710
L-141.9013 -21.2424
" />
<path d="M-141.9013 -21.2424
L-141.7585 -21.3139
" />
<path d="M-141.7585 -21.3139
L-141.6156 -21.3139
" />
<path d="M-140.5442 -20.3853
L-140.6870 -20.3139
" />
<path d="M-140.6870 -20.3139
L-140.9727 -20.3139
" />
<path d="M-140.9727 -20.3139
L-141.1156 -20.3853
" />
<path d="M-141.1156 -20.3853
L-141.1870 -20.5282
" />
<path d="M-141.1870 -20.5282
L-141.1870 -21.0996
" />
<path d="M-141.1870 -21.0996
L-141.1156 -21.2424
" />
<path d="M-141.1156 -21.2424
L-140.9727 -21.3139
" />
<path d="M-140.9727 -21.3139
L-140.6870 -21.3139
" />
<path d="M-140.6870 -21.3139
L-140.5442 -21.2424
" />
<path d="M-140.5442 -21.2424
L-140.4727 -21.0996
" />
<path d="M-140.4727 -21.0996
L-140.4727 -20.9567
" />
<path d="M-140.4727 -20.9567
L-141.1870 -20.8139
" />
<path d="M-139.1870 -20.3139
L-139.1870 -21.0996
" />
<path d="M-139.1870 -21.0996
L-139.2585 -21.2424
" />
<path d="M-139.2585 -21.2424
L-139.4013 -21.3139
" />
<path d="M-139.4013 -21.3139
L-139.6870 -21.3139
" />
<path d="M-139.6870 -21.3139
L-139.8299 -21.2424
" />
<path d="M-139.1870 -20.3853
L-139.3299 -20.3139
" />
<path d="M-139.3299 -20.3139
L-139.6870 -20.3139
" />
<path d="M-139.6870 -20.3139
L-139.8299 -20.3853
" />
<path d="M-139.8299 -20.3853
L-139.9013 -20.5282
" />
<path d="M-139.9013 -20.5282
L-139.9013 -20.6710
" />
<path d="M-139.9013 -20.6710
L-139.8299 -20.8139
" />
<path d="M-139.8299 -20.8139
L-139.6870 -20.8853
" />
<path d="M-139.6870 -20.8853
L-139.3299 -20.8853
" />
<path d="M-139.3299 -20.8853
L-139.1870 -20.9567
" />
<path d="M-138.4727 -20.3139
L-138.4727 -21.8139
" />
<path d="M-138.3299 -20.8853
L-137.9013 -20.3139
" />
<path d="M-137.9013 -21.3139
L-138.4727 -20.7424
" />
<path d="M-137.3299 -20.3853
L-137.1870 -20.3139
" />
<path d="M-137.1870 -20.3139
L-136.9013 -20.3139
" />
<path d="M-136.9013 -20.3139
L-136.7585 -20.3853
" />
<path d="M-136.7585 -20.3853
L-136.6870 -20.5282
" />
<path d="M-136.6870 -20.5282
L-136.6870 -20.5996
" />
<path d="M-136.6870 -20.5996
L-136.7585 -20.7424
" />
<path d="M-136.7585 -20.7424
L-136.9013 -20.8139
" />
<path d="M-136.9013 -20.8139
L-137.1156 -20.8139
" />
<path d="M-137.1156 -20.8139
L-137.2585 -20.8853
" />
<path d="M-137.2585 -20.8853
L-137.3299 -21.0282
" />
<path d="M-137.3299 -21.0282
L-137.3299 -21.0996
" />
<path d="M-137.3299 -21.0996
L-137.2585 -21.2424
" />
<path d="M-137.2585 -21.2424
L-137.1156 -21.3139
" />
<path d="M-137.1156 -21.3139
L-136.9013 -21.3139
" />
<path d="M-136.9013 -21.3139
L-136.7585 -21.2424
" />
<path d="M-134.6870 -20.3139
L-134.8299 -20.3853
" />
<path d="M-134.8299 -20.3853
L-134.9013 -20.4567
" />
<path d="M-134.9013 -20.4567
L-134.9727 -20.5996
" />
<path d="M-134.9727 -20.5996
L-134.9727 -21.0282
" />
<path d="M-134.9727 -21.0282
L-134.9013 -21.1710
" />
<path d="M-134.9013 -21.1710
L-134.8299 -21.2424
" />
<path d="M-134.8299 -21.2424
L-134.6870 -21.3139
" />
<path d="M-134.6870 -21.3139
L-134.4727 -21.3139
" />
<path d="M-134.4727 -21.3139
L-134.3299 -21.2424
" />
<path d="M-134.3299 -21.2424
L-134.2585 -21.1710
" />
<path d="M-134.2585 -21.1710
L-134.1870 -21.0282
" />
<path d="M-134.1870 -21.0282
L-134.1870 -20.5996
" />
<path d="M-134.1870 -20.5996
L-134.2585 -20.4567
" />
<path d="M-134.2585 -20.4567
L-134.3299 -20.3853
" />
<path d="M-134.3299 -20.3853
L-134.4727 -20.3139
" />
<path d="M-134.4727 -20.3139
L-134.6870 -20.3139
" />
<path d="M-132.9013 -21.3139
L-132.9013 -20.3139
" />
<path d="M-133.5442 -21.3139
L-133.5442 -20.5282
" />
<path d="M-133.5442 -20.5282
L-133.4727 -20.3853
" />
<path d="M-133.4727 -20.3853
L-133.3299 -20.3139
" />
<path d="M-133.3299 -20.3139
L-133.1156 -20.3139
" />
<path d="M-133.1156 -20.3139
L-132.9727 -20.3853
" />
<path d="M-132.9727 -20.3853
L-132.9013 -20.4567
" />
<path d="M-132.4013 -21.3139
L-131.8299 -21.3139
" />
<path d="M-132.1870 -21.8139
L-132.1870 -20.5282
" />
<path d="M-132.1870 -20.5282
L-132.1156 -20.3853
" />
<path d="M-132.1156 -20.3853
L-131.9727 -20.3139
" />
<path d="M-131.9727 -20.3139
L-131.8299 -20.3139
" />
<path d="M-130.1870 -20.3139
L-130.1870 -21.8139
" />
<path d="M-130.1870 -21.8139
L-129.6156 -21.8139
" />
<path d="M-129.6156 -21.8139
L-129.4727 -21.7424
" />
<path d="M-129.4727 -21.7424
L-129.4013 -21.6710
" />
<path d="M-129.4013 -21.6710
L-129.3299 -21.5282
" />
<path d="M-129.3299 -21.5282
L-129.3299 -21.3139
" />
<path d="M-129.3299 -21.3139
L-129.4013 -21.1710
" />
<path d="M-129.4013 -21.1710
L-129.4727 -21.0996
" />
<path d="M-129.4727 -21.0996
L-129.6156 -21.0282
" />
<path d="M-129.6156 -21.0282
L-130.1870 -21.0282
" />
<path d="M-128.8299 -21.8139
L-128.4727 -20.3139
" />
<path d="M-128.4727 -20.3139
L-128.1870 -21.3853
" />
<path d="M-128.1870 -21.3853
L-127.9013 -20.3139
" />
<path d="M-127.9013 -20.3139
L-127.5442 -21.8139
" />
<path d="M-126.9727 -20.3139
L-126.9727 -21.8139
" />
<path d="M-126.9727 -21.8139
L-126.4727 -20.7424
" />
<path d="M-126.4727 -20.7424
L-125.9727 -21.8139
" />
<path d="M-125.9727 -21.8139
L-125.9727 -20.3139
" />
<path d="M-124.1156 -21.3139
L-124.1156 -19.8139
" />
<path d="M-124.1156 -21.2424
L-123.9727 -21.3139
" />
<path d="M-123.9727 -21.3139
L-123.6870 -21.3139
" />
<path d="M-123.6870 -21.3139
L-123.5442 -21.2424
" />
<path d="M-123.5442 -21.2424
L-123.4727 -21.1710
" />
<path d="M-123.4727 -21.1710
L-123.4013 -21.0282
" />
<path d="M-123.4013 -21.0282
L-123.4013 -20.5996
" />
<path d="M-123.4013 -20.5996
L-123.4727 -20.4567
" />
<path d="M-123.4727 -20.4567
L-123.5442 -20.3853
" />
<path d="M-123.5442 -20.3853
L-123.6870 -20.3139
" />
<path d="M-123.6870 -20.3139
L-123.9727 -20.3139
" />
<path d="M-123.9727 -20.3139
L-124.1156 -20.3853
" />
<path d="M-122.7585 -20.3139
L-122.7585 -21.3139
" />
<path d="M-122.7585 -21.8139
L-122.8299 -21.7424
" />
<path d="M-122.8299 -21.7424
L-122.7585 -21.6710
" />
<path d="M-122.7585 -21.6710
L-122.6870 -21.7424
" />
<path d="M-122.6870 -21.7424
L-122.7585 -21.8139
" />
<path d="M-122.7585 -21.8139
L-122.7585 -21.6710
" />
<path d="M-122.0442 -21.3139
L-122.0442 -20.3139
" />
<path d="M-122.0442 -21.1710
L-121.9727 -21.2424
" />
<path d="M-121.9727 -21.2424
L-121.8299 -21.3139
" />
<path d="M-121.8299 -21.3139
L-121.6156 -21.3139
" />
<path d="M-121.6156 -21.3139
L-121.4727 -21.2424
" />
<path d="M-121.4727 -21.2424
L-121.4013 -21.0996
" />
<path d="M-121.4013 -21.0996
L-121.4013 -20.3139
" />
<path d="M-120.7585 -20.3853
L-120.6156 -20.3139
" />
<path d="M-120.6156 -20.3139
L-120.3299 -20.3139
" />
<path d="M-120.3299 -20.3139
L-120.1870 -20.3853
" />
<path d="M-120.1870 -20.3853
L-120.1156 -20.5282
" />
<path d="M-120.1156 -20.5282
L-120.1156 -20.5996
" />
<path d="M-120.1156 -20.5996
L-120.1870 -20.7424
" />
<path d="M-120.1870 -20.7424
L-120.3299 -20.8139
" />
<path d="M-120.3299 -20.8139
L-120.5442 -20.8139
" />
<path d="M-120.5442 -20.8139
L-120.6870 -20.8853
" />
<path d="M-120.6870 -20.8853
L-120.7585 -21.0282
" />
<path d="M-120.7585 -21.0282
L-120.7585 -21.0996
" />
<path d="M-120.7585 -21.0996
L-120.6870 -21.2424
" />
<path d="M-120.6870 -21.2424
L-120.5442 -21.3139
" />
<path d="M-120.5442 -21.3139
L-120.3299 -21.3139
" />
<path d="M-120.3299 -21.3139
L-120.1870 -21.2424
" />
<path d="M-118.4013 -20.3853
L-118.2585 -20.3139
" />
<path d="M-118.2585 -20.3139
L-117.9727 -20.3139
" />
<path d="M-117.9727 -20.3139
L-117.8299 -20.3853
" />
<path d="M-117.8299 -20.3853
L-117.7585 -20.5282
" />
<path d="M-117.7585 -20.5282
L-117.7585 -20.5996
" />
<path d="M-117.7585 -20.5996
L-117.8299 -20.7424
" />
<path d="M-117.8299 -20.7424
L-117.9727 -20.8139
" />
<path d="M-117.9727 -20.8139
L-118.1870 -20.8139
" />
<path d="M-118.1870 -20.8139
L-118.3299 -20.8853
" />
<path d="M-118.3299 -20.8853
L-118.4013 -21.0282
" />
<path d="M-118.4013 -21.0282
L-118.4013 -21.0996
" />
<path d="M-118.4013 -21.0996
L-118.3299 -21.2424
" />
<path d="M-118.3299 -21.2424
L-118.1870 -21.3139
" />
<path d="M-118.1870 -21.3139
L-117.9727 -21.3139
" />
<path d="M-117.9727 -21.3139
L-117.8299 -21.2424
" />
<path d="M-117.1156 -20.3139
L-117.1156 -21.3139
" />
<path d="M-117.1156 -21.8139
L-117.1870 -21.7424
" />
<path d="M-117.1870 -21.7424
L-117.1156 -21.6710
" />
<path d="M-117.1156 -21.6710
L-117.0442 -21.7424
" />
<path d="M-117.0442 -21.7424
L-117.1156 -21.8139
" />
<path d="M-117.1156 -21.8139
L-117.1156 -21.6710
" />
<path d="M-116.4013 -21.3139
L-116.4013 -20.3139
" />
<path d="M-116.4013 -21.1710
L-116.3299 -21.2424
" />
<path d="M-116.3299 -21.2424
L-116.1870 -21.3139
" />
<path d="M-116.1870 -21.3139
L-115.9727 -21.3139
" />
<path d="M-115.9727 -21.3139
L-115.8299 -21.2424
" />
<path d="M-115.8299 -21.2424
L-115.7585 -21.0996
" />
<path d="M-115.7585 -21.0996
L-115.7585 -20.3139
" />
<path d="M-114.4013 -20.3853
L-114.5442 -20.3139
" />
<path d="M-114.5442 -20.3139
L-114.8299 -20.3139
" />
<path d="M-114.8299 -20.3139
L-114.9727 -20.3853
" />
<path d="M-114.9727 -20.3853
L-115.0442 -20.4567
" />
<path d="M-115.0442 -20.4567
L-115.1156 -20.5996
" />
<path d="M-115.1156 -20.5996
L-115.1156 -21.0282
" />
<path d="M-115.1156 -21.0282
L-115.0442 -21.1710
" />
<path d="M-115.0442 -21.1710
L-114.9727 -21.2424
" />
<path d="M-114.9727 -21.2424
L-114.8299 -21.3139
" />
<path d="M-114.8299 -21.3139
L-114.5442 -21.3139
" />
<path d="M-114.5442 -21.3139
L-114.4013 -21.2424
" />
<path d="M-113.1870 -20.3853
L-113.3299 -20.3139
" />
<path d="M-113.3299 -20.3139
L-113.6156 -20.3139
" />
<path d="M-113.6156 -20.3139
L-113.7585 -20.3853
" />
<path d="M-113.7585 -20.3853
L-113.8299 -20.5282
" />
<path d="M-113.8299 -20.5282
L-113.8299 -21.0996
" />
<path d="M-113.8299 -21.0996
L-113.7585 -21.2424
" />
<path d="M-113.7585 -21.2424
L-113.6156 -21.3139
" />
<path d="M-113.6156 -21.3139
L-113.3299 -21.3139
" />
<path d="M-113.3299 -21.3139
L-113.1870 -21.2424
" />
<path d="M-113.1870 -21.2424
L-113.1156 -21.0996
" />
<path d="M-113.1156 -21.0996
L-113.1156 -20.9567
" />
<path d="M-113.1156 -20.9567
L-113.8299 -20.8139
" />
<path d="M-111.3299 -20.3139
L-111.3299 -21.3139
" />
<path d="M-111.3299 -21.8139
L-111.4013 -21.7424
" />
<path d="M-111.4013 -21.7424
L-111.3299 -21.6710
" />
<path d="M-111.3299 -21.6710
L-111.2585 -21.7424
" />
<path d="M-111.2585 -21.7424
L-111.3299 -21.8139
" />
<path d="M-111.3299 -21.8139
L-111.3299 -21.6710
" />
<path d="M-110.8299 -21.3139
L-110.2585 -21.3139
" />
<path d="M-110.6156 -21.8139
L-110.6156 -20.5282
" />
<path d="M-110.6156 -20.5282
L-110.5442 -20.3853
" />
<path d="M-110.5442 -20.3853
L-110.4013 -20.3139
" />
<path d="M-110.4013 -20.3139
L-110.2585 -20.3139
" />
<path d="M-109.6870 -21.8139
L-109.8299 -21.5282
" />
<path d="M-109.1156 -20.3853
L-108.9727 -20.3139
" />
<path d="M-108.9727 -20.3139
L-108.6870 -20.3139
" />
<path d="M-108.6870 -20.3139
L-108.5442 -20.3853
" />
<path d="M-108.5442 -20.3853
L-108.4727 -20.5282
" />
<path d="M-108.4727 -20.5282
L-108.4727 -20.5996
" />
<path d="M-108.4727 -20.5996
L-108.5442 -20.7424
" />
<path d="M-108.5442 -20.7424
L-108.6870 -20.8139
" />
<path d="M-108.6870 -20.8139
L-108.9013 -20.8139
" />
<path d="M-108.9013 -20.8139
L-109.0442 -20.8853
" />
<path d="M-109.0442 -20.8853
L-109.1156 -21.0282
" />
<path d="M-109.1156 -21.0282
L-109.1156 -21.0996
" />
<path d="M-109.1156 -21.0996
L-109.0442 -21.2424
" />
<path d="M-109.0442 -21.2424
L-108.9013 -21.3139
" />
<path d="M-108.9013 -21.3139
L-108.6870 -21.3139
" />
<path d="M-108.6870 -21.3139
L-108.5442 -21.2424
" />
<path d="M-106.9013 -21.3139
L-106.3299 -21.3139
" />
<path d="M-106.6870 -21.8139
L-106.6870 -20.5282
" />
<path d="M-106.6870 -20.5282
L-106.6156 -20.3853
" />
<path d="M-106.6156 -20.3853
L-106.4727 -20.3139
" />
<path d="M-106.4727 -20.3139
L-106.3299 -20.3139
" />
<path d="M-105.6156 -20.3139
L-105.7585 -20.3853
" />
<path d="M-105.7585 -20.3853
L-105.8299 -20.4567
" />
<path d="M-105.8299 -20.4567
L-105.9013 -20.5996
" />
<path d="M-105.9013 -20.5996
L-105.9013 -21.0282
" />
<path d="M-105.9013 -21.0282
L-105.8299 -21.1710
" />
<path d="M-105.8299 -21.1710
L-105.7585 -21.2424
" />
<path d="M-105.7585 -21.2424
L-105.6156 -21.3139
" />
<path d="M-105.6156 -21.3139
L-105.4013 -21.3139
" />
<path d="M-105.4013 -21.3139
L-105.2585 -21.2424
" />
<path d="M-105.2585 -21.2424
L-105.1870 -21.1710
" />
<path d="M-105.1870 -21.1710
L-105.1156 -21.0282
" />
<path d="M-105.1156 -21.0282
L-105.1156 -20.5996
" />
<path d="M-105.1156 -20.5996
L-105.1870 -20.4567
" />
<path d="M-105.1870 -20.4567
L-105.2585 -20.3853
" />
<path d="M-105.2585 -20.3853
L-105.4013 -20.3139
" />
<path d="M-105.4013 -20.3139
L-105.6156 -20.3139
" />
<path d="M-104.4727 -21.3139
L-104.4727 -19.8139
" />
<path d="M-104.4727 -21.2424
L-104.3299 -21.3139
" />
<path d="M-104.3299 -21.3139
L-104.0442 -21.3139
" />
<path d="M-104.0442 -21.3139
L-103.9013 -21.2424
" />
<path d="M-103.9013 -21.2424
L-103.8299 -21.1710
" />
<path d="M-103.8299 -21.1710
L-103.7585 -21.0282
" />
<path d="M-103.7585 -21.0282
L-103.7585 -20.5996
" />
<path d="M-103.7585 -20.5996
L-103.8299 -20.4567
" />
<path d="M-103.8299 -20.4567
L-103.9013 -20.3853
" />
<path d="M-103.9013 -20.3853
L-104.0442 -20.3139
" />
<path d="M-104.0442 -20.3139
L-104.3299 -20.3139
" />
<path d="M-104.3299 -20.3139
L-104.4727 -20.3853
" />
<path d="M-103.1156 -20.3139
L-103.1156 -21.3139
" />
<path d="M-103.1156 -21.1710
L-103.0442 -21.2424
" />
<path d="M-103.0442 -21.2424
L-102.9013 -21.3139
" />
<path d="M-102.9013 -21.3139
L-102.6870 -21.3139
" />
<path d="M-102.6870 -21.3139
L-102.5442 -21.2424
" />
<path d="M-102.5442 -21.2424
L-102.4727 -21.0996
" />
<path d="M-102.4727 -21.0996
L-102.4727 -20.3139
" />
<path d="M-102.4727 -21.0996
L-102.4013 -21.2424
" />
<path d="M-102.4013 -21.2424
L-102.2585 -21.3139
" />
<path d="M-102.2585 -21.3139
L-102.0442 -21.3139
" />
<path d="M-102.0442 -21.3139
L-101.9013 -21.2424
" />
<path d="M-101.9013 -21.2424
L-101.8299 -21.0996
" />
<path d="M-101.8299 -21.0996
L-101.8299 -20.3139
" />
<path d="M-100.9013 -20.3139
L-101.0442 -20.3853
" />
<path d="M-101.0442 -20.3853
L-101.1156 -20.4567
" />
<path d="M-101.1156 -20.4567
L-101.1870 -20.5996
" />
<path d="M-101.1870 -20.5996
L-101.1870 -21.0282
" />
<path d="M-101.1870 -21.0282
L-101.1156 -21.1710
" />
<path d="M-101.1156 -21.1710
L-101.0442 -21.2424
" />
<path d="M-101.0442 -21.2424
L-100.9013 -21.3139
" />
<path d="M-100.9013 -21.3139
L-100.6870 -21.3139
" />
<path d="M-100.6870 -21.3139
L-100.5442 -21.2424
" />
<path d="M-100.5442 -21.2424
L-100.4727 -21.1710
" />
<path d="M-100.4727 -21.1710
L-100.4013 -21.0282
" />
<path d="M-100.4013 -21.0282
L-100.4013 -20.5996
" />
<path d="M-100.4013 -20.5996
L-100.4727 -20.4567
" />
<path d="M-100.4727 -20.4567
L-100.5442 -20.3853
" />
<path d="M-100.5442 -20.3853
L-100.6870 -20.3139
" />
<path d="M-100.6870 -20.3139
L-100.9013 -20.3139
" />
<path d="M-99.8299 -20.3853
L-99.6870 -20.3139
" />
<path d="M-99.6870 -20.3139
L-99.4013 -20.3139
" />
<path d="M-99.4013 -20.3139
L-99.2585 -20.3853
" />
<path d="M-99.2585 -20.3853
L-99.1870 -20.5282
" />
<path d="M-99.1870 -20.5282
L-99.1870 -20.5996
" />
<path d="M-99.1870 -20.5996
L-99.2585 -20.7424
" />
<path d="M-99.2585 -20.7424
L-99.4013 -20.8139
" />
<path d="M-99.4013 -20.8139
L-99.6156 -20.8139
" />
<path d="M-99.6156 -20.8139
L-99.7585 -20.8853
" />
<path d="M-99.7585 -20.8853
L-99.8299 -21.0282
" />
<path d="M-99.8299 -21.0282
L-99.8299 -21.0996
" />
<path d="M-99.8299 -21.0996
L-99.7585 -21.2424
" />
<path d="M-99.7585 -21.2424
L-99.6156 -21.3139
" />
<path d="M-99.6156 -21.3139
L-99.4013 -21.3139
" />
<path d="M-99.4013 -21.3139
L-99.2585 -21.2424
" />
<path d="M-98.7585 -21.3139
L-98.1870 -21.3139
" />
<path d="M-98.5442 -21.8139
L-98.5442 -20.5282
" />
<path d="M-98.5442 -20.5282
L-98.4727 -20.3853
" />
<path d="M-98.4727 -20.3853
L-98.3299 -20.3139
" />
<path d="M-98.3299 -20.3139
L-98.1870 -20.3139
" />
<path d="M-96.5442 -20.3139
L-96.5442 -21.8139
" />
<path d="M-96.5442 -21.2424
L-96.4013 -21.3139
" />
<path d="M-96.4013 -21.3139
L-96.1156 -21.3139
" />
<path d="M-96.1156 -21.3139
L-95.9727 -21.2424
" />
<path d="M-95.9727 -21.2424
L-95.9013 -21.1710
" />
<path d="M-95.9013 -21.1710
L-95.8299 -21.0282
" />
<path d="M-95.8299 -21.0282
L-95.8299 -20.5996
" />
<path d="M-95.8299 -20.5996
L-95.9013 -20.4567
" />
<path d="M-95.9013 -20.4567
L-95.9727 -20.3853
" />
<path d="M-95.9727 -20.3853
L-96.1156 -20.3139
" />
<path d="M-96.1156 -20.3139
L-96.4013 -20.3139
" />
<path d="M-96.4013 -20.3139
L-96.5442 -20.3853
" />
<path d="M-94.9727 -20.3139
L-95.1156 -20.3853
" />
<path d="M-95.1156 -20.3853
L-95.1870 -20.4567
" />
<path d="M-95.1870 -20.4567
L-95.2585 -20.5996
" />
<path d="M-95.2585 -20.5996
L-95.2585 -21.0282
" />
<path d="M-95.2585 -21.0282
L-95.1870 -21.1710
" />
<path d="M-95.1870 -21.1710
L-95.1156 -21.2424
" />
<path d="M-95.1156 -21.2424
L-94.9727 -21.3139
" />
<path d="M-94.9727 -21.3139
L-94.7585 -21.3139
" />
<path d="M-94.7585 -21.3139
L-94.6156 -21.2424
" />
<path d="M-94.6156 -21.2424
L-94.5442 -21.1710
" />
<path d="M-94.5442 -21.1710
L-94.4727 -21.0282
" />
<path d="M-94.4727 -21.0282
L-94.4727 -20.5996
" />
<path d="M-94.4727 -20.5996
L-94.5442 -20.4567
" />
<path d="M-94.5442 -20.4567
L-94.6156 -20.3853
" />
<path d="M-94.6156 -20.3853
L-94.7585 -20.3139
" />
<path d="M-94.7585 -20.3139
L-94.9727 -20.3139
" />
<path d="M-93.1870 -20.3139
L-93.1870 -21.0996
" />
<path d="M-93.1870 -21.0996
L-93.2585 -21.2424
" />
<path d="M-93.2585 -21.2424
L-93.4013 -21.3139
" />
<path d="M-93.4013 -21.3139
L-93.6870 -21.3139
" />
<path d="M-93.6870 -21.3139
L-93.8299 -21.2424
" />
<path d="M-93.1870 -20.3853
L-93.3299 -20.3139
" />
<path d="M-93.3299 -20.3139
L-93.6870 -20.3139
" />
<path d="M-93.6870 -20.3139
L-93.8299 -20.3853
" />
<path d="M-93.8299 -20.3853
L-93.9013 -20.5282
" />
<path d="M-93.9013 -20.5282
L-93.9013 -20.6710
" />
<path d="M-93.9013 -20.6710
L-93.8299 -20.8139
" />
<path d="M-93.8299 -20.8139
L-93.6870 -20.8853
" />
<path d="M-93.6870 -20.8853
L-93.3299 -20.8853
" />
<path d="M-93.3299 -20.8853
L-93.1870 -20.9567
" />
<path d="M-92.4727 -20.3139
L-92.4727 -21.3139
" />
<path d="M-92.4727 -21.0282
L-92.4013 -21.1710
" />
<path d="M-92.4013 -21.1710
L-92.3299 -21.2424
" />
<path d="M-92.3299 -21.2424
L-92.1870 -21.3139
" />
<path d="M-92.1870 -21.3139
L-92.0442 -21.3139
" />
<path d="M-90.9013 -20.3139
L-90.9013 -21.8139
" />
<path d="M-90.9013 -20.3853
L-91.0442 -20.3139
" />
<path d="M-91.0442 -20.3139
L-91.3299 -20.3139
" />
<path d="M-91.3299 -20.3139
L-91.4727 -20.3853
" />
<path d="M-91.4727 -20.3853
L-91.5442 -20.4567
" />
<path d="M-91.5442 -20.4567
L-91.6156 -20.5996
" />
<path d="M-91.6156 -20.5996
L-91.6156 -21.0282
" />
<path d="M-91.6156 -21.0282
L-91.5442 -21.1710
" />
<path d="M-91.5442 -21.1710
L-91.4727 -21.2424
" />
<path d="M-91.4727 -21.2424
L-91.3299 -21.3139
" />
<path d="M-91.3299 -21.3139
L-91.0442 -21.3139
" />
<path d="M-91.0442 -21.3139
L-90.9013 -21.2424
" />
</g><text x="-144.0000" y="-23.2500"
textLength="49.8643" font-size="2.0000" lengthAdjust="spacingAndGlyphs"
text-anchor="start" opacity="0" stroke-opacity="0">3-6S 5V supply, ADC VREF, voltage divider</text>
<g class="stroked-text"><desc>3-6S 5V supply, ADC VREF, voltage divider</desc>
<path d="M-143.6870 -24.8139
L-142.7585 -24.8139
" />
<path d="M-142.7585 -24.8139
L-143.2585 -24.2424
" />
<path d="M-143.2585 -24.2424
L-143.0442 -24.2424
" />
<path d="M-143.0442 -24.2424
L-142.9013 -24.1710
" />
<path d="M-142.9013 -24.1710
L-142.8299 -24.0996
" />
<path d="M-142.8299 -24.0996
L-142.7585 -23.9567
" />
<path d="M-142.7585 -23.9567
L-142.7585 -23.5996
" />
<path d="M-142.7585 -23.5996
L-142.8299 -23.4567
" />
<path d="M-142.8299 -23.4567
L-142.9013 -23.3853
" />
<path d="M-142.9013 -23.3853
L-143.0442 -23.3139
" />
<path d="M-143.0442 -23.3139
L-143.4727 -23.3139
" />
<path d="M-143.4727 -23.3139
L-143.6156 -23.3853
" />
<path d="M-143.6156 -23.3853
L-143.6870 -23.4567
" />
<path d="M-142.1156 -23.8853
L-140.9727 -23.8853
" />
<path d="M-139.6156 -24.8139
L-139.9013 -24.8139
" />
<path d="M-139.9013 -24.8139
L-140.0442 -24.7424
" />
<path d="M-140.0442 -24.7424
L-140.1156 -24.6710
" />
<path d="M-140.1156 -24.6710
L-140.2585 -24.4567
" />
<path d="M-140.2585 -24.4567
L-140.3299 -24.1710
" />
<path d="M-140.3299 -24.1710
L-140.3299 -23.5996
" />
<path d="M-140.3299 -23.5996
L-140.2585 -23.4567
" />
<path d="M-140.2585 -23.4567
L-140.1870 -23.3853
" />
<path d="M-140.1870 -23.3853
L-140.0442 -23.3139
" />
<path d="M-140.0442 -23.3139
L-139.7585 -23.3139
" />
<path d="M-139.7585 -23.3139
L-139.6156 -23.3853
" />
<path d="M-139.6156 -23.3853
L-139.5442 -23.4567
" />
<path d="M-139.5442 -23.4567
L-139.4727 -23.5996
" />
<path d="M-139.4727 -23.5996
L-139.4727 -23.9567
" />
<path d="M-139.4727 -23.9567
L-139.5442 -24.0996
" />
<path d="M-139.5442 -24.0996
L-139.6156 -24.1710
" />
<path d="M-139.6156 -24.1710
L-139.7585 -24.2424
" />
<path d="M-139.7585 -24.2424
L-140.0442 -24.2424
" />
<path d="M-140.0442 -24.2424
L-140.1870 -24.1710
" />
<path d="M-140.1870 -24.1710
L-140.2585 -24.0996
" />
<path d="M-140.2585 -24.0996
L-140.3299 -23.9567
" />
<path d="M-138.9013 -23.3853
L-138.6870 -23.3139
" />
<path d="M-138.6870 -23.3139
L-138.3299 -23.3139
" />
<path d="M-138.3299 -23.3139
L-138.1870 -23.3853
" />
<path d="M-138.1870 -23.3853
L-138.1156 -23.4567
" />
<path d="M-138.1156 -23.4567
L-138.0442 -23.5996
" />
<path d="M-138.0442 -23.5996
L-138.0442 -23.7424
" />
<path d="M-138.0442 -23.7424
L-138.1156 -23.8853
" />
<path d="M-138.1156 -23.8853
L-138.1870 -23.9567
" />
<path d="M-138.1870 -23.9567
L-138.3299 -24.0282
" />
<path d="M-138.3299 -24.0282
L-138.6156 -24.0996
" />
<path d="M-138.6156 -24.0996
L-138.7585 -24.1710
" />
<path d="M-138.7585 -24.1710
L-138.8299 -24.2424
" />
<path d="M-138.8299 -24.2424
L-138.9013 -24.3853
" />
<path d="M-138.9013 -24.3853
L-138.9013 -24.5282
" />
<path d="M-138.9013 -24.5282
L-138.8299 -24.6710
" />
<path d="M-138.8299 -24.6710
L-138.7585 -24.7424
" />
<path d="M-138.7585 -24.7424
L-138.6156 -24.8139
" />
<path d="M-138.6156 -24.8139
L-138.2585 -24.8139
" />
<path d="M-138.2585 -24.8139
L-138.0442 -24.7424
" />
<path d="M-135.5442 -24.8139
L-136.2585 -24.8139
" />
<path d="M-136.2585 -24.8139
L-136.3299 -24.0996
" />
<path d="M-136.3299 -24.0996
L-136.2585 -24.1710
" />
<path d="M-136.2585 -24.1710
L-136.1156 -24.2424
" />
<path d="M-136.1156 -24.2424
L-135.7585 -24.2424
" />
<path d="M-135.7585 -24.2424
L-135.6156 -24.1710
" />
<path d="M-135.6156 -24.1710
L-135.5442 -24.0996
" />
<path d="M-135.5442 -24.0996
L-135.4727 -23.9567
" />
<path d="M-135.4727 -23.9567
L-135.4727 -23.5996
" />
<path d="M-135.4727 -23.5996
L-135.5442 -23.4567
" />
<path d="M-135.5442 -23.4567
L-135.6156 -23.3853
" />
<path d="M-135.6156 -23.3853
L-135.7585 -23.3139
" />
<path d="M-135.7585 -23.3139
L-136.1156 -23.3139
" />
<path d="M-136.1156 -23.3139
L-136.2585 -23.3853
" />
<path d="M-136.2585 -23.3853
L-136.3299 -23.4567
" />
<path d="M-135.0442 -24.8139
L-134.5442 -23.3139
" />
<path d="M-134.5442 -23.3139
L-134.0442 -24.8139
" />
<path d="M-132.4727 -23.3853
L-132.3299 -23.3139
" />
<path d="M-132.3299 -23.3139
L-132.0442 -23.3139
" />
<path d="M-132.0442 -23.3139
L-131.9013 -23.3853
" />
<path d="M-131.9013 -23.3853
L-131.8299 -23.5282
" />
<path d="M-131.8299 -23.5282
L-131.8299 -23.5996
" />
<path d="M-131.8299 -23.5996
L-131.9013 -23.7424
" />
<path d="M-131.9013 -23.7424
L-132.0442 -23.8139
" />
<path d="M-132.0442 -23.8139
L-132.2585 -23.8139
" />
<path d="M-132.2585 -23.8139
L-132.4013 -23.8853
" />
<path d="M-132.4013 -23.8853
L-132.4727 -24.0282
" />
<path d="M-132.4727 -24.0282
L-132.4727 -24.0996
" />
<path d="M-132.4727 -24.0996
L-132.4013 -24.2424
" />
<path d="M-132.4013 -24.2424
L-132.2585 -24.3139
" />
<path d="M-132.2585 -24.3139
L-132.0442 -24.3139
" />
<path d="M-132.0442 -24.3139
L-131.9013 -24.2424
" />
<path d="M-130.5442 -24.3139
L-130.5442 -23.3139
" />
<path d="M-131.1870 -24.3139
L-131.1870 -23.5282
" />
<path d="M-131.1870 -23.5282
L-131.1156 -23.3853
" />
<path d="M-131.1156 -23.3853
L-130.9727 -23.3139
" />
<path d="M-130.9727 -23.3139
L-130.7585 -23.3139
" />
<path d="M-130.7585 -23.3139
L-130.6156 -23.3853
" />
<path d="M-130.6156 -23.3853
L-130.5442 -23.4567
" />
<path d="M-129.8299 -24.3139
L-129.8299 -22.8139
" />
<path d="M-129.8299 -24.2424
L-129.6870 -24.3139
" />
<path d="M-129.6870 -24.3139
L-129.4013 -24.3139
" />
<path d="M-129.4013 -24.3139
L-129.2585 -24.2424
" />
<path d="M-129.2585 -24.2424
L-129.1870 -24.1710
" />
<path d="M-129.1870 -24.1710
L-129.1156 -24.0282
" />
<path d="M-129.1156 -24.0282
L-129.1156 -23.5996
" />
<path d="M-129.1156 -23.5996
L-129.1870 -23.4567
" />
<path d="M-129.1870 -23.4567
L-129.2585 -23.3853
" />
<path d="M-129.2585 -23.3853
L-129.4013 -23.3139
" />
<path d="M-129.4013 -23.3139
L-129.6870 -23.3139
" />
<path d="M-129.6870 -23.3139
L-129.8299 -23.3853
" />
<path d="M-128.4727 -24.3139
L-128.4727 -22.8139
" />
<path d="M-128.4727 -24.2424
L-128.3299 -24.3139
" />
<path d="M-128.3299 -24.3139
L-128.0442 -24.3139
" />
<path d="M-128.0442 -24.3139
L-127.9013 -24.2424
" />
<path d="M-127.9013 -24.2424
L-127.8299 -24.1710
" />
<path d="M-127.8299 -24.1710
L-127.7585 -24.0282
" />
<path d="M-127.7585 -24.0282
L-127.7585 -23.5996
" />
<path d="M-127.7585 -23.5996
L-127.8299 -23.4567
" />
<path d="M-127.8299 -23.4567
L-127.9013 -23.3853
" />
<path d="M-127.9013 -23.3853
L-128.0442 -23.3139
" />
<path d="M-128.0442 -23.3139
L-128.3299 -23.3139
" />
<path d="M-128.3299 -23.3139
L-128.4727 -23.3853
" />
<path d="M-126.9013 -23.3139
L-127.0442 -23.3853
" />
<path d="M-127.0442 -23.3853
L-127.1156 -23.5282
" />
<path d="M-127.1156 -23.5282
L-127.1156 -24.8139
" />
<path d="M-126.4727 -24.3139
L-126.1156 -23.3139
" />
<path d="M-125.7585 -24.3139
L-126.1156 -23.3139
" />
<path d="M-126.1156 -23.3139
L-126.2585 -22.9567
" />
<path d="M-126.2585 -22.9567
L-126.3299 -22.8853
" />
<path d="M-126.3299 -22.8853
L-126.4727 -22.8139
" />
<path d="M-125.1156 -23.3853
L-125.1156 -23.3139
" />
<path d="M-125.1156 -23.3139
L-125.1870 -23.1710
" />
<path d="M-125.1870 -23.1710
L-125.2585 -23.0996
" />
<path d="M-123.4013 -23.7424
L-122.6870 -23.7424
" />
<path d="M-123.5442 -23.3139
L-123.0442 -24.8139
" />
<path d="M-123.0442 -24.8139
L-122.5442 -23.3139
" />
<path d="M-122.0442 -23.3139
L-122.0442 -24.8139
" />
<path d="M-122.0442 -24.8139
L-121.6870 -24.8139
" />
<path d="M-121.6870 -24.8139
L-121.4727 -24.7424
" />
<path d="M-121.4727 -24.7424
L-121.3299 -24.5996
" />
<path d="M-121.3299 -24.5996
L-121.2585 -24.4567
" />
<path d="M-121.2585 -24.4567
L-121.1870 -24.1710
" />
<path d="M-121.1870 -24.1710
L-121.1870 -23.9567
" />
<path d="M-121.1870 -23.9567
L-121.2585 -23.6710
" />
<path d="M-121.2585 -23.6710
L-121.3299 -23.5282
" />
<path d="M-121.3299 -23.5282
L-121.4727 -23.3853
" />
<path d="M-121.4727 -23.3853
L-121.6870 -23.3139
" />
<path d="M-121.6870 -23.3139
L-122.0442 -23.3139
" />
<path d="M-119.6870 -23.4567
L-119.7585 -23.3853
" />
<path d="M-119.7585 -23.3853
L-119.9727 -23.3139
" />
<path d="M-119.9727 -23.3139
L-120.1156 -23.3139
" />
<path d="M-120.1156 -23.3139
L-120.3299 -23.3853
" />
<path d="M-120.3299 -23.3853
L-120.4727 -23.5282
" />
<path d="M-120.4727 -23.5282
L-120.5442 -23.6710
" />
<path d="M-120.5442 -23.6710
L-120.6156 -23.9567
" />
<path d="M-120.6156 -23.9567
L-120.6156 -24.1710
" />
<path d="M-120.6156 -24.1710
L-120.5442 -24.4567
" />
<path d="M-120.5442 -24.4567
L-120.4727 -24.5996
" />
<path d="M-120.4727 -24.5996
L-120.3299 -24.7424
" />
<path d="M-120.3299 -24.7424
L-120.1156 -24.8139
" />
<path d="M-120.1156 -24.8139
L-119.9727 -24.8139
" />
<path d="M-119.9727 -24.8139
L-119.7585 -24.7424
" />
<path d="M-119.7585 -24.7424
L-119.6870 -24.6710
" />
<path d="M-118.1156 -24.8139
L-117.6156 -23.3139
" />
<path d="M-117.6156 -23.3139
L-117.1156 -24.8139
" />
<path d="M-115.7585 -23.3139
L-116.2585 -24.0282
" />
<path d="M-116.6156 -23.3139
L-116.6156 -24.8139
" />
<path d="M-116.6156 -24.8139
L-116.0442 -24.8139
" />
<path d="M-116.0442 -24.8139
L-115.9013 -24.7424
" />
<path d="M-115.9013 -24.7424
L-115.8299 -24.6710
" />
<path d="M-115.8299 -24.6710
L-115.7585 -24.5282
" />
<path d="M-115.7585 -24.5282
L-115.7585 -24.3139
" />
<path d="M-115.7585 -24.3139
L-115.8299 -24.1710
" />
<path d="M-115.8299 -24.1710
L-115.9013 -24.0996
" />
<path d="M-115.9013 -24.0996
L-116.0442 -24.0282
" />
<path d="M-116.0442 -24.0282
L-116.6156 -24.0282
" />
<path d="M-115.1156 -24.0996
L-114.6156 -24.0996
" />
<path d="M-114.4013 -23.3139
L-115.1156 -23.3139
" />
<path d="M-115.1156 -23.3139
L-115.1156 -24.8139
" />
<path d="M-115.1156 -24.8139
L-114.4013 -24.8139
" />
<path d="M-113.2585 -24.0996
L-113.7585 -24.0996
" />
<path d="M-113.7585 -23.3139
L-113.7585 -24.8139
" />
<path d="M-113.7585 -24.8139
L-113.0442 -24.8139
" />
<path d="M-112.4013 -23.3853
L-112.4013 -23.3139
" />
<path d="M-112.4013 -23.3139
L-112.4727 -23.1710
" />
<path d="M-112.4727 -23.1710
L-112.5442 -23.0996
" />
<path d="M-110.7585 -24.3139
L-110.4013 -23.3139
" />
<path d="M-110.4013 -23.3139
L-110.0442 -24.3139
" />
<path d="M-109.2585 -23.3139
L-109.4013 -23.3853
" />
<path d="M-109.4013 -23.3853
L-109.4727 -23.4567
" />
<path d="M-109.4727 -23.4567
L-109.5442 -23.5996
" />
<path d="M-109.5442 -23.5996
L-109.5442 -24.0282
" />
<path d="M-109.5442 -24.0282
L-109.4727 -24.1710
" />
<path d="M-109.4727 -24.1710
L-109.4013 -24.2424
" />
<path d="M-109.4013 -24.2424
L-109.2585 -24.3139
" />
<path d="M-109.2585 -24.3139
L-109.0442 -24.3139
" />
<path d="M-109.0442 -24.3139
L-108.9013 -24.2424
" />
<path d="M-108.9013 -24.2424
L-108.8299 -24.1710
" />
<path d="M-108.8299 -24.1710
L-108.7585 -24.0282
" />
<path d="M-108.7585 -24.0282
L-108.7585 -23.5996
" />
<path d="M-108.7585 -23.5996
L-108.8299 -23.4567
" />
<path d="M-108.8299 -23.4567
L-108.9013 -23.3853
" />
<path d="M-108.9013 -23.3853
L-109.0442 -23.3139
" />
<path d="M-109.0442 -23.3139
L-109.2585 -23.3139
" />
<path d="M-107.9013 -23.3139
L-108.0442 -23.3853
" />
<path d="M-108.0442 -23.3853
L-108.1156 -23.5282
" />
<path d="M-108.1156 -23.5282
L-108.1156 -24.8139
" />
<path d="M-107.5442 -24.3139
L-106.9727 -24.3139
" />
<path d="M-107.3299 -24.8139
L-107.3299 -23.5282
" />
<path d="M-107.3299 -23.5282
L-107.2585 -23.3853
" />
<path d="M-107.2585 -23.3853
L-107.1156 -23.3139
" />
<path d="M-107.1156 -23.3139
L-106.9727 -23.3139
" />
<path d="M-105.8299 -23.3139
L-105.8299 -24.0996
" />
<path d="M-105.8299 -24.0996
L-105.9013 -24.2424
" />
<path d="M-105.9013 -24.2424
L-106.0442 -24.3139
" />
<path d="M-106.0442 -24.3139
L-106.3299 -24.3139
" />
<path d="M-106.3299 -24.3139
L-106.4727 -24.2424
" />
<path d="M-105.8299 -23.3853
L-105.9727 -23.3139
" />
<path d="M-105.9727 -23.3139
L-106.3299 -23.3139
" />
<path d="M-106.3299 -23.3139
L-106.4727 -23.3853
" />
<path d="M-106.4727 -23.3853
L-106.5442 -23.5282
" />
<path d="M-106.5442 -23.5282
L-106.5442 -23.6710
" />
<path d="M-106.5442 -23.6710
L-106.4727 -23.8139
" />
<path d="M-106.4727 -23.8139
L-106.3299 -23.8853
" />
<path d="M-106.3299 -23.8853
L-105.9727 -23.8853
" />
<path d="M-105.9727 -23.8853
L-105.8299 -23.9567
" />
<path d="M-104.4727 -24.3139
L-104.4727 -23.0996
" />
<path d="M-104.4727 -23.0996
L-104.5442 -22.9567
" />
<path d="M-104.5442 -22.9567
L-104.6156 -22.8853
" />
<path d="M-104.6156 -22.8853
L-104.7585 -22.8139
" />
<path d="M-104.7585 -22.8139
L-104.9727 -22.8139
" />
<path d="M-104.9727 -22.8139
L-105.1156 -22.8853
" />
<path d="M-104.4727 -23.3853
L-104.6156 -23.3139
" />
<path d="M-104.6156 -23.3139
L-104.9013 -23.3139
" />
<path d="M-104.9013 -23.3139
L-105.0442 -23.3853
" />
<path d="M-105.0442 -23.3853
L-105.1156 -23.4567
" />
<path d="M-105.1156 -23.4567
L-105.1870 -23.5996
" />
<path d="M-105.1870 -23.5996
L-105.1870 -24.0282
" />
<path d="M-105.1870 -24.0282
L-105.1156 -24.1710
" />
<path d="M-105.1156 -24.1710
L-105.0442 -24.2424
" />
<path d="M-105.0442 -24.2424
L-104.9013 -24.3139
" />
<path d="M-104.9013 -24.3139
L-104.6156 -24.3139
" />
<path d="M-104.6156 -24.3139
L-104.4727 -24.2424
" />
<path d="M-103.1870 -23.3853
L-103.3299 -23.3139
" />
<path d="M-103.3299 -23.3139
L-103.6156 -23.3139
" />
<path d="M-103.6156 -23.3139
L-103.7585 -23.3853
" />
<path d="M-103.7585 -23.3853
L-103.8299 -23.5282
" />
<path d="M-103.8299 -23.5282
L-103.8299 -24.0996
" />
<path d="M-103.8299 -24.0996
L-103.7585 -24.2424
" />
<path d="M-103.7585 -24.2424
L-103.6156 -24.3139
" />
<path d="M-103.6156 -24.3139
L-103.3299 -24.3139
" />
<path d="M-103.3299 -24.3139
L-103.1870 -24.2424
" />
<path d="M-103.1870 -24.2424
L-103.1156 -24.0996
" />
<path d="M-103.1156 -24.0996
L-103.1156 -23.9567
" />
<path d="M-103.1156 -23.9567
L-103.8299 -23.8139
" />
<path d="M-100.6870 -23.3139
L-100.6870 -24.8139
" />
<path d="M-100.6870 -23.3853
L-100.8299 -23.3139
" />
<path d="M-100.8299 -23.3139
L-101.1156 -23.3139
" />
<path d="M-101.1156 -23.3139
L-101.2585 -23.3853
" />
<path d="M-101.2585 -23.3853
L-101.3299 -23.4567
" />
<path d="M-101.3299 -23.4567
L-101.4013 -23.5996
" />
<path d="M-101.4013 -23.5996
L-101.4013 -24.0282
" />
<path d="M-101.4013 -24.0282
L-101.3299 -24.1710
" />
<path d="M-101.3299 -24.1710
L-101.2585 -24.2424
" />
<path d="M-101.2585 -24.2424
L-101.1156 -24.3139
" />
<path d="M-101.1156 -24.3139
L-100.8299 -24.3139
" />
<path d="M-100.8299 -24.3139
L-100.6870 -24.2424
" />
<path d="M-99.9727 -23.3139
L-99.9727 -24.3139
" />
<path d="M-99.9727 -24.8139
L-100.0442 -24.7424
" />
<path d="M-100.0442 -24.7424
L-99.9727 -24.6710
" />
<path d="M-99.9727 -24.6710
L-99.9013 -24.7424
" />
<path d="M-99.9013 -24.7424
L-99.9727 -24.8139
" />
<path d="M-99.9727 -24.8139
L-99.9727 -24.6710
" />
<path d="M-99.4013 -24.3139
L-99.0442 -23.3139
" />
<path d="M-99.0442 -23.3139
L-98.6870 -24.3139
" />
<path d="M-98.1156 -23.3139
L-98.1156 -24.3139
" />
<path d="M-98.1156 -24.8139
L-98.1870 -24.7424
" />
<path d="M-98.1870 -24.7424
L-98.1156 -24.6710
" />
<path d="M-98.1156 -24.6710
L-98.0442 -24.7424
" />
<path d="M-98.0442 -24.7424
L-98.1156 -24.8139
" />
<path d="M-98.1156 -24.8139
L-98.1156 -24.6710
" />
<path d="M-96.7585 -23.3139
L-96.7585 -24.8139
" />
<path d="M-96.7585 -23.3853
L-96.9013 -23.3139
" />
<path d="M-96.9013 -23.3139
L-97.1870 -23.3139
" />
<path d="M-97.1870 -23.3139
L-97.3299 -23.3853
" />
<path d="M-97.3299 -23.3853
L-97.4013 -23.4567
" />
<path d="M-97.4013 -23.4567
L-97.4727 -23.5996
" />
<path d="M-97.4727 -23.5996
L-97.4727 -24.0282
" />
<path d="M-97.4727 -24.0282
L-97.4013 -24.1710
" />
<path d="M-97.4013 -24.1710
L-97.3299 -24.2424
" />
<path d="M-97.3299 -24.2424
L-97.1870 -24.3139
" />
<path d="M-97.1870 -24.3139
L-96.9013 -24.3139
" />
<path d="M-96.9013 -24.3139
L-96.7585 -24.2424
" />
<path d="M-95.4727 -23.3853
L-95.6156 -23.3139
" />
<path d="M-95.6156 -23.3139
L-95.9013 -23.3139
" />
<path d="M-95.9013 -23.3139
L-96.0442 -23.3853
" />
<path d="M-96.0442 -23.3853
L-96.1156 -23.5282
" />
<path d="M-96.1156 -23.5282
L-96.1156 -24.0996
" />
<path d="M-96.1156 -24.0996
L-96.0442 -24.2424
" />
<path d="M-96.0442 -24.2424
L-95.9013 -24.3139
" />
<path d="M-95.9013 -24.3139
L-95.6156 -24.3139
" />
<path d="M-95.6156 -24.3139
L-95.4727 -24.2424
" />
<path d="M-95.4727 -24.2424
L-95.4013 -24.0996
" />
<path d="M-95.4013 -24.0996
L-95.4013 -23.9567
" />
<path d="M-95.4013 -23.9567
L-96.1156 -23.8139
" />
<path d="M-94.7585 -23.3139
L-94.7585 -24.3139
" />
<path d="M-94.7585 -24.0282
L-94.6870 -24.1710
" />
<path d="M-94.6870 -24.1710
L-94.6156 -24.2424
" />
<path d="M-94.6156 -24.2424
L-94.4727 -24.3139
" />
<path d="M-94.4727 -24.3139
L-94.3299 -24.3139
" />
</g><text x="-144.0000" y="-26.2500"
textLength="0.4500" font-size="2.0000" lengthAdjust="spacingAndGlyphs"
text-anchor="start" opacity="0" stroke-opacity="0"></text>
<g class="stroked-text"><desc></desc>
</g><text x="-144.0000" y="-29.2500"
textLength="0.4500" font-size="2.0000" lengthAdjust="spacingAndGlyphs"
text-anchor="start" opacity="0" stroke-opacity="0"></text>
<g class="stroked-text"><desc></desc>
</g><path d="M-125.0000 -6.5000
L-125.0000 -3.5000
" />
<path d="M-61.0000 -6.5000
L-61.0000 0.0000
" />
</g>
<g style="fill:none; 
stroke:#585D84; stroke-width:0.1250; stroke-opacity:1; 
stroke-linecap:round; stroke-linejoin:round;">
<g transform="rotate(-90.000000 -13.2200 6.0400)">
<text x="-13.2200" y="6.2900"
transform="scale(-1 1) translate(26.440000 0)"
textLength="1.1321" font-size="0.6667" lengthAdjust="spacingAndGlyphs"
text-anchor="middle" opacity="0" stroke-opacity="0">J1</text>
</g>
<g class="stroked-text"><desc>J1</desc>
<path d="M-13.4952 5.8733
L-13.1380 5.8733
" />
<path d="M-13.1380 5.8733
L-13.0666 5.8495
" />
<path d="M-13.0666 5.8495
L-13.0190 5.8019
" />
<path d="M-13.0190 5.8019
L-12.9952 5.7305
" />
<path d="M-12.9952 5.7305
L-12.9952 5.6829
" />
<path d="M-12.9952 6.3733
L-12.9952 6.0876
" />
<path d="M-12.9952 6.2305
L-13.4952 6.2305
" />
<path d="M-13.4952 6.2305
L-13.4238 6.1829
" />
<path d="M-13.4238 6.1829
L-13.3761 6.1352
" />
<path d="M-13.3761 6.1352
L-13.3523 6.0876
" />
</g></g>
<g style="fill:none; 
stroke:#585D84; stroke-width:0.1500; stroke-opacity:1; 
stroke-linecap:round; stroke-linejoin:round;">
<text x="14.6000" y="41.1900"
transform="scale(-1 1) translate(-29.200000 0)"
textLength="7.2024" font-size="1.3333" lengthAdjust="spacingAndGlyphs"
text-anchor="middle" opacity="0" stroke-opacity="0">JP_VOLTS</text>
<g class="stroked-text"><desc>JP_VOLTS</desc>
<path d="M17.5524 40.1448
L17.5524 40.8591
" />
<path d="M17.5524 40.8591
L17.6000 41.0020
" />
<path d="M17.6000 41.0020
L17.6952 41.0972
" />
<path d="M17.6952 41.0972
L17.8381 41.1448
" />
<path d="M17.8381 41.1448
L17.9333 41.1448
" />
<path d="M17.0762 41.1448
L17.0762 40.1448
" />
<path d="M17.0762 40.1448
L16.6952 40.1448
" />
<path d="M16.6952 40.1448
L16.6000 40.1924
" />
<path d="M16.6000 40.1924
L16.5524 40.2401
" />
<path d="M16.5524 40.2401
L16.5048 40.3353
" />
<path d="M16.5048 40.3353
L16.5048 40.4782
" />
<path d="M16.5048 40.4782
L16.5524 40.5734
" />
<path d="M16.5524 40.5734
L16.6000 40.6210
" />
<path d="M16.6000 40.6210
L16.6952 40.6686
" />
<path d="M16.6952 40.6686
L17.0762 40.6686
" />
<path d="M16.3143 41.2401
L15.5524 41.2401
" />
<path d="M15.4571 40.1448
L15.1238 41.1448
" />
<path d="M15.1238 41.1448
L14.7905 40.1448
" />
<path d="M14.2667 40.1448
L14.0762 40.1448
" />
<path d="M14.0762 40.1448
L13.9810 40.1924
" />
<path d="M13.9810 40.1924
L13.8857 40.2877
" />
<path d="M13.8857 40.2877
L13.8381 40.4782
" />
<path d="M13.8381 40.4782
L13.8381 40.8115
" />
<path d="M13.8381 40.8115
L13.8857 41.0020
" />
<path d="M13.8857 41.0020
L13.9810 41.0972
" />
<path d="M13.9810 41.0972
L14.0762 41.1448
" />
<path d="M14.0762 41.1448
L14.2667 41.1448
" />
<path d="M14.2667 41.1448
L14.3619 41.0972
" />
<path d="M14.3619 41.0972
L14.4571 41.0020
" />
<path d="M14.4571 41.0020
L14.5048 40.8115
" />
<path d="M14.5048 40.8115
L14.5048 40.4782
" />
<path d="M14.5048 40.4782
L14.4571 40.2877
" />
<path d="M14.4571 40.2877
L14.3619 40.1924
" />
<path d="M14.3619 40.1924
L14.2667 40.1448
" />
<path d="M12.9333 41.1448
L13.4095 41.1448
" />
<path d="M13.4095 41.1448
L13.4095 40.1448
" />
<path d="M12.7429 40.1448
L12.1714 40.1448
" />
<path d="M12.4571 41.1448
L12.4571 40.1448
" />
<path d="M11.8857 41.0972
L11.7429 41.1448
" />
<path d="M11.7429 41.1448
L11.5048 41.1448
" />
<path d="M11.5048 41.1448
L11.4095 41.0972
" />
<path d="M11.4095 41.0972
L11.3619 41.0496
" />
<path d="M11.3619 41.0496
L11.3143 40.9543
" />
<path d="M11.3143 40.9543
L11.3143 40.8591
" />
<path d="M11.3143 40.8591
L11.3619 40.7639
" />
<path d="M11.3619 40.7639
L11.4095 40.7162
" />
<path d="M11.4095 40.7162
L11.5048 40.6686
" />
<path d="M11.5048 40.6686
L11.6952 40.6210
" />
<path d="M11.6952 40.6210
L11.7905 40.5734
" />
<path d="M11.7905 40.5734
L11.8381 40.5258
" />
<path d="M11.8381 40.5258
L11.8857 40.4305
" />
<path d="M11.8857 40.4305
L11.8857 40.3353
" />
<path d="M11.8857 40.3353
L11.8381 40.2401
" />
<path d="M11.8381 40.2401
L11.7905 40.1924
" />
<path d="M11.7905 40.1924
L11.6952 40.1448
" />
<path d="M11.6952 40.1448
L11.4571 40.1448
" />
<path d="M11.4571 40.1448
L11.3143 40.1924
" />
</g><g transform="rotate(-90.000000 14.6000 44.7300)">
<text x="14.6000" y="45.2300"
transform="scale(-1 1) translate(-29.200000 0)"
textLength="1.9643" font-size="1.3333" lengthAdjust="spacingAndGlyphs"
text-anchor="middle" opacity="0" stroke-opacity="0">J5</text>
</g>
<g class="stroked-text"><desc>J5</desc>
<path d="M14.0548 44.3967
L14.7691 44.3967
" />
<path d="M14.7691 44.3967
L14.9120 44.3490
" />
<path d="M14.9120 44.3490
L15.0072 44.2538
" />
<path d="M15.0072 44.2538
L15.0548 44.1110
" />
<path d="M15.0548 44.1110
L15.0548 44.0157
" />
<path d="M14.0548 45.3490
L14.0548 44.8729
" />
<path d="M14.0548 44.8729
L14.5310 44.8252
" />
<path d="M14.5310 44.8252
L14.4834 44.8729
" />
<path d="M14.4834 44.8729
L14.4358 44.9681
" />
<path d="M14.4358 44.9681
L14.4358 45.2062
" />
<path d="M14.4358 45.2062
L14.4834 45.3014
" />
<path d="M14.4834 45.3014
L14.5310 45.3490
" />
<path d="M14.5310 45.3490
L14.6262 45.3967
" />
<path d="M14.6262 45.3967
L14.8643 45.3967
" />
<path d="M14.8643 45.3967
L14.9596 45.3490
" />
<path d="M14.9596 45.3490
L15.0072 45.3014
" />
<path d="M15.0072 45.3014
L15.0548 45.2062
" />
<path d="M15.0548 45.2062
L15.0548 44.9681
" />
<path d="M15.0548 44.9681
L15.0072 44.8729
" />
<path d="M15.0072 44.8729
L14.9596 44.8252
" />
</g><text x="63.5000" y="50.6700"
transform="scale(-1 1) translate(-127.000000 0)"
textLength="5.8214" font-size="1.3333" lengthAdjust="spacingAndGlyphs"
text-anchor="middle" opacity="0" stroke-opacity="0">PWM_IN</text>
<g class="stroked-text"><desc>PWM_IN</desc>
<path d="M66.0476 50.6248
L66.0476 49.6248
" />
<path d="M66.0476 49.6248
L65.6667 49.6248
" />
<path d="M65.6667 49.6248
L65.5714 49.6724
" />
<path d="M65.5714 49.6724
L65.5238 49.7201
" />
<path d="M65.5238 49.7201
L65.4762 49.8153
" />
<path d="M65.4762 49.8153
L65.4762 49.9582
" />
<path d="M65.4762 49.9582
L65.5238 50.0534
" />
<path d="M65.5238 50.0534
L65.5714 50.1010
" />
<path d="M65.5714 50.1010
L65.6667 50.1486
" />
<path d="M65.6667 50.1486
L66.0476 50.1486
" />
<path d="M65.1429 49.6248
L64.9048 50.6248
" />
<path d="M64.9048 50.6248
L64.7143 49.9105
" />
<path d="M64.7143 49.9105
L64.5238 50.6248
" />
<path d="M64.5238 50.6248
L64.2857 49.6248
" />
<path d="M63.9048 50.6248
L63.9048 49.6248
" />
<path d="M63.9048 49.6248
L63.5714 50.3391
" />
<path d="M63.5714 50.3391
L63.2381 49.6248
" />
<path d="M63.2381 49.6248
L63.2381 50.6248
" />
<path d="M63.0000 50.7201
L62.2381 50.7201
" />
<path d="M62.0000 50.6248
L62.0000 49.6248
" />
<path d="M61.5238 50.6248
L61.5238 49.6248
" />
<path d="M61.5238 49.6248
L60.9524 50.6248
" />
<path d="M60.9524 50.6248
L60.9524 49.6248
" />
</g><g transform="rotate(-90.000000 63.5000 28.3500)">
<text x="63.5000" y="28.8500"
transform="scale(-1 1) translate(-127.000000 0)"
textLength="1.9643" font-size="1.3333" lengthAdjust="spacingAndGlyphs"
text-anchor="middle" opacity="0" stroke-opacity="0">J3</text>
</g>
<g class="stroked-text"><desc>J3</desc>
<path d="M62.9548 28.0167
L63.6691 28.0167
" />
<path d="M63.6691 28.0167
L63.8120 27.9690
" />
<path d="M63.8120 27.9690
L63.9072 27.8738
" />
<path d="M63.9072 27.8738
L63.9548 27.7310
" />
<path d="M63.9548 27.7310
L63.9548 27.6357
" />
<path d="M62.9548 28.3976
L62.9548 29.0167
" />
<path d="M62.9548 29.0167
L63.3358 28.6833
" />
<path d="M63.3358 28.6833
L63.3358 28.8262
" />
<path d="M63.3358 28.8262
L63.3834 28.9214
" />
<path d="M63.3834 28.9214
L63.4310 28.9690
" />
<path d="M63.4310 28.9690
L63.5262 29.0167
" />
<path d="M63.5262 29.0167
L63.7643 29.0167
" />
<path d="M63.7643 29.0167
L63.8596 28.9690
" />
<path d="M63.8596 28.9690
L63.9072 28.9214
" />
<path d="M63.9072 28.9214
L63.9548 28.8262
" />
<path d="M63.9548 28.8262
L63.9548 28.5405
" />
<path d="M63.9548 28.5405
L63.9072 28.4452
" />
<path d="M63.9072 28.4452
L63.8596 28.3976
" />
</g></g>
<g style="fill:none; 
stroke:#585D84; stroke-width:0.1000; stroke-opacity:1; 
stroke-linecap:round; stroke-linejoin:round;">
<path d="M7.1000 0.9600
L7.1000 5.0400
" />
<path d="M7.1000 5.0400
L8.1000 6.0400
" />
<path d="M8.1000 6.0400
L57.9000 6.0400
" />
<path d="M57.9000 0.9600
L7.1000 0.9600
" />
<path d="M57.9000 6.0400
L57.9000 0.9600
" />
<path d="M13.3300 42.1900
L13.3300 47.2700
" />
<path d="M13.3300 47.2700
L15.2350 47.2700
" />
<path d="M15.2350 47.2700
L15.8700 46.6350
" />
<path d="M15.8700 42.1900
L13.3300 42.1900
" />
<path d="M15.8700 46.6350
L15.8700 42.1900
" />
<path d="M62.2300 8.6650
L62.2300 48.6700
" />
<path d="M62.2300 48.6700
L64.7700 48.6700
" />
<path d="M62.8650 8.0300
L62.2300 8.6650
" />
<path d="M64.7700 8.0300
L62.8650 8.0300
" />
<path d="M64.7700 48.6700
L64.7700 8.0300
" />
</g>
<g style="fill:none; 
stroke:#D0D2CD; stroke-width:0.1000; stroke-opacity:1; 
stroke-linecap:round; stroke-linejoin:round;">
<path d="M0.0000 3.0000
L0.0000 53.0000
" />
<path d="M3.0000 0.0000 A3.0000 3.0000 0.0 0 0 0.0000 3.0000" />
<path d="M0.0000 53.0000 A3.0000 3.0000 0.0 0 0 3.0000 56.0000" />
<path d="M3.0000 56.0000
L72.0000 56.0000
" />
<path d="M46.0000 37.0000 A1.0000 1.0000 0.0 0 0 44.0000 37.0000" />
<path d="M44.0000 52.0000
L44.0000 37.0000
" />
<path d="M46.0000 37.0000
L46.0000 52.0000
" />
<path d="M44.0000 52.0000 A1.0000 1.0000 0.0 0 0 46.0000 52.0000" />
<path d="M72.0000 0.0000
L3.0000 0.0000
" />
<path d="M75.0000 3.0000 A3.1344 3.1344 0.0 0 0 72.0000 0.0000" />
<path d="M72.0000 56.0000 A2.9886 2.9886 0.0 0 0 75.0000 53.0000" />
<path d="M75.0000 53.0000
L75.0000 3.0000
" />
</g> 
</svg>
